<svg width="1787" height="500" viewBox="0 0 1787 500" fill="none" xmlns="http://www.w3.org/2000/svg">
<g clip-path="url(#clip0_2914_31158)">
<path d="M499.368 233.035C490.018 95.2937 370.776 -8.7995 233.035 0.59989C164.439 5.24959 104.193 37.1975 62.1461 85.1444L62.0461 85.0444C61.7462 85.4443 61.4962 85.8443 61.1962 86.1943C19.3989 134.341 -4.09954 198.337 0.600156 266.932C1.05013 273.482 1.80008 279.882 2.75002 286.281C2.75002 286.581 2.85001 286.881 2.90001 287.131C3.54996 291.331 4.24992 295.531 5.09986 299.63V299.88C5.89981 303.63 6.74975 307.33 7.64969 310.98C36.4978 426.122 144.391 507.667 266.983 499.317C404.724 489.968 508.767 370.676 499.418 232.935L499.368 233.035ZM444.971 236.734C446.121 253.683 445.071 270.282 442.021 286.281C442.021 286.181 441.971 286.081 441.921 285.981C423.822 241.684 387.925 209.686 356.427 192.037C362.826 116.992 337.328 85.3444 308.53 80.1947C307.73 80.0447 306.98 79.8947 306.18 79.7947C283.282 76.8449 262.383 93.0438 259.433 115.892C256.483 138.791 272.682 159.689 295.531 162.639C297.531 162.889 299.481 162.939 301.43 162.939C301.58 165.489 301.63 168.189 301.68 170.989C275.032 164.389 250.134 163.089 227.385 165.139C218.886 165.689 210.386 166.789 201.937 168.339C204.787 142.991 214.286 114.542 232.735 93.6938C250.584 73.5451 277.082 62.0459 306.03 64.9957C311.53 65.5456 317.379 66.8956 322.629 68.6954C322.879 68.7954 323.129 68.8454 323.379 68.9454C390.375 96.2436 439.721 159.839 444.921 236.734H444.971ZM270.732 274.932V275.032C264.733 283.631 257.633 292.131 249.284 300.33C236.785 287.031 226.785 272.732 219.186 257.933C218.786 257.133 218.386 256.383 217.986 255.583V255.483C213.486 246.034 209.686 235.635 206.737 224.285C224.486 220.086 241.934 218.586 258.533 219.386C259.433 219.436 260.283 219.486 261.183 219.536H261.283C271.682 220.386 282.582 222.285 293.831 225.385C288.581 242.834 281.182 258.683 272.182 272.682C271.682 273.432 271.232 274.132 270.732 274.882V274.932ZM185.288 65.5956C185.288 65.5956 185.188 65.6956 185.138 65.7956C155.84 103.643 146.091 150.64 146.541 186.738C78.3451 218.736 63.696 256.583 73.6454 284.131C73.8954 284.881 74.1953 285.631 74.4953 286.381C83.3947 307.68 107.843 317.679 129.142 308.78C150.44 299.88 160.44 275.432 151.54 254.133C150.74 252.283 149.84 250.534 148.84 248.834C150.99 247.434 153.29 246.034 155.79 244.584C163.39 270.982 174.639 293.281 187.788 311.93C192.538 318.979 197.687 325.779 203.287 332.328C179.938 342.528 150.49 348.527 123.242 342.978C96.8939 337.578 73.6454 320.379 61.7462 293.881C59.4963 288.831 57.7464 283.131 56.6465 277.682C55.9465 272.932 55.3966 268.132 55.0466 263.233C48.947 173.689 104.493 93.9438 185.338 65.5956H185.288ZM263.233 444.971C210.036 448.571 160.34 430.472 122.792 398.224C170.189 404.673 215.786 389.624 246.834 371.176C308.68 414.273 348.827 408.023 367.676 385.625C368.176 385.025 368.726 384.425 369.176 383.775C383.175 365.426 379.625 339.228 361.277 325.279C342.928 311.28 316.729 314.829 302.78 333.178C301.58 334.778 300.531 336.478 299.581 338.178C297.331 337.028 294.931 335.728 292.481 334.328C311.53 314.529 325.129 293.581 334.728 272.882C338.478 265.233 341.828 257.333 344.678 249.234C365.226 264.383 385.125 286.831 393.974 313.229C402.474 338.728 399.224 367.476 382.175 391.074C378.925 395.524 374.876 399.924 370.676 403.624L370.476 403.774C340.678 427.172 303.83 442.221 263.233 444.971V444.971Z" fill="url(#paint0_linear_2914_31158)"/>
<path style="mix-blend-mode:overlay" opacity="0.9" d="M308.53 80.1952C307.73 80.0452 306.98 79.8952 306.18 79.7952C302.13 79.2952 298.13 79.3952 294.331 79.9952C318.229 92.9944 335.678 129.242 326.529 200.737C323.479 224.436 316.429 246.934 306.28 267.633C298.031 285.432 286.831 303.381 271.782 320.629C279.032 326.079 286.081 330.579 292.531 334.279C311.58 314.48 325.179 293.531 334.778 272.833C344.927 252.134 351.977 229.635 355.027 205.937C365.926 120.793 339.128 85.6448 308.58 80.1952H308.53Z" fill="url(#paint1_radial_2914_31158)"/>
<g style="mix-blend-mode:overlay" opacity="0.8">
<path d="M326.479 200.788C335.628 129.292 318.229 93.0446 294.281 80.0454C293.331 80.1954 292.431 80.3954 291.531 80.5954C314.93 94.0445 331.779 130.292 322.729 200.788C319.679 224.486 312.63 246.985 302.48 267.683C294.531 284.882 283.732 302.231 269.433 318.93C270.183 319.53 270.933 320.08 271.732 320.63C286.781 303.381 298.031 285.432 306.23 267.633C316.38 246.935 323.429 224.436 326.479 200.738V200.788Z" fill="white"/>
</g>
<path style="mix-blend-mode:overlay" opacity="0.5" d="M235.585 362.927C233.335 361.227 231.185 359.427 229.035 357.627C193.738 372.376 144.841 381.575 96.2441 370.326C104.194 380.475 113.093 389.825 122.842 398.174C170.239 404.624 215.836 389.575 246.884 371.126C243.185 368.576 239.435 365.826 235.585 362.927V362.927Z" fill="url(#paint2_radial_2914_31158)"/>
<path style="mix-blend-mode:overlay" opacity="0.6" d="M228.985 357.677C227.885 356.777 226.835 355.877 225.735 354.977C190.188 369.176 141.041 377.676 92.5439 365.626C93.7439 367.226 94.9438 368.826 96.1437 370.376C144.741 381.625 193.637 372.426 228.935 357.677H228.985Z" fill="url(#paint3_linear_2914_31158)"/>
<path style="mix-blend-mode:overlay" opacity="0.9" d="M73.6962 284.181C73.9462 284.931 74.2462 285.681 74.5462 286.431C76.0961 290.181 78.1959 293.581 80.6458 296.63C79.9458 269.432 102.644 236.184 169.14 208.386C191.189 199.187 214.187 193.987 237.186 192.487C256.684 190.737 277.833 191.487 300.331 195.887C301.431 186.888 301.831 178.538 301.781 171.089C275.133 164.489 250.185 163.189 227.436 165.239C204.438 166.789 181.389 171.939 159.391 181.138C80.1958 214.236 63.1469 255.033 73.6962 284.231V284.181Z" fill="url(#paint4_radial_2914_31158)"/>
<g style="mix-blend-mode:overlay" opacity="0.8">
<path d="M169.14 208.336C102.644 236.134 79.9456 269.382 80.6455 296.58C81.2455 297.33 81.8954 298.03 82.4954 298.68C82.4454 271.682 105.394 238.984 170.99 211.536C193.038 202.336 216.037 197.136 239.035 195.637C257.884 193.937 278.333 194.587 299.981 198.636C300.131 197.686 300.231 196.737 300.331 195.787C277.833 191.337 256.684 190.637 237.185 192.387C214.187 193.937 191.138 199.086 169.14 208.286V208.336Z" fill="white"/>
</g>
<path style="mix-blend-mode:overlay" opacity="0.4" d="M355.027 205.986C354.677 208.786 354.178 211.536 353.728 214.335C384.126 237.534 416.573 275.281 431.122 322.978C435.922 311.029 439.572 298.63 441.972 286.031C423.873 241.734 388.025 209.786 356.527 192.087C356.127 196.587 355.677 201.186 355.077 205.986H355.027Z" fill="url(#paint5_radial_2914_31158)"/>
<path style="mix-blend-mode:overlay" opacity="0.5" d="M353.728 214.335C353.478 215.735 353.278 217.085 353.028 218.485C383.126 242.184 415.024 280.481 428.823 328.528C429.623 326.728 430.373 324.878 431.123 323.028C416.574 275.331 384.126 237.584 353.728 214.385V214.335Z" fill="url(#paint6_linear_2914_31158)"/>
<path style="mix-blend-mode:overlay" opacity="0.9" d="M367.727 385.574C368.227 384.975 368.777 384.375 369.227 383.725C371.676 380.475 373.576 376.975 374.976 373.375C351.728 387.574 311.63 384.575 254.284 340.877C235.285 326.428 219.286 309.029 206.487 289.881C195.188 273.832 185.289 255.183 177.839 233.484C169.54 237.034 162.04 240.884 155.641 244.634C163.24 271.032 174.589 293.28 187.739 311.929C200.588 331.078 216.537 348.427 235.535 362.926C303.831 414.923 347.678 409.323 367.677 385.574H367.727Z" fill="url(#paint7_radial_2914_31158)"/>
<g style="mix-blend-mode:overlay" opacity="0.8">
<path d="M254.334 340.827C311.681 384.524 351.778 387.524 375.027 373.325C375.377 372.425 375.627 371.525 375.927 370.675C352.578 384.224 312.781 380.725 256.234 337.627C237.236 323.178 221.237 305.779 208.437 286.631C197.538 271.132 187.889 253.133 180.589 232.384C179.689 232.734 178.839 233.134 177.939 233.484C185.339 255.183 195.288 273.832 206.588 289.881C219.437 309.029 235.386 326.378 254.384 340.877L254.334 340.827Z" fill="white"/>
</g>
<path style="mix-blend-mode:overlay" opacity="0.3" d="M159.34 181.038C161.94 179.938 164.59 178.988 167.19 177.988C172.089 140.041 188.538 93.0936 222.586 56.646C209.837 58.4459 197.288 61.4957 185.139 65.7454C155.841 103.593 146.091 150.59 146.541 186.687C150.591 184.788 154.841 182.888 159.29 181.038H159.34Z" fill="url(#paint8_radial_2914_31158)"/>
<path style="mix-blend-mode:overlay" opacity="0.4" d="M167.19 177.988C168.49 177.488 169.84 176.988 171.14 176.538C176.59 138.641 193.839 91.8436 228.536 55.896C226.537 56.096 224.587 56.346 222.637 56.6459C188.589 93.0936 172.14 140.04 167.24 177.988H167.19Z" fill="url(#paint9_linear_2914_31158)"/>
<path style="mix-blend-mode:multiply" opacity="0.4" d="M233.035 0.600098C164.44 5.24979 104.193 37.1977 62.1462 85.1446C61.8462 85.4946 61.4963 85.8445 61.1963 86.2445C69.3958 94.344 96.144 110.393 106.993 117.042C128.292 94.144 155.04 76.2952 185.338 65.6459C187.438 62.896 189.638 60.2462 191.988 57.5964C220.186 25.6985 258.733 8.84956 303.48 8.84956C308.48 8.84956 318.579 9.64951 318.829 9.64951C291.681 1.85002 262.783 -1.44977 233.035 0.600098Z" fill="url(#paint10_linear_2914_31158)"/>
<path style="mix-blend-mode:multiply" opacity="0.4" d="M263.234 444.971C210.037 448.571 160.34 430.472 122.793 398.224C119.293 397.724 115.793 397.174 112.294 396.474C70.5963 387.975 36.6985 362.976 14.35 324.229C11.8501 319.929 9.65026 315.529 7.65039 311.08C36.4985 426.222 144.391 507.767 266.983 499.417C267.533 486.818 263.784 457.52 263.284 445.021L263.234 444.971Z" fill="url(#paint11_linear_2914_31158)"/>
<path style="mix-blend-mode:multiply" opacity="0.4" d="M499.368 233.035C491.668 232.235 454.171 235.185 444.971 236.735C446.121 253.684 445.071 270.283 442.021 286.281C443.321 289.481 444.521 292.681 445.621 295.981C459.12 336.378 454.421 378.175 432.022 416.923C429.572 421.173 426.922 425.222 424.123 429.122L423.973 429.322C423.973 429.322 424.073 429.222 424.173 429.172C474.969 379.775 504.517 309.28 499.318 233.035H499.368Z" fill="url(#paint12_linear_2914_31158)"/>
<path style="mix-blend-mode:multiply" opacity="0.5" d="M306.081 64.9958C311.581 65.5458 317.43 66.8957 322.68 68.6956C322.93 68.7956 323.18 68.8456 323.43 68.9456C344.978 77.695 364.727 90.2942 381.726 105.793L381.826 105.893C390.025 96.4938 405.824 86.1945 405.824 86.1945C405.824 86.1945 381.626 61.4461 344.628 53.7966C318.73 48.3969 260.334 43.1973 223.486 105.893C223.486 105.893 223.636 105.743 223.836 105.543C226.586 101.443 229.436 97.4437 232.736 93.744C250.585 73.5953 277.083 62.096 306.031 65.0458L306.081 64.9958Z" fill="url(#paint13_linear_2914_31158)"/>
<path style="mix-blend-mode:multiply" opacity="0.5" d="M382.126 391.025C378.876 395.475 374.827 399.874 370.627 403.574C370.427 403.724 370.227 403.924 370.077 404.074C351.678 418.373 330.93 429.172 308.981 436.122H308.831C312.831 447.971 313.881 466.82 313.881 466.82C313.881 466.82 347.379 458.22 372.527 430.072C390.126 410.324 423.824 362.377 387.976 299.131C387.976 299.131 387.976 299.331 388.076 299.631C390.276 304.031 392.276 308.58 393.876 313.23C402.375 338.728 399.125 367.476 382.076 391.075L382.126 391.025Z" fill="url(#paint14_linear_2914_31158)"/>
<path style="mix-blend-mode:multiply" opacity="0.5" d="M61.7969 293.981C59.547 288.931 57.7971 283.232 56.6972 277.782C56.6472 277.532 56.5972 277.282 56.5472 277.032C53.3974 253.984 54.3974 230.585 59.347 208.087V207.937C47.1478 205.537 30.2989 196.987 30.2989 196.987C30.2989 196.987 20.9495 230.285 32.7988 266.183C41.0982 291.281 65.7966 344.478 138.492 345.028C138.492 345.028 138.292 344.978 138.042 344.878C133.092 344.578 128.193 344.078 123.343 343.078C96.9946 337.678 73.7461 320.479 61.8469 293.981H61.7969Z" fill="url(#paint15_linear_2914_31158)"/>
<path style="mix-blend-mode:multiply" opacity="0.6" d="M295.532 162.64C297.531 162.89 299.481 162.94 301.431 162.94C301.431 162.94 300.131 136.942 296.931 123.642C293.732 110.293 289.032 101.494 283.882 96.4942C280.182 92.8945 268.483 88.4448 259.384 115.943C256.434 138.841 272.633 159.74 295.482 162.69L295.532 162.64Z" fill="url(#paint16_linear_2914_31158)"/>
<path style="mix-blend-mode:multiply" opacity="0.5" d="M151.591 254.184C150.791 252.334 149.891 250.584 148.891 248.884C148.891 248.884 127.043 262.983 117.093 272.433C107.144 281.882 101.844 290.332 100.094 297.331C98.8444 302.331 100.844 314.68 129.142 308.83C150.441 299.931 160.44 275.483 151.541 254.184H151.591Z" fill="url(#paint17_linear_2914_31158)"/>
<path style="mix-blend-mode:multiply" opacity="0.6" d="M302.832 333.079C301.632 334.679 300.582 336.379 299.632 338.079C299.632 338.079 322.78 349.928 335.929 353.827C349.079 357.727 359.078 358.077 365.977 356.077C370.927 354.677 380.627 346.778 361.378 325.179C343.029 311.18 316.831 314.73 302.882 333.079H302.832Z" fill="url(#paint18_linear_2914_31158)"/>
<path style="mix-blend-mode:multiply" opacity="0.3" d="M293.83 225.385C288.581 242.834 281.181 258.683 272.182 272.682C271.682 273.432 271.232 274.132 270.732 274.882V274.982C264.732 283.581 257.633 292.08 249.283 300.28C254.983 306.379 261.182 312.279 267.982 317.879C276.531 324.628 284.881 330.028 292.43 334.328C311.479 314.529 325.078 293.58 334.678 272.882C338.427 265.232 341.777 257.333 344.627 249.233C335.828 242.734 326.928 237.584 318.729 234.084C310.229 230.484 301.93 227.635 293.83 225.385V225.385Z" fill="url(#paint19_linear_2914_31158)"/>
<path style="mix-blend-mode:multiply" opacity="0.3" d="M122.792 398.224C170.188 404.673 215.785 389.624 246.833 371.175C243.134 368.626 239.384 365.876 235.534 362.976C223.535 353.826 212.736 343.527 203.186 332.378C179.838 342.577 150.39 348.577 123.142 343.027C96.7933 337.628 73.5448 320.429 61.6456 293.93C59.3957 288.881 57.6458 283.181 56.5459 277.731C63.4454 326.078 87.7938 368.276 122.742 398.274L122.792 398.224Z" fill="url(#paint20_linear_2914_31158)"/>
<path style="mix-blend-mode:multiply" opacity="0.3" d="M249.283 300.28C236.784 286.981 226.784 272.682 219.185 257.883C218.785 257.083 218.385 256.333 217.985 255.533V255.433C213.485 245.983 209.685 235.584 206.736 224.235C198.636 226.135 190.437 228.535 182.237 231.634C172.138 235.634 163.288 240.184 155.839 244.584C163.438 270.982 174.688 293.28 187.837 311.929C192.586 318.979 197.736 325.778 203.336 332.328C213.335 327.928 222.285 322.778 229.434 317.429C236.784 311.879 243.383 306.13 249.383 300.23L249.283 300.28Z" fill="url(#paint21_linear_2914_31158)"/>
<path style="mix-blend-mode:multiply" opacity="0.3" d="M185.187 65.7953C155.889 103.643 146.14 150.64 146.59 186.737C150.69 184.837 154.939 182.938 159.389 181.038C173.288 175.238 187.587 171.038 201.986 168.339C204.836 142.99 214.336 114.542 232.784 93.6934C250.633 73.5447 277.131 62.0455 306.08 64.9953C311.579 65.5453 317.429 66.8952 322.678 68.6951C322.928 68.7951 323.178 68.8451 323.428 68.9451C296.78 58.0958 267.332 52.9461 236.734 55.046C218.785 56.2459 201.536 59.9456 185.337 65.6453C185.337 65.6953 185.237 65.7453 185.187 65.8453V65.7953Z" fill="url(#paint22_linear_2914_31158)"/>
<path style="mix-blend-mode:multiply" opacity="0.3" d="M441.921 285.981C423.822 241.684 387.924 209.686 356.426 192.037C356.026 196.537 355.576 201.137 354.926 205.986C353.026 220.935 349.477 235.384 344.627 249.233C365.176 264.382 385.074 286.831 393.924 313.229C402.423 338.728 399.173 367.476 382.125 391.074C378.875 395.524 374.825 399.924 370.625 403.623L370.425 403.773C407.123 374.925 433.071 333.378 441.971 286.281C441.971 286.181 441.921 286.081 441.871 285.981H441.921Z" fill="url(#paint23_linear_2914_31158)"/>
<path style="mix-blend-mode:multiply" opacity="0.3" d="M201.836 198.386C202.936 207.536 204.636 216.135 206.736 224.235C224.485 220.035 241.934 218.535 258.533 219.335C259.432 219.385 260.282 219.435 261.182 219.485H261.282C271.682 220.335 282.581 222.235 293.83 225.335C296.23 217.335 298.23 209.036 299.68 200.386C301.23 189.587 301.73 179.638 301.68 170.938C275.031 164.339 250.133 163.039 227.385 165.089C218.885 165.639 210.386 166.738 201.936 168.288C200.736 179.188 200.736 189.487 201.786 198.336L201.836 198.386Z" fill="url(#paint24_linear_2914_31158)"/>
<path d="M1422.71 174.789L1385.16 279.482H1385.41L1422.96 175.439L1422.71 174.789Z" fill="url(#paint25_linear_2914_31158)"/>
<path d="M755.35 174.789L717.753 279.482H717.903L755.5 175.189L755.35 174.789Z" fill="url(#paint26_linear_2914_31158)"/>
<path d="M764.751 200.937L792.949 279.481H736.402L722.153 319.079H807.348L831.496 386.174H885.543L787.049 139.141L764.751 200.937Z" fill="url(#paint27_linear_2914_31158)"/>
<path d="M717.753 279.481L755.351 174.788L755.501 175.188L771.349 131.191H729.852L628.509 386.174H679.405L717.903 279.481H717.753Z" fill="url(#paint28_linear_2914_31158)"/>
<path d="M1049.28 254.833C1036.98 247.584 1020.63 240.784 1000.28 234.534C988.635 230.735 979.536 227.235 972.936 223.985C966.337 220.735 961.737 217.036 959.187 212.936C956.637 208.786 955.337 203.936 955.337 198.337C955.337 188.487 959.137 180.888 966.737 175.538C974.336 170.189 984.985 167.489 998.635 167.489C1009.83 167.489 1021.48 169.189 1033.68 172.539C1045.88 175.888 1056.68 180.488 1066.08 186.288L1073.13 145.04C1063.53 139.241 1051.83 134.591 1038.08 131.091C1024.33 127.641 1010.63 125.892 996.985 125.892C978.436 125.892 962.287 128.891 948.688 134.941C935.039 140.991 924.489 149.59 916.99 160.789C909.49 171.989 905.741 185.188 905.741 200.387C905.741 213.386 908.24 224.585 913.29 234.085C918.34 243.584 926.539 251.833 937.938 258.733C949.338 265.682 964.337 271.932 982.886 277.532C996.285 281.581 1006.68 285.381 1014.08 288.931C1021.48 292.481 1026.63 296.48 1029.53 300.83C1032.43 305.18 1033.88 310.38 1033.88 316.429C1033.88 326.928 1029.58 335.178 1020.98 341.078C1012.38 346.977 1000.43 349.977 985.235 349.977C972.036 349.977 958.237 347.927 943.788 343.777C929.339 339.628 916.79 334.328 906.041 327.828L901.341 370.426C907.59 374.675 915.44 378.375 924.839 381.475C934.239 384.625 944.338 387.075 955.187 388.874C966.037 390.674 976.836 391.574 987.585 391.574C1017.78 391.574 1041.48 384.675 1058.73 370.926C1075.93 357.176 1084.58 338.128 1084.58 313.729C1084.58 300.78 1081.78 289.531 1076.18 280.032C1070.58 270.532 1061.63 262.133 1049.33 254.883L1049.28 254.833Z" fill="url(#paint29_linear_2914_31158)"/>
<path d="M1317.01 131.191H1101.28V172.788H1317.01V131.191Z" fill="url(#paint30_linear_2914_31158)"/>
<path d="M1234.82 190.188H1183.47V386.175H1234.82V190.188Z" fill="url(#paint31_linear_2914_31158)"/>
<path d="M1385.16 279.481L1422.71 174.788L1422.96 175.438L1438.91 131.191H1397.21L1295.92 386.174H1346.91L1371.06 319.079H1371.16L1385.41 279.481H1385.16Z" fill="url(#paint32_linear_2914_31158)"/>
<path d="M1432.21 201.187L1460.3 279.482H1403.96L1389.71 319.079H1474.75L1498.9 386.175H1552.9L1454.5 139.341L1432.21 201.187Z" fill="url(#paint33_linear_2914_31158)"/>
<path d="M1718.99 282.831C1731.29 275.882 1741.34 266.582 1749.19 254.833C1757.04 243.084 1760.93 229.385 1760.93 213.736C1760.93 196.737 1757.14 182.088 1749.54 169.789C1741.94 157.489 1731.09 147.99 1716.99 141.291C1702.89 134.591 1686.14 131.241 1666.64 131.241H1648.79V169.839H1659.89C1693.89 169.839 1710.89 184.388 1710.89 213.436C1710.89 242.484 1693.34 257.033 1658.19 257.033H1648.74V295.63H1674.94L1728.64 386.225H1786.03L1718.94 282.881L1718.99 282.831Z" fill="url(#paint34_linear_2914_31158)"/>
<path d="M1631.44 131.191H1582.8V386.174H1631.44V131.191Z" fill="url(#paint35_linear_2914_31158)"/>
</g>
<defs>
<linearGradient id="paint0_linear_2914_31158" x1="79.395" y1="420.572" x2="398.174" y2="101.843" gradientUnits="userSpaceOnUse">
<stop stop-color="#E6007A"/>
<stop offset="0.21" stop-color="#703AC2"/>
<stop offset="0.46" stop-color="#0070EB"/>
<stop offset="0.77" stop-color="#0297FB"/>
<stop offset="1" stop-color="#0AE2FF"/>
</linearGradient>
<radialGradient id="paint1_radial_2914_31158" cx="0" cy="0" r="1" gradientUnits="userSpaceOnUse" gradientTransform="translate(321.229 199.387) scale(95.0438)">
<stop stop-color="white"/>
<stop offset="1" stop-color="white" stop-opacity="0"/>
</radialGradient>
<radialGradient id="paint2_radial_2914_31158" cx="0" cy="0" r="1" gradientUnits="userSpaceOnUse" gradientTransform="translate(180.739 375.726) scale(55.2964)">
<stop stop-color="white"/>
<stop offset="1" stop-color="white" stop-opacity="0"/>
</radialGradient>
<linearGradient id="paint3_linear_2914_31158" x1="97.7436" y1="366.376" x2="151.04" y2="365.626" gradientUnits="userSpaceOnUse">
<stop stop-color="white" stop-opacity="0"/>
<stop offset="1" stop-color="white"/>
</linearGradient>
<radialGradient id="paint4_radial_2914_31158" cx="0" cy="0" r="1" gradientUnits="userSpaceOnUse" gradientTransform="translate(170.522 213.613) rotate(-120) scale(95.0438)">
<stop stop-color="white"/>
<stop offset="1" stop-color="white" stop-opacity="0"/>
</radialGradient>
<radialGradient id="paint5_radial_2914_31158" cx="0" cy="0" r="1" gradientUnits="userSpaceOnUse" gradientTransform="translate(393.481 247.112) rotate(-120) scale(55.2964)">
<stop stop-color="white"/>
<stop offset="1" stop-color="white" stop-opacity="0"/>
</radialGradient>
<linearGradient id="paint6_linear_2914_31158" x1="426.882" y1="323.662" x2="399.585" y2="277.881" gradientUnits="userSpaceOnUse">
<stop stop-color="white" stop-opacity="0"/>
<stop offset="1" stop-color="white"/>
</linearGradient>
<radialGradient id="paint7_radial_2914_31158" cx="0" cy="0" r="1" gradientUnits="userSpaceOnUse" gradientTransform="translate(253.69 332.578) rotate(120) scale(95.0438)">
<stop stop-color="white"/>
<stop offset="1" stop-color="white" stop-opacity="0"/>
</radialGradient>
<radialGradient id="paint8_radial_2914_31158" cx="0" cy="0" r="1" gradientUnits="userSpaceOnUse" gradientTransform="translate(175.73 127.132) rotate(120) scale(55.2964)">
<stop stop-color="white"/>
<stop offset="1" stop-color="white" stop-opacity="0"/>
</radialGradient>
<linearGradient id="paint9_linear_2914_31158" x1="225.324" y1="59.9317" x2="199.301" y2="106.506" gradientUnits="userSpaceOnUse">
<stop stop-color="white" stop-opacity="0"/>
<stop offset="1" stop-color="white"/>
</linearGradient>
<linearGradient id="paint10_linear_2914_31158" x1="236.885" y1="36.2978" x2="155.44" y2="59.9962" gradientUnits="userSpaceOnUse">
<stop stop-color="#231F20"/>
<stop offset="1" stop-color="white"/>
</linearGradient>
<linearGradient id="paint11_linear_2914_31158" x1="82.9955" y1="346.927" x2="151.091" y2="417.973" gradientUnits="userSpaceOnUse">
<stop stop-color="#231F20"/>
<stop offset="1" stop-color="white"/>
</linearGradient>
<linearGradient id="paint12_linear_2914_31158" x1="448.571" y1="336.178" x2="472.22" y2="264.133" gradientUnits="userSpaceOnUse">
<stop stop-color="#231F20"/>
<stop offset="1" stop-color="white"/>
</linearGradient>
<linearGradient id="paint13_linear_2914_31158" x1="273.983" y1="77.495" x2="383.176" y2="102.493" gradientUnits="userSpaceOnUse">
<stop stop-color="#231F20"/>
<stop offset="1" stop-color="white"/>
</linearGradient>
<linearGradient id="paint14_linear_2914_31158" x1="387.339" y1="356.973" x2="311.093" y2="439.038" gradientUnits="userSpaceOnUse">
<stop stop-color="#231F20"/>
<stop offset="1" stop-color="white"/>
</linearGradient>
<linearGradient id="paint15_linear_2914_31158" x1="88.6764" y1="315.503" x2="55.7292" y2="208.44" gradientUnits="userSpaceOnUse">
<stop stop-color="#231F20"/>
<stop offset="1" stop-color="white"/>
</linearGradient>
<linearGradient id="paint16_linear_2914_31158" x1="297.881" y1="117.793" x2="263.334" y2="152.341" gradientUnits="userSpaceOnUse">
<stop stop-color="#231F20"/>
<stop offset="1" stop-color="white"/>
</linearGradient>
<linearGradient id="paint17_linear_2914_31158" x1="111.534" y1="274.631" x2="158.727" y2="287.277" gradientUnits="userSpaceOnUse">
<stop stop-color="#231F20"/>
<stop offset="1" stop-color="white"/>
</linearGradient>
<linearGradient id="paint18_linear_2914_31158" x1="340.536" y1="357.548" x2="327.89" y2="310.355" gradientUnits="userSpaceOnUse">
<stop stop-color="#231F20"/>
<stop offset="1" stop-color="white"/>
</linearGradient>
<linearGradient id="paint19_linear_2914_31158" x1="268.682" y1="315.579" x2="289.431" y2="286.931" gradientUnits="userSpaceOnUse">
<stop stop-color="#231F20"/>
<stop offset="1" stop-color="white"/>
</linearGradient>
<linearGradient id="paint20_linear_2914_31158" x1="197.287" y1="303.18" x2="155.839" y2="322.928" gradientUnits="userSpaceOnUse">
<stop stop-color="#231F20"/>
<stop offset="1" stop-color="white"/>
</linearGradient>
<linearGradient id="paint21_linear_2914_31158" x1="182.237" y1="234.134" x2="195.086" y2="260.832" gradientUnits="userSpaceOnUse">
<stop stop-color="#231F20"/>
<stop offset="1" stop-color="white"/>
</linearGradient>
<linearGradient id="paint22_linear_2914_31158" x1="241.934" y1="151.84" x2="233.084" y2="121.242" gradientUnits="userSpaceOnUse">
<stop stop-color="#231F20"/>
<stop offset="1" stop-color="white"/>
</linearGradient>
<linearGradient id="paint23_linear_2914_31158" x1="337.727" y1="291.931" x2="363.376" y2="297.88" gradientUnits="userSpaceOnUse">
<stop stop-color="#231F20"/>
<stop offset="1" stop-color="white"/>
</linearGradient>
<linearGradient id="paint24_linear_2914_31158" x1="297.43" y1="205.236" x2="264.832" y2="199.336" gradientUnits="userSpaceOnUse">
<stop stop-color="#231F20"/>
<stop offset="1" stop-color="white"/>
</linearGradient>
<linearGradient id="paint25_linear_2914_31158" x1="601.809" y1="410.773" x2="1743.29" y2="149.54" gradientUnits="userSpaceOnUse">
<stop stop-color="#E6007A"/>
<stop offset="0.21" stop-color="#703AC2"/>
<stop offset="0.46" stop-color="#0070EB"/>
<stop offset="0.77" stop-color="#0297FB"/>
<stop offset="1" stop-color="#0AE2FF"/>
</linearGradient>
<linearGradient id="paint26_linear_2914_31158" x1="568.613" y1="265.633" x2="1710.04" y2="4.39976" gradientUnits="userSpaceOnUse">
<stop stop-color="#E6007A"/>
<stop offset="0.21" stop-color="#703AC2"/>
<stop offset="0.46" stop-color="#0070EB"/>
<stop offset="0.77" stop-color="#0297FB"/>
<stop offset="1" stop-color="#0AE2FF"/>
</linearGradient>
<linearGradient id="paint27_linear_2914_31158" x1="581.263" y1="321.029" x2="1722.74" y2="59.7959" gradientUnits="userSpaceOnUse">
<stop stop-color="#E6007A"/>
<stop offset="0.21" stop-color="#703AC2"/>
<stop offset="0.46" stop-color="#0070EB"/>
<stop offset="0.77" stop-color="#0297FB"/>
<stop offset="1" stop-color="#0AE2FF"/>
</linearGradient>
<linearGradient id="paint28_linear_2914_31158" x1="573.862" y1="288.631" x2="1715.34" y2="27.3976" gradientUnits="userSpaceOnUse">
<stop stop-color="#E6007A"/>
<stop offset="0.21" stop-color="#703AC2"/>
<stop offset="0.46" stop-color="#0070EB"/>
<stop offset="0.77" stop-color="#0297FB"/>
<stop offset="1" stop-color="#0AE2FF"/>
</linearGradient>
<linearGradient id="paint29_linear_2914_31158" x1="588.211" y1="351.427" x2="1729.69" y2="90.1938" gradientUnits="userSpaceOnUse">
<stop stop-color="#E6007A"/>
<stop offset="0.21" stop-color="#703AC2"/>
<stop offset="0.46" stop-color="#0070EB"/>
<stop offset="0.77" stop-color="#0297FB"/>
<stop offset="1" stop-color="#0AE2FF"/>
</linearGradient>
<linearGradient id="paint30_linear_2914_31158" x1="575.762" y1="296.93" x2="1717.24" y2="35.6972" gradientUnits="userSpaceOnUse">
<stop stop-color="#E6007A"/>
<stop offset="0.21" stop-color="#703AC2"/>
<stop offset="0.46" stop-color="#0070EB"/>
<stop offset="0.77" stop-color="#0297FB"/>
<stop offset="1" stop-color="#0AE2FF"/>
</linearGradient>
<linearGradient id="paint31_linear_2914_31158" x1="605.412" y1="426.372" x2="1746.83" y2="165.141" gradientUnits="userSpaceOnUse">
<stop stop-color="#E6007A"/>
<stop offset="0.21" stop-color="#703AC2"/>
<stop offset="0.46" stop-color="#0070EB"/>
<stop offset="0.77" stop-color="#0297FB"/>
<stop offset="1" stop-color="#0AE2FF"/>
</linearGradient>
<linearGradient id="paint32_linear_2914_31158" x1="607.06" y1="433.771" x2="1748.54" y2="172.538" gradientUnits="userSpaceOnUse">
<stop stop-color="#E6007A"/>
<stop offset="0.21" stop-color="#703AC2"/>
<stop offset="0.46" stop-color="#0070EB"/>
<stop offset="0.77" stop-color="#0297FB"/>
<stop offset="1" stop-color="#0AE2FF"/>
</linearGradient>
<linearGradient id="paint33_linear_2914_31158" x1="614.509" y1="466.269" x2="1755.99" y2="205.036" gradientUnits="userSpaceOnUse">
<stop stop-color="#E6007A"/>
<stop offset="0.21" stop-color="#703AC2"/>
<stop offset="0.46" stop-color="#0070EB"/>
<stop offset="0.77" stop-color="#0297FB"/>
<stop offset="1" stop-color="#0AE2FF"/>
</linearGradient>
<linearGradient id="paint34_linear_2914_31158" x1="624.258" y1="508.867" x2="1765.63" y2="247.683" gradientUnits="userSpaceOnUse">
<stop stop-color="#E6007A"/>
<stop offset="0.21" stop-color="#703AC2"/>
<stop offset="0.46" stop-color="#0070EB"/>
<stop offset="0.77" stop-color="#0297FB"/>
<stop offset="1" stop-color="#0AE2FF"/>
</linearGradient>
<linearGradient id="paint35_linear_2914_31158" x1="618.758" y1="484.868" x2="1760.23" y2="223.635" gradientUnits="userSpaceOnUse">
<stop stop-color="#E6007A"/>
<stop offset="0.21" stop-color="#703AC2"/>
<stop offset="0.46" stop-color="#0070EB"/>
<stop offset="0.77" stop-color="#0297FB"/>
<stop offset="1" stop-color="#0AE2FF"/>
</linearGradient>
<clipPath id="clip0_2914_31158">
<rect width="1786.25" height="500" fill="white"/>
</clipPath>
</defs>
</svg>
