<svg width="1000" height="1000" viewBox="0 0 1000 1000" fill="none" xmlns="http://www.w3.org/2000/svg">
<g clip-path="url(#clip0_2914_31119)">
<path d="M998.83 466.07C980.09 190.58 741.57 -17.5701 466.07 1.16992C328.83 10.5099 208.33 74.4099 124.24 170.22L124.01 170.05C123.44 170.83 122.91 171.61 122.35 172.39C38.8199 268.68 -8.16007 396.71 1.16993 533.93C2.05993 547 3.59993 559.87 5.45993 572.63C5.53993 573.21 5.62993 573.79 5.70993 574.37C6.96993 582.79 8.42993 591.12 10.0899 599.39C10.1199 599.55 10.1499 599.7 10.1799 599.85C11.6999 607.33 13.3799 614.75 15.2199 622.1V622.13C72.9699 852.41 288.73 1015.51 533.92 998.83C809.42 980.09 1017.56 741.57 998.82 466.07H998.83ZM889.99 473.47C892.3 507.39 890.16 540.6 884.12 572.55C884.05 572.37 883.99 572.18 883.91 571.99C847.66 483.39 775.96 419.42 712.9 384.08C725.66 233.95 674.73 170.7 617.08 160.41C615.51 160.11 613.94 159.85 612.33 159.65C566.58 153.78 524.74 186.12 518.88 231.87C513.01 277.62 545.35 319.46 591.1 325.33C595.09 325.83 599.04 325.98 602.95 325.91C603.2 330.98 603.36 336.36 603.41 341.99C550.11 328.78 500.28 326.2 454.86 330.28C437.87 331.41 420.87 333.55 403.97 336.71C409.64 286.01 428.66 229.1 465.57 187.45C501.25 147.19 554.29 124.11 612.15 130.03C623.12 131.15 634.82 133.85 645.36 137.38C645.84 137.54 646.36 137.68 646.84 137.85L646.86 137.82C780.89 192.42 879.52 319.62 889.99 473.47V473.47ZM541.5 549.84C541.46 549.89 541.43 549.95 541.39 550C529.46 567.21 515.27 584.17 498.61 600.58C473.64 574.01 453.58 545.4 438.37 515.81C437.59 514.22 436.76 512.72 436 511.1C435.97 511.04 435.94 510.98 435.91 510.92C426.97 491.98 419.37 471.2 413.49 448.56C449.02 440.2 483.86 437.13 517.14 438.75C518.9 438.87 520.63 438.9 522.4 439.05C522.47 439.05 522.53 439.06 522.6 439.06C543.44 440.79 565.2 444.59 587.71 450.79C577.19 485.72 562.43 517.42 544.4 545.42C543.42 546.89 542.53 548.36 541.51 549.83L541.5 549.84ZM370.65 131.2C370.56 131.32 370.45 131.43 370.36 131.55C311.78 207.21 292.22 301.23 293.13 373.49C156.74 437.5 127.43 513.24 147.34 568.3C147.86 569.81 148.43 571.3 149.06 572.79C166.85 615.35 215.78 635.41 258.33 617.61C300.89 599.82 320.95 550.89 303.16 508.34C301.6 504.63 299.75 501.14 297.74 497.79C302.05 495 306.68 492.14 311.59 489.26C326.8 542.04 349.31 586.67 375.56 623.98C385.02 638.1 395.35 651.72 406.51 664.76C359.77 685.21 300.95 697.2 246.42 686.06C193.71 675.29 147.2 640.9 123.4 587.82C118.89 577.76 115.37 566.28 113.16 555.38C111.8 545.86 110.67 536.27 110 526.52C97.8199 347.41 208.94 187.97 370.64 131.19L370.65 131.2ZM526.53 890C420.17 897.23 320.75 860.96 245.61 796.47C340.42 809.37 431.62 779.3 493.75 742.38C617.44 828.56 697.71 816.08 735.45 771.3C736.49 770.09 737.51 768.86 738.48 767.57C766.44 730.88 759.35 678.48 722.66 650.53C685.97 622.57 633.57 629.66 605.61 666.34C603.18 669.54 601.08 672.89 599.18 676.31C594.64 673.99 589.88 671.42 584.96 668.63C623.09 629.05 650.26 587.16 669.45 545.75C676.96 530.47 683.61 514.68 689.33 498.46C730.43 528.72 770.26 573.67 787.89 626.5C804.92 677.53 798.39 735.01 764.33 782.16C757.87 791.1 749.69 799.89 741.36 807.24C741.24 807.35 741.12 807.46 741 807.57C681.41 854.4 607.68 884.48 526.53 890V890Z" fill="url(#paint0_linear_2914_31119)"/>
<path style="mix-blend-mode:overlay" opacity="0.9" d="M617.09 160.41C615.52 160.11 613.95 159.85 612.34 159.65C604.24 158.61 596.29 158.83 588.61 160.04C636.44 186.06 671.31 258.56 652.98 401.58C646.91 448.95 632.82 494.02 612.48 535.38C596 570.94 573.58 606.85 543.44 641.35C557.91 652.21 572.03 661.29 584.95 668.62C623.08 629.04 650.25 587.15 669.44 545.74C689.78 504.38 703.86 459.3 709.94 411.94C731.77 241.66 678.18 171.31 617.08 160.4L617.09 160.41Z" fill="url(#paint1_radial_2914_31119)"/>
<g style="mix-blend-mode:overlay" opacity="0.3">
<path d="M652.99 401.58C671.32 258.57 636.45 186.06 588.62 160.04C586.75 160.34 584.92 160.73 583.09 161.15C629.92 188.07 663.61 260.5 645.53 401.57C639.46 448.94 625.37 494.01 605.03 535.37C589.1 569.76 567.54 604.45 538.9 637.9C540.42 639.08 541.94 640.2 543.45 641.34C573.59 606.84 596.01 570.93 612.49 535.37C632.83 494.01 646.91 448.93 652.99 401.57V401.58Z" fill="white"/>
</g>
<path style="mix-blend-mode:overlay" opacity="0.5" d="M471.19 725.95C466.69 722.52 462.37 718.94 458.04 715.36C387.45 744.81 289.6 763.28 192.44 740.73C208.35 761.01 226.11 779.74 245.61 796.48C340.42 809.38 431.62 779.31 493.75 742.39C486.37 737.25 478.87 731.81 471.18 725.96L471.19 725.95Z" fill="url(#paint2_radial_2914_31119)"/>
<path style="mix-blend-mode:overlay" opacity="0.3" d="M458.041 715.35C455.881 713.56 453.701 711.78 451.581 709.95C380.461 738.37 282.161 755.36 185.221 731.2C187.581 734.41 189.981 737.58 192.441 740.71C289.601 763.26 387.451 744.79 458.041 715.34V715.35Z" fill="url(#paint3_linear_2914_31119)"/>
<path style="mix-blend-mode:overlay" opacity="0.9" d="M147.36 568.39C147.88 569.9 148.45 571.39 149.08 572.88C152.23 580.41 156.39 587.2 161.28 593.23C159.9 538.8 205.25 472.34 338.27 416.72C382.33 398.3 428.41 387.96 474.39 384.89C513.43 381.38 555.74 382.85 600.69 391.7C602.85 373.74 603.67 356.97 603.55 342.11C550.21 328.88 500.35 326.29 454.89 330.38C408.9 333.45 362.82 343.79 318.77 362.21C160.39 428.45 126.26 510.03 147.36 568.4V568.39Z" fill="url(#paint4_radial_2914_31119)"/>
<g style="mix-blend-mode:overlay" opacity="0.3">
<path d="M338.27 416.72C205.25 472.35 159.9 538.8 161.28 593.23C162.47 594.7 163.73 596.09 165.01 597.46C164.91 543.45 210.79 478.05 342 423.18C386.06 404.76 432.14 394.42 478.12 391.35C515.87 387.96 556.69 389.27 599.98 397.36C600.24 395.45 600.46 393.58 600.68 391.7C555.73 382.85 513.42 381.38 474.38 384.89C428.39 387.96 382.31 398.3 338.26 416.72H338.27Z" fill="white"/>
</g>
<path style="mix-blend-mode:overlay" opacity="0.4" d="M710.081 411.98C709.361 417.59 708.42 423.12 707.48 428.66C768.28 475.06 833.2 550.57 862.25 645.99C871.86 622.07 879.2 597.33 883.94 572.07C847.71 483.51 776.061 419.56 713.031 384.22C712.271 393.18 711.311 402.4 710.081 411.98Z" fill="url(#paint5_radial_2914_31119)"/>
<path style="mix-blend-mode:overlay" opacity="0.2" d="M707.48 428.66C707.01 431.43 706.56 434.2 706.04 436.95C766.22 484.33 830.08 560.96 857.63 657C859.23 653.35 860.77 649.68 862.26 645.99C833.21 550.57 768.29 475.06 707.49 428.66H707.48Z" fill="url(#paint6_linear_2914_31119)"/>
<path style="mix-blend-mode:overlay" opacity="0.9" d="M735.51 771.18C736.55 769.97 737.57 768.74 738.54 767.45C743.49 760.96 747.28 753.96 750.06 746.71C703.61 775.12 623.38 769.07 508.7 681.69C470.72 652.75 438.72 618.01 413.07 579.72C390.51 547.67 370.63 510.29 355.82 466.94C339.18 474.05 324.25 481.73 311.45 489.26C326.66 542.07 349.35 586.55 375.62 623.87C401.27 662.16 433.26 696.9 471.25 725.84C607.8 829.89 695.52 818.65 735.52 771.19L735.51 771.18Z" fill="url(#paint7_radial_2914_31119)"/>
<g style="mix-blend-mode:overlay" opacity="0.3">
<path d="M508.701 681.69C623.391 769.07 703.611 775.12 750.061 746.71C750.741 744.94 751.311 743.16 751.861 741.36C705.131 768.45 625.561 761.42 512.431 675.22C474.451 646.28 442.451 611.54 416.801 573.25C394.991 542.26 375.721 506.25 361.071 464.71C359.291 465.44 357.561 466.19 355.811 466.93C370.621 510.28 390.501 547.66 413.061 579.71C438.711 618 470.701 652.74 508.691 681.68L508.701 681.69Z" fill="white"/>
</g>
<path style="mix-blend-mode:overlay" opacity="0.3" d="M318.691 362.05C323.901 359.87 329.171 357.92 334.441 355.96C344.231 280.1 377.161 186.13 445.271 113.26C419.751 116.9 394.651 122.91 370.411 131.43C311.831 207.09 292.271 301.11 293.181 373.37C301.321 369.55 309.781 365.77 318.691 362.04V362.05Z" fill="url(#paint8_radial_2914_31119)"/>
<path style="mix-blend-mode:overlay" opacity="0.2" d="M334.44 355.97C337.07 354.99 339.7 354 342.34 353.08C353.29 277.28 387.72 183.65 457.12 111.78C453.16 112.22 449.21 112.71 445.27 113.28C377.16 186.15 344.23 280.13 334.44 355.98V355.97Z" fill="url(#paint9_linear_2914_31119)"/>
<path style="mix-blend-mode:multiply" opacity="0.4" d="M466.07 1.17003C328.83 10.51 208.33 74.41 124.24 170.22C123.6 170.94 122.97 171.67 122.34 172.4C138.71 188.63 192.21 220.65 213.9 234.01C256.48 188.22 310 152.49 370.64 131.2C374.88 125.74 379.27 120.36 383.91 115.11C440.39 51.38 517.52 17.69 606.97 17.69C616.93 17.69 637.21 19.27 637.64 19.31C583.43 3.73003 525.63 -2.87997 466.07 1.17003Z" fill="url(#paint10_linear_2914_31119)"/>
<path style="mix-blend-mode:multiply" opacity="0.4" d="M526.53 889.99C420.17 897.22 320.75 860.95 245.61 796.46C238.62 795.51 231.61 794.37 224.59 792.93C141.16 775.88 73.4202 725.93 28.6902 648.46C23.7102 639.84 19.2602 631.05 15.2402 622.13C72.9902 852.41 288.74 1015.5 533.93 998.82C535.02 973.57 527.57 914.98 526.53 889.98V889.99Z" fill="url(#paint11_linear_2914_31119)"/>
<path style="mix-blend-mode:multiply" opacity="0.4" d="M998.83 466.07C983.47 464.5 908.44 470.42 889.99 473.47C892.3 507.39 890.16 540.6 884.12 572.55C886.71 578.91 889.16 585.36 891.37 591.97C918.32 672.75 908.93 756.39 864.2 833.86C859.31 842.32 854.04 850.43 848.44 858.23C848.33 858.38 848.21 858.55 848.12 858.67C848.12 858.67 848.35 858.47 848.48 858.35C950.03 759.55 1009.19 618.51 998.82 466.07H998.83Z" fill="url(#paint12_linear_2914_31119)"/>
<path style="mix-blend-mode:multiply" opacity="0.5" d="M612.15 130.04C623.12 131.16 634.82 133.86 645.36 137.39C645.84 137.55 646.36 137.69 646.84 137.86L646.86 137.83C689.99 155.4 729.43 180.53 763.47 211.6C763.54 211.66 763.62 211.71 763.69 211.77C780.1 193.01 811.69 172.4 811.69 172.4C811.69 172.4 763.32 122.92 689.33 107.56C637.54 96.8099 520.72 86.3899 447.04 211.76C447.04 211.76 447.33 211.48 447.76 211.09C453.21 202.85 459.01 194.85 465.56 187.45C501.24 147.19 554.28 124.11 612.14 130.03L612.15 130.04Z" fill="url(#paint13_linear_2914_31119)"/>
<path style="mix-blend-mode:multiply" opacity="0.5" d="M764.32 782.11C757.86 791.05 749.68 799.84 741.35 807.19C740.97 807.53 740.59 807.9 740.21 808.24L740.23 808.28C703.45 836.85 661.97 858.44 618.04 872.38C617.95 872.41 617.87 872.45 617.78 872.48C625.82 896.07 627.87 933.73 627.87 933.73C627.87 933.73 694.91 916.58 745.2 860.19C780.41 820.71 847.84 724.75 776.1 598.26C776.1 598.26 776.19 598.65 776.32 599.22C780.73 608.06 784.77 617.08 787.89 626.45C804.92 677.48 798.39 734.96 764.33 782.1L764.32 782.11Z" fill="url(#paint14_linear_2914_31119)"/>
<path style="mix-blend-mode:multiply" opacity="0.5" d="M123.57 587.97C119.06 577.91 115.54 566.43 113.33 555.53C113.23 555.03 113.09 554.51 113 554.02H112.96C106.61 507.88 108.65 461.16 118.54 416.14C118.56 416.05 118.56 415.96 118.58 415.86C94.1305 411.03 60.4905 393.98 60.4905 393.98C60.4905 393.98 41.8205 460.61 65.5205 532.36C82.1105 582.59 131.49 688.97 276.91 690.09C276.91 690.09 276.52 689.97 275.96 689.8C266.1 689.2 256.27 688.18 246.59 686.21C193.88 675.44 147.37 641.05 123.57 587.97V587.97Z" fill="url(#paint15_linear_2914_31119)"/>
<path style="mix-blend-mode:multiply" opacity="0.6" d="M591.121 325.33C595.111 325.83 599.061 325.98 602.971 325.91C602.971 325.91 600.361 273.96 593.981 247.3C587.601 220.65 578.191 202.99 567.861 193C560.461 185.84 537.081 176.93 518.911 231.86C513.041 277.61 545.381 319.45 591.131 325.32L591.121 325.33Z" fill="url(#paint16_linear_2914_31119)"/>
<path style="mix-blend-mode:multiply" opacity="0.5" d="M303.18 508.43C301.62 504.72 299.77 501.23 297.76 497.88C297.76 497.88 254.07 526.12 234.18 544.97C214.29 563.82 203.7 580.8 200.22 594.74C197.72 604.73 201.69 629.43 258.35 617.71C300.91 599.92 320.97 550.99 303.18 508.44V508.43Z" fill="url(#paint17_linear_2914_31119)"/>
<path style="mix-blend-mode:multiply" opacity="0.6" d="M605.68 666.2C603.25 669.4 601.15 672.75 599.25 676.17C599.25 676.17 645.55 699.88 671.82 707.69C698.09 715.49 718.08 716.17 731.9 712.21C741.8 709.38 761.21 693.59 722.73 650.39C686.04 622.43 633.64 629.52 605.68 666.2V666.2Z" fill="url(#paint18_linear_2914_31119)"/>
<path style="mix-blend-mode:multiply" opacity="0.3" d="M587.7 450.8C577.18 485.73 562.42 517.43 544.39 545.43C543.41 546.9 542.52 548.37 541.5 549.84C541.46 549.89 541.43 549.95 541.39 550C529.46 567.21 515.27 584.17 498.61 600.58C510.06 612.76 522.43 624.55 536.03 635.74C553.1 649.21 569.83 660.04 584.97 668.62C623.1 629.04 650.27 587.15 669.46 545.74C676.97 530.46 683.62 514.67 689.34 498.45C671.75 485.5 653.93 475.19 637.51 468.19C620.53 460.95 603.93 455.27 587.71 450.79L587.7 450.8Z" fill="url(#paint19_linear_2914_31119)"/>
<path style="mix-blend-mode:multiply" opacity="0.3" d="M245.61 796.47C340.42 809.37 431.62 779.3 493.75 742.38C486.37 737.24 478.87 731.8 471.18 725.95C447.2 707.68 425.62 687.09 406.5 664.76C359.76 685.21 300.94 697.2 246.41 686.06C193.7 675.29 147.19 640.9 123.39 587.82C118.88 577.76 115.36 566.28 113.15 555.38C126.92 652.03 175.7 736.47 245.6 796.46L245.61 796.47Z" fill="url(#paint20_linear_2914_31119)"/>
<path style="mix-blend-mode:multiply" opacity="0.3" d="M498.611 600.59C473.641 574.02 453.581 545.41 438.371 515.82C437.591 514.23 436.761 512.73 436.001 511.11C435.971 511.05 435.941 510.99 435.911 510.93C426.971 491.99 419.371 471.21 413.491 448.57C397.261 452.39 380.891 457.21 364.451 463.37C344.291 471.4 326.571 480.46 311.601 489.25C326.811 542.03 349.321 586.66 375.571 623.97C385.031 638.09 395.361 651.71 406.521 664.75C426.561 655.98 444.421 645.69 458.711 634.96C473.441 623.89 486.651 612.38 498.621 600.59H498.611Z" fill="url(#paint21_linear_2914_31119)"/>
<path style="mix-blend-mode:multiply" opacity="0.3" d="M370.361 131.55C311.781 207.21 292.221 301.23 293.131 373.49C301.301 369.66 309.801 365.86 318.751 362.11C346.531 350.49 375.121 342.1 403.981 336.71C409.651 286.01 428.671 229.1 465.581 187.45C501.261 147.19 554.301 124.11 612.161 130.03C623.131 131.15 634.831 133.85 645.371 137.38C645.851 137.54 646.371 137.68 646.851 137.85L646.871 137.82C593.561 116.1 534.671 105.84 473.481 110C437.541 112.44 403.101 119.8 370.661 131.19C370.571 131.31 370.461 131.42 370.371 131.54L370.361 131.55Z" fill="url(#paint22_linear_2914_31119)"/>
<path style="mix-blend-mode:multiply" opacity="0.3" d="M883.92 571.99C847.67 483.39 775.97 419.42 712.91 384.08C712.15 393.07 711.19 402.32 709.95 411.94C706.12 441.81 699.09 470.76 689.33 498.45C730.43 528.71 770.26 573.66 787.89 626.49C804.92 677.52 798.39 735 764.33 782.15C757.87 791.09 749.69 799.88 741.36 807.23C741.24 807.34 741.12 807.45 741 807.56C814.41 749.87 866.33 666.71 884.13 572.54C884.06 572.36 884 572.17 883.92 571.98V571.99Z" fill="url(#paint23_linear_2914_31119)"/>
<path style="mix-blend-mode:multiply" opacity="0.3" d="M403.681 396.85C405.901 415.14 409.261 432.32 413.491 448.57C449.021 440.21 483.861 437.14 517.141 438.76C518.901 438.88 520.631 438.91 522.401 439.06C522.471 439.06 522.531 439.07 522.601 439.07C543.441 440.8 565.201 444.6 587.711 450.8C592.521 434.82 596.541 418.23 599.421 400.89C602.561 379.34 603.571 359.41 603.431 342C550.131 328.79 500.301 326.21 454.881 330.29C437.891 331.42 420.891 333.56 403.991 336.72C401.561 358.47 401.541 379.1 403.691 396.85H403.681Z" fill="url(#paint24_linear_2914_31119)"/>
</g>
<defs>
<linearGradient id="paint0_linear_2914_31119" x1="158.78" y1="841.24" x2="796.36" y2="203.66" gradientUnits="userSpaceOnUse">
<stop stop-color="white"/>
<stop offset="0.21" stop-color="white"/>
<stop offset="0.46" stop-color="white"/>
<stop offset="0.77" stop-color="white"/>
<stop offset="1" stop-color="white"/>
</linearGradient>
<radialGradient id="paint1_radial_2914_31119" cx="0" cy="0" r="1" gradientUnits="userSpaceOnUse" gradientTransform="translate(642.52 398.79) scale(190.11)">
<stop stop-color="white"/>
<stop offset="1" stop-color="white" stop-opacity="0"/>
</radialGradient>
<radialGradient id="paint2_radial_2914_31119" cx="0" cy="0" r="1" gradientUnits="userSpaceOnUse" gradientTransform="translate(361.51 751.47) scale(110.61)">
<stop stop-color="white"/>
<stop offset="1" stop-color="white" stop-opacity="0"/>
</radialGradient>
<linearGradient id="paint3_linear_2914_31119" x1="195.531" y1="732.76" x2="302.141" y2="731.28" gradientUnits="userSpaceOnUse">
<stop stop-color="white" stop-opacity="0"/>
<stop offset="1" stop-color="white"/>
</linearGradient>
<radialGradient id="paint4_radial_2914_31119" cx="0" cy="0" r="1" gradientUnits="userSpaceOnUse" gradientTransform="translate(341.092 427.181) rotate(-120) scale(190.11)">
<stop stop-color="white"/>
<stop offset="1" stop-color="white" stop-opacity="0"/>
</radialGradient>
<radialGradient id="paint5_radial_2914_31119" cx="0" cy="0" r="1" gradientUnits="userSpaceOnUse" gradientTransform="translate(787.014 494.199) rotate(-120) scale(110.61)">
<stop stop-color="white"/>
<stop offset="1" stop-color="white" stop-opacity="0"/>
</radialGradient>
<linearGradient id="paint6_linear_2914_31119" x1="853.813" y1="647.301" x2="799.213" y2="555.71" gradientUnits="userSpaceOnUse">
<stop stop-color="white" stop-opacity="0"/>
<stop offset="1" stop-color="white"/>
</linearGradient>
<radialGradient id="paint7_radial_2914_31119" cx="0" cy="0" r="1" gradientUnits="userSpaceOnUse" gradientTransform="translate(507.378 665.219) rotate(120) scale(190.11)">
<stop stop-color="white"/>
<stop offset="1" stop-color="white" stop-opacity="0"/>
</radialGradient>
<radialGradient id="paint8_radial_2914_31119" cx="0" cy="0" r="1" gradientUnits="userSpaceOnUse" gradientTransform="translate(351.428 254.313) rotate(120) scale(110.61)">
<stop stop-color="white"/>
<stop offset="1" stop-color="white" stop-opacity="0"/>
</radialGradient>
<linearGradient id="paint9_linear_2914_31119" x1="450.627" y1="119.916" x2="398.598" y2="212.992" gradientUnits="userSpaceOnUse">
<stop stop-color="white" stop-opacity="0"/>
<stop offset="1" stop-color="white"/>
</linearGradient>
<linearGradient id="paint10_linear_2914_31119" x1="473.81" y1="72.6" x2="310.92" y2="119.99" gradientUnits="userSpaceOnUse">
<stop stop-color="#231F20"/>
<stop offset="1" stop-color="white"/>
</linearGradient>
<linearGradient id="paint11_linear_2914_31119" x1="165.98" y1="693.85" x2="302.21" y2="836.01" gradientUnits="userSpaceOnUse">
<stop stop-color="#231F20"/>
<stop offset="1" stop-color="white"/>
</linearGradient>
<linearGradient id="paint12_linear_2914_31119" x1="897.15" y1="672.43" x2="944.54" y2="528.29" gradientUnits="userSpaceOnUse">
<stop stop-color="#231F20"/>
<stop offset="1" stop-color="white"/>
</linearGradient>
<linearGradient id="paint13_linear_2914_31119" x1="548.03" y1="155.03" x2="766.42" y2="205.03" gradientUnits="userSpaceOnUse">
<stop stop-color="#231F20"/>
<stop offset="1" stop-color="white"/>
</linearGradient>
<linearGradient id="paint14_linear_2914_31119" x1="774.75" y1="714.075" x2="622.245" y2="878.201" gradientUnits="userSpaceOnUse">
<stop stop-color="#231F20"/>
<stop offset="1" stop-color="white"/>
</linearGradient>
<linearGradient id="paint15_linear_2914_31119" x1="177.282" y1="631.008" x2="111.397" y2="416.871" gradientUnits="userSpaceOnUse">
<stop stop-color="#231F20"/>
<stop offset="1" stop-color="white"/>
</linearGradient>
<linearGradient id="paint16_linear_2914_31119" x1="595.771" y1="235.58" x2="526.671" y2="304.68" gradientUnits="userSpaceOnUse">
<stop stop-color="#231F20"/>
<stop offset="1" stop-color="white"/>
</linearGradient>
<linearGradient id="paint17_linear_2914_31119" x1="223.115" y1="549.278" x2="317.516" y2="574.565" gradientUnits="userSpaceOnUse">
<stop stop-color="#231F20"/>
<stop offset="1" stop-color="white"/>
</linearGradient>
<linearGradient id="paint18_linear_2914_31119" x1="681.087" y1="715.107" x2="655.794" y2="620.714" gradientUnits="userSpaceOnUse">
<stop stop-color="#231F20"/>
<stop offset="1" stop-color="white"/>
</linearGradient>
<linearGradient id="paint19_linear_2914_31119" x1="537.4" y1="631.17" x2="578.86" y2="573.91" gradientUnits="userSpaceOnUse">
<stop stop-color="#231F20"/>
<stop offset="1" stop-color="white"/>
</linearGradient>
<linearGradient id="paint20_linear_2914_31119" x1="394.63" y1="606.38" x2="311.71" y2="645.87" gradientUnits="userSpaceOnUse">
<stop stop-color="#231F20"/>
<stop offset="1" stop-color="white"/>
</linearGradient>
<linearGradient id="paint21_linear_2914_31119" x1="364.541" y1="468.35" x2="390.211" y2="521.65" gradientUnits="userSpaceOnUse">
<stop stop-color="#231F20"/>
<stop offset="1" stop-color="white"/>
</linearGradient>
<linearGradient id="paint22_linear_2914_31119" x1="483.941" y1="303.71" x2="466.171" y2="242.5" gradientUnits="userSpaceOnUse">
<stop stop-color="#231F20"/>
<stop offset="1" stop-color="white"/>
</linearGradient>
<linearGradient id="paint23_linear_2914_31119" x1="675.46" y1="583.94" x2="726.79" y2="595.79" gradientUnits="userSpaceOnUse">
<stop stop-color="#231F20"/>
<stop offset="1" stop-color="white"/>
</linearGradient>
<linearGradient id="paint24_linear_2914_31119" x1="594.891" y1="410.53" x2="529.741" y2="398.68" gradientUnits="userSpaceOnUse">
<stop stop-color="#231F20"/>
<stop offset="1" stop-color="white"/>
</linearGradient>
<clipPath id="clip0_2914_31119">
<rect width="1000" height="1000" fill="white"/>
</clipPath>
</defs>
</svg>
