<svg width="1787" height="500" viewBox="0 0 1787 500" fill="none" xmlns="http://www.w3.org/2000/svg">
<g clip-path="url(#clip0_2914_31209)">
<path d="M499.368 233.035C490.018 95.2937 370.776 -8.7995 233.035 0.59989C164.439 5.24959 104.193 37.1975 62.1461 85.1444L62.0461 85.0444C61.7462 85.4443 61.4962 85.8443 61.1962 86.1943C19.3989 134.341 -4.09954 198.337 0.600156 266.932C1.05013 273.482 1.80008 279.882 2.75002 286.281C2.75002 286.581 2.85001 286.881 2.90001 287.131C3.54996 291.331 4.24992 295.531 5.09986 299.63V299.88C5.89981 303.63 6.74975 307.33 7.64969 310.98C36.4978 426.122 144.391 507.667 266.983 499.317C404.724 489.968 508.767 370.676 499.418 232.935L499.368 233.035ZM444.971 236.734C446.121 253.683 445.071 270.282 442.021 286.281C442.021 286.181 441.971 286.081 441.921 285.981C423.822 241.684 387.925 209.686 356.427 192.037C362.826 116.992 337.328 85.3444 308.53 80.1947C307.73 80.0447 306.98 79.8947 306.18 79.7947C283.282 76.8449 262.383 93.0438 259.433 115.892C256.483 138.791 272.682 159.689 295.531 162.639C297.531 162.889 299.481 162.939 301.43 162.939C301.58 165.489 301.63 168.189 301.68 170.989C275.032 164.389 250.134 163.089 227.385 165.139C218.886 165.689 210.386 166.789 201.937 168.339C204.787 142.991 214.286 114.542 232.735 93.6938C250.584 73.5451 277.082 62.0459 306.03 64.9957C311.53 65.5456 317.379 66.8956 322.629 68.6954C322.879 68.7954 323.129 68.8454 323.379 68.9454C390.375 96.2436 439.721 159.839 444.921 236.734H444.971ZM270.732 274.932V275.032C264.733 283.631 257.633 292.131 249.284 300.33C236.785 287.031 226.785 272.732 219.186 257.933C218.786 257.133 218.386 256.383 217.986 255.583V255.483C213.486 246.034 209.686 235.635 206.737 224.285C224.486 220.086 241.934 218.586 258.533 219.386C259.433 219.436 260.283 219.486 261.183 219.536H261.283C271.682 220.386 282.582 222.285 293.831 225.385C288.581 242.834 281.182 258.683 272.182 272.682C271.682 273.432 271.232 274.132 270.732 274.882V274.932ZM185.288 65.5956C185.288 65.5956 185.188 65.6956 185.138 65.7956C155.84 103.643 146.091 150.64 146.541 186.738C78.3451 218.736 63.696 256.583 73.6454 284.131C73.8954 284.881 74.1953 285.631 74.4953 286.381C83.3947 307.68 107.843 317.679 129.142 308.78C150.44 299.88 160.44 275.432 151.54 254.133C150.74 252.283 149.84 250.534 148.84 248.834C150.99 247.434 153.29 246.034 155.79 244.584C163.39 270.982 174.639 293.281 187.788 311.93C192.538 318.979 197.687 325.779 203.287 332.328C179.938 342.528 150.49 348.527 123.242 342.978C96.8939 337.578 73.6454 320.379 61.7462 293.881C59.4963 288.831 57.7464 283.131 56.6465 277.682C55.9465 272.932 55.3966 268.132 55.0466 263.233C48.947 173.689 104.493 93.9438 185.338 65.5956H185.288ZM263.233 444.971C210.036 448.571 160.34 430.472 122.792 398.224C170.189 404.673 215.786 389.624 246.834 371.176C308.68 414.273 348.827 408.023 367.676 385.625C368.176 385.025 368.726 384.425 369.176 383.775C383.175 365.426 379.625 339.228 361.277 325.279C342.928 311.28 316.729 314.829 302.78 333.178C301.58 334.778 300.531 336.478 299.581 338.178C297.331 337.028 294.931 335.728 292.481 334.328C311.53 314.529 325.129 293.581 334.728 272.882C338.478 265.233 341.828 257.333 344.678 249.234C365.226 264.383 385.125 286.831 393.974 313.229C402.474 338.728 399.224 367.476 382.175 391.074C378.925 395.524 374.876 399.924 370.676 403.624L370.476 403.774C340.678 427.172 303.83 442.221 263.233 444.971V444.971Z" fill="url(#paint0_linear_2914_31209)"/>
<path style="mix-blend-mode:overlay" opacity="0.9" d="M308.53 80.1952C307.73 80.0452 306.98 79.8952 306.18 79.7952C302.13 79.2952 298.13 79.3952 294.331 79.9952C318.229 92.9944 335.678 129.242 326.529 200.737C323.479 224.436 316.429 246.934 306.28 267.633C298.031 285.432 286.831 303.381 271.782 320.629C279.032 326.079 286.081 330.579 292.531 334.279C311.58 314.48 325.179 293.531 334.778 272.833C344.927 252.134 351.977 229.635 355.027 205.937C365.926 120.793 339.128 85.6448 308.58 80.1952H308.53Z" fill="url(#paint1_radial_2914_31209)"/>
<g style="mix-blend-mode:overlay" opacity="0.8">
<path d="M326.479 200.788C335.628 129.292 318.229 93.0446 294.281 80.0454C293.331 80.1954 292.431 80.3954 291.531 80.5954C314.93 94.0445 331.779 130.292 322.729 200.788C319.679 224.486 312.63 246.985 302.48 267.683C294.531 284.882 283.732 302.231 269.433 318.93C270.183 319.53 270.933 320.08 271.732 320.63C286.781 303.381 298.031 285.432 306.23 267.633C316.38 246.935 323.429 224.436 326.479 200.738V200.788Z" fill="white"/>
</g>
<path style="mix-blend-mode:overlay" opacity="0.5" d="M235.585 362.927C233.335 361.227 231.185 359.427 229.035 357.627C193.738 372.376 144.841 381.575 96.2441 370.326C104.194 380.475 113.093 389.825 122.842 398.174C170.239 404.624 215.836 389.575 246.884 371.126C243.185 368.576 239.435 365.826 235.585 362.927V362.927Z" fill="url(#paint2_radial_2914_31209)"/>
<path style="mix-blend-mode:overlay" opacity="0.6" d="M228.985 357.677C227.885 356.777 226.835 355.877 225.735 354.977C190.188 369.176 141.041 377.676 92.5439 365.626C93.7439 367.226 94.9438 368.826 96.1437 370.376C144.741 381.625 193.637 372.426 228.935 357.677H228.985Z" fill="url(#paint3_linear_2914_31209)"/>
<path style="mix-blend-mode:overlay" opacity="0.9" d="M73.6962 284.181C73.9462 284.931 74.2462 285.681 74.5462 286.431C76.0961 290.181 78.1959 293.581 80.6458 296.63C79.9458 269.432 102.644 236.184 169.14 208.386C191.189 199.187 214.187 193.987 237.186 192.487C256.684 190.737 277.833 191.487 300.331 195.887C301.431 186.888 301.831 178.538 301.781 171.089C275.133 164.489 250.185 163.189 227.436 165.239C204.438 166.789 181.389 171.939 159.391 181.138C80.1958 214.236 63.1469 255.033 73.6962 284.231V284.181Z" fill="url(#paint4_radial_2914_31209)"/>
<g style="mix-blend-mode:overlay" opacity="0.8">
<path d="M169.14 208.336C102.644 236.134 79.9456 269.382 80.6455 296.58C81.2455 297.33 81.8954 298.03 82.4954 298.68C82.4454 271.682 105.394 238.984 170.99 211.536C193.038 202.336 216.037 197.136 239.035 195.637C257.884 193.937 278.333 194.587 299.981 198.636C300.131 197.686 300.231 196.737 300.331 195.787C277.833 191.337 256.684 190.637 237.185 192.387C214.187 193.937 191.138 199.086 169.14 208.286V208.336Z" fill="white"/>
</g>
<path style="mix-blend-mode:overlay" opacity="0.4" d="M355.027 205.986C354.677 208.786 354.178 211.536 353.728 214.335C384.126 237.534 416.573 275.281 431.122 322.978C435.922 311.029 439.572 298.63 441.972 286.031C423.873 241.734 388.025 209.786 356.527 192.087C356.127 196.587 355.677 201.186 355.077 205.986H355.027Z" fill="url(#paint5_radial_2914_31209)"/>
<path style="mix-blend-mode:overlay" opacity="0.5" d="M353.728 214.335C353.478 215.735 353.278 217.085 353.028 218.485C383.126 242.184 415.024 280.481 428.823 328.528C429.623 326.728 430.373 324.878 431.123 323.028C416.574 275.331 384.126 237.584 353.728 214.385V214.335Z" fill="url(#paint6_linear_2914_31209)"/>
<path style="mix-blend-mode:overlay" opacity="0.9" d="M367.727 385.574C368.227 384.975 368.777 384.375 369.227 383.725C371.676 380.475 373.576 376.975 374.976 373.375C351.728 387.574 311.63 384.575 254.284 340.877C235.285 326.428 219.286 309.029 206.487 289.881C195.188 273.832 185.289 255.183 177.839 233.484C169.54 237.034 162.04 240.884 155.641 244.634C163.24 271.032 174.589 293.28 187.739 311.929C200.588 331.078 216.537 348.427 235.535 362.926C303.831 414.923 347.678 409.323 367.677 385.574H367.727Z" fill="url(#paint7_radial_2914_31209)"/>
<g style="mix-blend-mode:overlay" opacity="0.8">
<path d="M254.334 340.827C311.681 384.524 351.778 387.524 375.027 373.325C375.377 372.425 375.627 371.525 375.927 370.675C352.578 384.224 312.781 380.725 256.234 337.627C237.236 323.178 221.237 305.779 208.437 286.631C197.538 271.132 187.889 253.133 180.589 232.384C179.689 232.734 178.839 233.134 177.939 233.484C185.339 255.183 195.288 273.832 206.588 289.881C219.437 309.029 235.386 326.378 254.384 340.877L254.334 340.827Z" fill="white"/>
</g>
<path style="mix-blend-mode:overlay" opacity="0.3" d="M159.34 181.038C161.94 179.938 164.59 178.988 167.19 177.988C172.089 140.041 188.538 93.0936 222.586 56.646C209.837 58.4459 197.288 61.4957 185.139 65.7454C155.841 103.593 146.091 150.59 146.541 186.687C150.591 184.788 154.841 182.888 159.29 181.038H159.34Z" fill="url(#paint8_radial_2914_31209)"/>
<path style="mix-blend-mode:overlay" opacity="0.4" d="M167.19 177.988C168.49 177.488 169.84 176.988 171.14 176.538C176.59 138.641 193.839 91.8436 228.536 55.896C226.537 56.096 224.587 56.346 222.637 56.6459C188.589 93.0936 172.14 140.04 167.24 177.988H167.19Z" fill="url(#paint9_linear_2914_31209)"/>
<path style="mix-blend-mode:multiply" opacity="0.4" d="M233.035 0.600098C164.44 5.24979 104.193 37.1977 62.1462 85.1446C61.8462 85.4946 61.4963 85.8445 61.1963 86.2445C69.3958 94.344 96.144 110.393 106.993 117.042C128.292 94.144 155.04 76.2952 185.338 65.6459C187.438 62.896 189.638 60.2462 191.988 57.5964C220.186 25.6985 258.733 8.84956 303.48 8.84956C308.48 8.84956 318.579 9.64951 318.829 9.64951C291.681 1.85002 262.783 -1.44977 233.035 0.600098Z" fill="url(#paint10_linear_2914_31209)"/>
<path style="mix-blend-mode:multiply" opacity="0.4" d="M263.234 444.971C210.037 448.571 160.34 430.472 122.793 398.224C119.293 397.724 115.793 397.174 112.294 396.474C70.5963 387.975 36.6985 362.976 14.35 324.229C11.8501 319.929 9.65026 315.529 7.65039 311.08C36.4985 426.222 144.391 507.767 266.983 499.417C267.533 486.818 263.784 457.52 263.284 445.021L263.234 444.971Z" fill="url(#paint11_linear_2914_31209)"/>
<path style="mix-blend-mode:multiply" opacity="0.4" d="M499.368 233.035C491.668 232.235 454.171 235.185 444.971 236.735C446.121 253.684 445.071 270.283 442.021 286.281C443.321 289.481 444.521 292.681 445.621 295.981C459.12 336.378 454.421 378.175 432.022 416.923C429.572 421.173 426.922 425.222 424.123 429.122L423.973 429.322C423.973 429.322 424.073 429.222 424.173 429.172C474.969 379.775 504.517 309.28 499.318 233.035H499.368Z" fill="url(#paint12_linear_2914_31209)"/>
<path style="mix-blend-mode:multiply" opacity="0.5" d="M306.081 64.9958C311.581 65.5458 317.43 66.8957 322.68 68.6956C322.93 68.7956 323.18 68.8456 323.43 68.9456C344.978 77.695 364.727 90.2942 381.726 105.793L381.826 105.893C390.025 96.4938 405.824 86.1945 405.824 86.1945C405.824 86.1945 381.626 61.4461 344.628 53.7966C318.73 48.3969 260.334 43.1973 223.486 105.893C223.486 105.893 223.636 105.743 223.836 105.543C226.586 101.443 229.436 97.4437 232.736 93.744C250.585 73.5953 277.083 62.096 306.031 65.0458L306.081 64.9958Z" fill="url(#paint13_linear_2914_31209)"/>
<path style="mix-blend-mode:multiply" opacity="0.5" d="M382.126 391.025C378.876 395.475 374.827 399.874 370.627 403.574C370.427 403.724 370.227 403.924 370.077 404.074C351.678 418.373 330.93 429.172 308.981 436.122H308.831C312.831 447.971 313.881 466.82 313.881 466.82C313.881 466.82 347.379 458.22 372.527 430.072C390.126 410.324 423.824 362.377 387.976 299.131C387.976 299.131 387.976 299.331 388.076 299.631C390.276 304.031 392.276 308.58 393.876 313.23C402.375 338.728 399.125 367.476 382.076 391.075L382.126 391.025Z" fill="url(#paint14_linear_2914_31209)"/>
<path style="mix-blend-mode:multiply" opacity="0.5" d="M61.7969 293.981C59.547 288.931 57.7971 283.232 56.6972 277.782C56.6472 277.532 56.5972 277.282 56.5472 277.032C53.3974 253.984 54.3974 230.585 59.347 208.087V207.937C47.1478 205.537 30.2989 196.987 30.2989 196.987C30.2989 196.987 20.9495 230.285 32.7988 266.183C41.0982 291.281 65.7966 344.478 138.492 345.028C138.492 345.028 138.292 344.978 138.042 344.878C133.092 344.578 128.193 344.078 123.343 343.078C96.9946 337.678 73.7461 320.479 61.8469 293.981H61.7969Z" fill="url(#paint15_linear_2914_31209)"/>
<path style="mix-blend-mode:multiply" opacity="0.6" d="M295.532 162.64C297.531 162.89 299.481 162.94 301.431 162.94C301.431 162.94 300.131 136.942 296.931 123.642C293.732 110.293 289.032 101.494 283.882 96.4942C280.182 92.8945 268.483 88.4448 259.384 115.943C256.434 138.841 272.633 159.74 295.482 162.69L295.532 162.64Z" fill="url(#paint16_linear_2914_31209)"/>
<path style="mix-blend-mode:multiply" opacity="0.5" d="M151.591 254.184C150.791 252.334 149.891 250.584 148.891 248.884C148.891 248.884 127.043 262.983 117.093 272.433C107.144 281.882 101.844 290.332 100.094 297.331C98.8444 302.331 100.844 314.68 129.142 308.83C150.441 299.931 160.44 275.483 151.541 254.184H151.591Z" fill="url(#paint17_linear_2914_31209)"/>
<path style="mix-blend-mode:multiply" opacity="0.6" d="M302.832 333.079C301.632 334.679 300.582 336.379 299.632 338.079C299.632 338.079 322.78 349.928 335.929 353.827C349.079 357.727 359.078 358.077 365.977 356.077C370.927 354.677 380.627 346.778 361.378 325.179C343.029 311.18 316.831 314.73 302.882 333.079H302.832Z" fill="url(#paint18_linear_2914_31209)"/>
<path style="mix-blend-mode:multiply" opacity="0.3" d="M293.83 225.385C288.581 242.834 281.181 258.683 272.182 272.682C271.682 273.432 271.232 274.132 270.732 274.882V274.982C264.732 283.581 257.633 292.08 249.283 300.28C254.983 306.379 261.182 312.279 267.982 317.879C276.531 324.628 284.881 330.028 292.43 334.328C311.479 314.529 325.078 293.58 334.678 272.882C338.427 265.232 341.777 257.333 344.627 249.233C335.828 242.734 326.928 237.584 318.729 234.084C310.229 230.484 301.93 227.635 293.83 225.385V225.385Z" fill="url(#paint19_linear_2914_31209)"/>
<path style="mix-blend-mode:multiply" opacity="0.3" d="M122.792 398.224C170.188 404.673 215.785 389.624 246.833 371.175C243.134 368.626 239.384 365.876 235.534 362.976C223.535 353.826 212.736 343.527 203.186 332.378C179.838 342.577 150.39 348.577 123.142 343.027C96.7933 337.628 73.5448 320.429 61.6456 293.93C59.3957 288.881 57.6458 283.181 56.5459 277.731C63.4454 326.078 87.7938 368.276 122.742 398.274L122.792 398.224Z" fill="url(#paint20_linear_2914_31209)"/>
<path style="mix-blend-mode:multiply" opacity="0.3" d="M249.283 300.28C236.784 286.981 226.784 272.682 219.185 257.883C218.785 257.083 218.385 256.333 217.985 255.533V255.433C213.485 245.983 209.685 235.584 206.736 224.235C198.636 226.135 190.437 228.535 182.237 231.634C172.138 235.634 163.288 240.184 155.839 244.584C163.438 270.982 174.688 293.28 187.837 311.929C192.586 318.979 197.736 325.778 203.336 332.328C213.335 327.928 222.285 322.778 229.434 317.429C236.784 311.879 243.383 306.13 249.383 300.23L249.283 300.28Z" fill="url(#paint21_linear_2914_31209)"/>
<path style="mix-blend-mode:multiply" opacity="0.3" d="M185.187 65.7953C155.889 103.643 146.14 150.64 146.59 186.737C150.69 184.837 154.939 182.938 159.389 181.038C173.288 175.238 187.587 171.038 201.986 168.339C204.836 142.99 214.336 114.542 232.784 93.6934C250.633 73.5447 277.131 62.0455 306.08 64.9953C311.579 65.5453 317.429 66.8952 322.678 68.6951C322.928 68.7951 323.178 68.8451 323.428 68.9451C296.78 58.0958 267.332 52.9461 236.734 55.046C218.785 56.2459 201.536 59.9456 185.337 65.6453C185.337 65.6953 185.237 65.7453 185.187 65.8453V65.7953Z" fill="url(#paint22_linear_2914_31209)"/>
<path style="mix-blend-mode:multiply" opacity="0.3" d="M441.921 285.981C423.822 241.684 387.924 209.686 356.426 192.037C356.026 196.537 355.576 201.137 354.926 205.986C353.026 220.935 349.477 235.384 344.627 249.233C365.176 264.382 385.074 286.831 393.924 313.229C402.423 338.728 399.173 367.476 382.125 391.074C378.875 395.524 374.825 399.924 370.625 403.623L370.425 403.773C407.123 374.925 433.071 333.378 441.971 286.281C441.971 286.181 441.921 286.081 441.871 285.981H441.921Z" fill="url(#paint23_linear_2914_31209)"/>
<path style="mix-blend-mode:multiply" opacity="0.3" d="M201.836 198.386C202.936 207.536 204.636 216.135 206.736 224.235C224.485 220.035 241.934 218.535 258.533 219.335C259.432 219.385 260.282 219.435 261.182 219.485H261.282C271.682 220.335 282.581 222.235 293.83 225.335C296.23 217.335 298.23 209.036 299.68 200.386C301.23 189.587 301.73 179.638 301.68 170.938C275.031 164.339 250.133 163.039 227.385 165.089C218.885 165.639 210.386 166.738 201.936 168.288C200.736 179.188 200.736 189.487 201.786 198.336L201.836 198.386Z" fill="url(#paint24_linear_2914_31209)"/>
<path d="M499.406 233.026C490.044 95.2923 370.785 -8.78803 233.026 0.57396C164.396 5.24247 104.155 37.1981 62.1136 85.1065L61.9888 85.0316C61.7141 85.431 61.4395 85.8055 61.1649 86.205C19.3979 134.338 -4.06944 198.349 0.574104 266.954C1.02348 273.495 1.7974 279.936 2.72112 286.302C2.77105 286.601 2.79602 286.876 2.84595 287.176C3.47008 291.395 4.19407 295.564 5.04289 299.683L5.09282 299.908C5.84178 303.653 6.6906 307.348 7.61432 311.043C36.4742 426.207 144.374 507.744 266.954 499.406C404.688 490.044 508.768 370.785 499.406 233.026V233.026ZM444.982 236.721C446.13 253.672 445.056 270.274 442.061 286.252C442.036 286.152 441.986 286.077 441.961 285.977C423.836 241.664 387.986 209.683 356.455 192.033C362.846 116.962 337.381 85.3312 308.546 80.1883C307.772 80.0385 306.973 79.9137 306.174 79.8138C283.306 76.8679 262.385 93.0455 259.439 115.914C256.493 138.782 272.671 159.703 295.539 162.649C297.536 162.898 299.509 162.973 301.456 162.948C301.581 165.47 301.656 168.166 301.681 170.987C275.018 164.371 250.127 163.098 227.409 165.12C218.921 165.695 210.408 166.768 201.969 168.341C204.815 143.001 214.302 114.541 232.776 93.7195C250.627 73.5975 277.14 62.0386 306.075 65.0094C311.567 65.5587 317.409 66.9068 322.677 68.6793C322.926 68.7542 323.176 68.8291 323.425 68.904C390.432 96.1911 439.764 159.778 444.982 236.721V236.721ZM270.749 274.893L270.699 274.968C264.732 283.581 257.642 292.044 249.303 300.258C236.821 286.976 226.785 272.671 219.17 257.866C218.771 257.068 218.371 256.319 217.972 255.52L217.922 255.42C213.453 245.958 209.659 235.547 206.713 224.238C224.488 220.069 241.889 218.521 258.541 219.32C259.414 219.37 260.288 219.395 261.162 219.47H261.262C271.672 220.344 282.557 222.241 293.817 225.337C288.549 242.812 281.184 258.665 272.172 272.646C271.672 273.37 271.223 274.119 270.724 274.843L270.749 274.893ZM185.317 65.6086C185.317 65.6086 185.218 65.7334 185.168 65.7833C155.883 103.606 146.097 150.615 146.546 186.74C78.341 218.746 63.6864 256.618 73.6476 284.155C73.8972 284.904 74.1968 285.653 74.4964 286.402C83.384 307.672 107.85 317.708 129.12 308.821C150.391 299.933 160.427 275.467 151.539 254.197C150.765 252.349 149.842 250.602 148.818 248.929C150.965 247.531 153.287 246.108 155.733 244.66C163.348 271.048 174.582 293.367 187.714 312.016C192.433 319.081 197.6 325.897 203.193 332.413C179.825 342.624 150.416 348.64 123.154 343.073C96.7904 337.68 73.5477 320.479 61.6392 293.966C59.3924 288.948 57.6198 283.206 56.5214 277.739C55.8473 272.97 55.2731 268.177 54.9485 263.309C48.857 173.758 104.405 94.0441 185.267 65.6585L185.317 65.6086ZM263.259 445.006C210.083 448.626 160.377 430.477 122.804 398.246C170.213 404.687 215.8 389.658 246.882 371.209C308.721 414.299 348.865 408.058 367.739 385.664C368.263 385.065 368.762 384.441 369.262 383.791C383.242 365.442 379.697 339.253 361.348 325.273C342.998 311.292 316.81 314.837 302.829 333.187C301.606 334.785 300.557 336.457 299.609 338.18C297.337 337.006 294.965 335.733 292.493 334.335C311.567 314.538 325.148 293.592 334.735 272.896C338.48 265.256 341.825 257.367 344.671 249.253C365.217 264.382 385.14 286.851 393.952 313.264C402.466 338.779 399.195 367.514 382.169 391.081C378.948 395.55 374.854 399.944 370.685 403.614C370.635 403.664 370.56 403.714 370.51 403.789C340.726 427.206 303.853 442.235 263.284 445.006H263.259Z" fill="url(#paint25_linear_2914_31209)"/>
<path style="mix-blend-mode:overlay" opacity="0.9" d="M308.545 80.2131C307.772 80.0633 306.973 79.9384 306.174 79.8386C302.129 79.3143 298.135 79.4142 294.315 80.0383C318.232 93.0452 335.658 129.295 326.496 200.795C323.45 224.488 316.41 247.006 306.249 267.703C298.01 285.478 286.801 303.428 271.722 320.679C278.962 326.096 286.027 330.64 292.468 334.31C311.541 314.512 325.122 293.567 334.709 272.87C344.87 252.199 351.91 229.655 354.956 205.963C365.866 120.832 339.078 85.6555 308.521 80.1881L308.545 80.2131Z" fill="url(#paint26_radial_2914_31209)"/>
<g style="mix-blend-mode:overlay" opacity="0.3">
<path d="M326.496 200.795C335.658 129.295 318.232 93.045 294.316 80.0381C293.392 80.1879 292.468 80.3876 291.544 80.5873C314.962 94.0436 331.814 130.268 322.751 200.795C319.705 224.487 312.665 247.006 302.504 267.702C294.54 284.903 283.755 302.254 269.45 318.956C270.224 319.555 270.973 320.104 271.722 320.679C286.801 303.428 298.01 285.478 306.249 267.702C316.41 247.031 323.45 224.487 326.496 200.795V200.795Z" fill="white"/>
</g>
<path style="mix-blend-mode:overlay" opacity="0.5" d="M235.598 362.97C233.351 361.247 231.179 359.475 229.032 357.677C193.731 372.407 144.824 381.644 96.2412 370.36C104.205 380.496 113.068 389.858 122.829 398.221C170.238 404.662 215.825 389.633 246.907 371.183C243.212 368.612 239.467 365.891 235.623 362.97H235.598Z" fill="url(#paint27_radial_2914_31209)"/>
<path style="mix-blend-mode:overlay" opacity="0.3" d="M229.006 357.678C227.933 356.779 226.834 355.905 225.786 354.981C190.235 369.187 141.078 377.675 92.5957 365.617C93.7691 367.214 94.9674 368.812 96.2157 370.385C144.798 381.669 193.73 372.432 229.006 357.703V357.678Z" fill="url(#paint28_linear_2914_31209)"/>
<path style="mix-blend-mode:overlay" opacity="0.9" d="M73.672 284.18C73.9216 284.929 74.2212 285.678 74.5208 286.427C76.0936 290.197 78.1658 293.592 80.6124 296.613C79.9133 269.4 102.607 236.172 169.114 208.36C191.134 199.148 214.177 193.98 237.17 192.457C256.693 190.71 277.838 191.434 300.307 195.853C301.381 186.865 301.805 178.477 301.73 171.062C275.067 164.446 250.127 163.148 227.408 165.195C204.415 166.718 181.372 171.911 159.353 181.098C80.163 214.227 63.1117 254.995 73.647 284.18H73.672Z" fill="url(#paint29_radial_2914_31209)"/>
<g style="mix-blend-mode:overlay" opacity="0.3">
<path d="M169.14 208.361C102.632 236.172 79.9635 269.401 80.6376 296.613C81.2368 297.337 81.8609 298.036 82.51 298.735C82.4601 271.723 105.403 239.043 171.012 211.606C193.031 202.394 216.074 197.226 239.067 195.703C257.941 194.005 278.363 194.655 300.008 198.699C300.133 197.75 300.257 196.802 300.357 195.878C277.888 191.459 256.718 190.71 237.22 192.483C214.227 194.005 191.184 199.198 169.165 208.386L169.14 208.361Z" fill="white"/>
</g>
<path style="mix-blend-mode:overlay" opacity="0.4" d="M355.032 205.989C354.682 208.785 354.208 211.556 353.733 214.327C384.141 237.52 416.596 275.292 431.126 323.001C435.919 311.043 439.589 298.66 441.961 286.052C423.836 241.764 388.011 209.808 356.505 192.133C356.13 196.602 355.656 201.22 355.032 206.014V205.989Z" fill="url(#paint30_radial_2914_31209)"/>
<path style="mix-blend-mode:overlay" opacity="0.2" d="M353.733 214.327C353.508 215.7 353.283 217.098 353.009 218.471C383.092 242.163 415.023 280.485 428.803 328.493C429.602 326.671 430.376 324.824 431.125 323.001C416.595 275.292 384.141 237.545 353.733 214.327Z" fill="url(#paint31_linear_2914_31209)"/>
<path style="mix-blend-mode:overlay" opacity="0.9" d="M367.738 385.59C368.263 384.99 368.762 384.366 369.261 383.717C371.733 380.472 373.63 376.977 375.028 373.357C351.811 387.562 311.691 384.541 254.346 340.852C235.347 326.372 219.37 309.021 206.537 289.873C195.253 273.845 185.317 255.171 177.902 233.476C169.589 237.021 162.124 240.866 155.708 244.636C163.322 271.049 174.657 293.268 187.788 311.942C200.621 331.09 216.598 348.466 235.597 362.921C303.877 414.949 347.741 409.332 367.738 385.59V385.59Z" fill="url(#paint32_radial_2914_31209)"/>
<g style="mix-blend-mode:overlay" opacity="0.3">
<path d="M254.347 340.827C311.692 384.516 351.811 387.537 375.029 373.332C375.378 372.458 375.653 371.559 375.928 370.66C352.56 384.217 312.79 380.696 256.219 337.581C237.22 323.101 221.243 305.751 208.41 286.602C197.501 271.099 187.864 253.099 180.549 232.328C179.65 232.702 178.802 233.077 177.928 233.451C185.342 255.121 195.279 273.82 206.563 289.848C219.395 308.996 235.373 326.372 254.372 340.827H254.347Z" fill="white"/>
</g>
<path style="mix-blend-mode:overlay" opacity="0.3" d="M159.353 181.024C161.949 179.925 164.596 178.952 167.217 177.978C172.11 140.056 188.587 93.0709 222.64 56.6216C209.883 58.444 197.325 61.4399 185.217 65.709C155.933 103.531 146.146 150.541 146.596 186.666C150.665 184.768 154.884 182.871 159.353 180.999V181.024Z" fill="url(#paint33_radial_2914_31209)"/>
<path style="mix-blend-mode:overlay" opacity="0.2" d="M167.217 177.978C168.54 177.479 169.838 176.979 171.161 176.53C176.629 138.633 193.855 91.8226 228.557 55.8726C226.584 56.0972 224.612 56.3469 222.64 56.6215C188.587 93.0459 172.11 140.031 167.217 177.978V177.978Z" fill="url(#paint34_linear_2914_31209)"/>
<path style="mix-blend-mode:multiply" opacity="0.4" d="M233.025 0.573951C164.396 5.24246 104.154 37.198 62.1127 85.1065C61.7882 85.4809 61.4886 85.8305 61.1641 86.2049C69.3527 94.3187 96.0905 110.321 106.95 117.012C128.246 94.1189 155.009 76.2438 185.317 65.6086C187.439 62.8873 189.636 60.1911 191.957 57.5697C220.193 25.689 258.764 8.83747 303.477 8.83747C308.445 8.83747 318.606 9.63636 318.806 9.63636C291.694 1.87215 262.809 -1.44824 233.025 0.573951Z" fill="url(#paint35_linear_2914_31209)"/>
<path style="mix-blend-mode:multiply" opacity="0.4" d="M263.258 444.981C210.082 448.601 160.376 430.451 122.804 398.221C119.308 397.747 115.813 397.173 112.293 396.449C70.5762 387.936 36.6983 362.945 14.3543 324.224C11.8578 319.905 9.6359 315.511 7.63867 311.067C36.4986 426.207 144.399 507.744 266.978 499.406C267.528 486.773 263.808 457.489 263.283 444.981H263.258Z" fill="url(#paint36_linear_2914_31209)"/>
<path style="mix-blend-mode:multiply" opacity="0.4" d="M499.405 233.026C491.716 232.227 454.218 235.198 444.981 236.721C446.129 253.672 445.055 270.274 442.06 286.252C443.358 289.423 444.581 292.643 445.68 295.964C459.161 336.357 454.467 378.174 432.098 416.896C429.652 421.115 427.03 425.184 424.209 429.079L424.06 429.303C424.06 429.303 424.184 429.203 424.234 429.154C475.014 379.747 504.598 309.245 499.405 233.026V233.026Z" fill="url(#paint37_linear_2914_31209)"/>
<path style="mix-blend-mode:multiply" opacity="0.5" d="M306.074 65.0097C311.566 65.5589 317.408 66.907 322.676 68.6796C322.926 68.7545 323.175 68.8294 323.425 68.9043C344.995 77.6671 364.717 90.2246 381.719 105.778C381.744 105.803 381.794 105.828 381.819 105.853C390.032 96.466 405.81 86.1803 405.81 86.1803C405.81 86.1803 381.619 61.4396 344.645 53.7503C318.756 48.3828 260.337 43.165 223.514 105.853C223.514 105.853 223.663 105.703 223.888 105.503C226.609 101.384 229.505 97.3897 232.776 93.6948C250.626 73.5728 277.139 62.0138 306.074 64.9847V65.0097Z" fill="url(#paint38_linear_2914_31209)"/>
<path style="mix-blend-mode:multiply" opacity="0.5" d="M382.143 391.057C378.923 395.525 374.828 399.919 370.659 403.589C370.46 403.764 370.285 403.939 370.085 404.113C351.686 418.419 330.964 429.204 308.995 436.169C308.945 436.169 308.92 436.194 308.87 436.219C312.89 448.002 313.913 466.851 313.913 466.851C313.913 466.851 347.442 458.263 372.582 430.077C390.182 410.33 423.91 362.371 388.035 299.109C388.035 299.109 388.085 299.309 388.135 299.584C390.332 304.003 392.354 308.521 393.927 313.19C402.44 338.704 399.17 367.439 382.143 391.007V391.057Z" fill="url(#paint39_linear_2914_31209)"/>
<path style="mix-blend-mode:multiply" opacity="0.5" d="M61.7885 293.966C59.5416 288.948 57.7691 283.206 56.6706 277.739C56.6207 277.489 56.5458 277.24 56.4959 276.99C53.3253 253.922 54.3488 230.554 59.292 208.061C59.292 208.011 59.292 207.961 59.292 207.911C47.059 205.489 30.2573 196.976 30.2573 196.976C30.2573 196.976 20.9203 230.28 32.7788 266.155C41.0673 291.27 65.758 344.446 138.482 345.02C138.482 345.02 138.282 344.97 138.008 344.871C133.089 344.571 128.171 344.072 123.328 343.073C96.9646 337.681 73.7219 320.479 61.8135 293.966H61.7885Z" fill="url(#paint40_linear_2914_31209)"/>
<path style="mix-blend-mode:multiply" opacity="0.6" d="M295.54 162.674C297.537 162.923 299.509 162.998 301.457 162.973C301.457 162.973 300.158 137.009 296.963 123.678C293.767 110.346 289.074 101.534 283.906 96.5407C280.211 92.9706 268.527 88.5018 259.44 115.964C256.494 138.832 272.672 159.753 295.54 162.699V162.674Z" fill="url(#paint41_linear_2914_31209)"/>
<path style="mix-blend-mode:multiply" opacity="0.5" d="M151.589 254.196C150.815 252.349 149.891 250.601 148.868 248.929C148.868 248.929 127.023 263.059 117.087 272.471C107.151 281.908 101.858 290.371 100.111 297.361C98.8624 302.354 100.835 314.712 129.17 308.845C150.441 299.958 160.477 275.492 151.589 254.221V254.196Z" fill="url(#paint42_linear_2914_31209)"/>
<path style="mix-blend-mode:multiply" opacity="0.6" d="M302.829 333.087C301.606 334.685 300.557 336.358 299.608 338.08C299.608 338.08 322.751 349.939 335.883 353.833C349.015 357.728 359.026 358.077 365.916 356.105C370.859 354.682 380.571 346.793 361.323 325.198C342.973 311.217 316.785 314.763 302.804 333.112L302.829 333.087Z" fill="url(#paint43_linear_2914_31209)"/>
<path style="mix-blend-mode:multiply" opacity="0.3" d="M293.841 225.386C288.573 242.862 281.208 258.715 272.196 272.695C271.697 273.419 271.247 274.168 270.748 274.892L270.698 274.967C264.731 283.58 257.641 292.044 249.303 300.257C255.02 306.349 261.211 312.241 268.002 317.833C276.54 324.573 284.903 329.991 292.468 334.285C311.541 314.487 325.122 293.542 334.709 272.845C338.454 265.206 341.799 257.317 344.645 249.203C335.857 242.737 326.945 237.569 318.731 234.074C310.243 230.454 301.93 227.608 293.841 225.386V225.386Z" fill="url(#paint44_linear_2914_31209)"/>
<path style="mix-blend-mode:multiply" opacity="0.3" d="M122.804 398.221C170.213 404.662 215.799 389.633 246.881 371.184C243.186 368.613 239.442 365.891 235.597 362.97C223.614 353.833 212.829 343.547 203.267 332.363C179.899 342.574 150.49 348.59 123.228 343.023C96.8647 337.631 73.622 320.43 61.7136 293.916C59.4667 288.898 57.6942 283.156 56.5957 277.689C63.4861 326.022 87.8772 368.238 122.829 398.221H122.804Z" fill="url(#paint45_linear_2914_31209)"/>
<path style="mix-blend-mode:multiply" opacity="0.3" d="M249.303 300.282C236.821 287 226.785 272.695 219.17 257.891C218.771 257.092 218.371 256.343 217.972 255.544L217.922 255.444C213.453 245.982 209.658 235.572 206.712 224.263C198.599 226.16 190.41 228.582 182.197 231.652C172.111 235.672 163.248 240.191 155.783 244.584C163.398 270.973 174.632 293.292 187.764 311.941C192.482 319.006 197.65 325.822 203.242 332.337C213.253 327.944 222.191 322.801 229.331 317.433C236.696 311.891 243.312 306.149 249.278 300.257L249.303 300.282Z" fill="url(#paint46_linear_2914_31209)"/>
<path style="mix-blend-mode:multiply" opacity="0.3" d="M185.166 65.7832C155.882 103.606 146.096 150.615 146.545 186.74C150.639 184.818 154.883 182.92 159.352 181.048C173.233 175.231 187.538 171.037 201.968 168.341C204.814 143.001 214.301 114.54 232.775 93.7194C250.625 73.5973 277.138 62.0384 306.073 65.0093C311.566 65.5585 317.408 66.9066 322.675 68.6792C322.925 68.7541 323.175 68.829 323.424 68.9039C296.761 58.019 267.327 52.9011 236.72 54.9732C218.745 56.1965 201.544 59.8664 185.316 65.5585C185.266 65.6084 185.216 65.6833 185.166 65.7333V65.7832Z" fill="url(#paint47_linear_2914_31209)"/>
<path style="mix-blend-mode:multiply" opacity="0.3" d="M441.96 285.977C423.835 241.689 387.985 209.683 356.454 192.033C356.079 196.526 355.58 201.145 354.981 205.963C353.058 220.893 349.563 235.372 344.67 249.228C365.216 264.357 385.139 286.826 393.951 313.239C402.465 338.754 399.194 367.489 382.168 391.056C378.947 395.525 374.853 399.919 370.684 403.589C370.634 403.639 370.559 403.689 370.509 403.763C407.208 374.929 433.172 333.336 442.06 286.252C442.035 286.152 441.985 286.077 441.96 285.977V285.977Z" fill="url(#paint48_linear_2914_31209)"/>
<path style="mix-blend-mode:multiply" opacity="0.3" d="M201.844 198.424C202.942 207.561 204.64 216.149 206.737 224.288C224.512 220.119 241.913 218.571 258.565 219.37C259.439 219.42 260.313 219.444 261.187 219.519H261.286C271.697 220.393 282.582 222.291 293.841 225.386C296.238 217.397 298.26 209.109 299.708 200.421C301.281 189.636 301.78 179.675 301.705 170.962C275.042 164.346 250.152 163.073 227.433 165.095C218.945 165.669 210.432 166.743 201.994 168.316C200.77 179.2 200.77 189.511 201.844 198.374V198.424Z" fill="url(#paint49_linear_2914_31209)"/>
<path d="M1422.71 174.789L1385.16 279.482H1385.41L1422.96 175.439L1422.71 174.789Z" fill="white"/>
<path d="M755.35 174.789L717.753 279.482H717.903L755.5 175.189L755.35 174.789Z" fill="white"/>
<path d="M764.751 200.937L792.949 279.481H736.402L722.153 319.079H807.348L831.496 386.174H885.543L787.049 139.141L764.751 200.937Z" fill="white"/>
<path d="M717.753 279.481L755.351 174.788L755.501 175.188L771.349 131.191H729.852L628.509 386.174H679.405L717.903 279.481H717.753Z" fill="white"/>
<path d="M1049.28 254.833C1036.98 247.584 1020.63 240.784 1000.28 234.534C988.635 230.735 979.536 227.235 972.936 223.985C966.337 220.735 961.737 217.036 959.187 212.936C956.637 208.786 955.337 203.936 955.337 198.337C955.337 188.487 959.137 180.888 966.737 175.538C974.336 170.189 984.985 167.489 998.635 167.489C1009.83 167.489 1021.48 169.189 1033.68 172.539C1045.88 175.888 1056.68 180.488 1066.08 186.288L1073.13 145.04C1063.53 139.241 1051.83 134.591 1038.08 131.091C1024.33 127.641 1010.63 125.892 996.985 125.892C978.436 125.892 962.287 128.891 948.688 134.941C935.039 140.991 924.489 149.59 916.99 160.789C909.49 171.989 905.741 185.188 905.741 200.387C905.741 213.386 908.24 224.585 913.29 234.085C918.34 243.584 926.539 251.833 937.938 258.733C949.338 265.682 964.337 271.932 982.886 277.532C996.285 281.581 1006.68 285.381 1014.08 288.931C1021.48 292.481 1026.63 296.48 1029.53 300.83C1032.43 305.18 1033.88 310.38 1033.88 316.429C1033.88 326.928 1029.58 335.178 1020.98 341.078C1012.38 346.977 1000.43 349.977 985.235 349.977C972.036 349.977 958.237 347.927 943.788 343.777C929.339 339.628 916.79 334.328 906.041 327.828L901.341 370.426C907.59 374.675 915.44 378.375 924.839 381.475C934.239 384.625 944.338 387.075 955.187 388.874C966.037 390.674 976.836 391.574 987.585 391.574C1017.78 391.574 1041.48 384.675 1058.73 370.926C1075.93 357.176 1084.58 338.128 1084.58 313.729C1084.58 300.78 1081.78 289.531 1076.18 280.032C1070.58 270.532 1061.63 262.133 1049.33 254.883L1049.28 254.833Z" fill="white"/>
<path d="M1317.01 131.191H1101.28V172.788H1317.01V131.191Z" fill="white"/>
<path d="M1234.82 190.188H1183.47V386.175H1234.82V190.188Z" fill="white"/>
<path d="M1385.16 279.481L1422.71 174.788L1422.96 175.438L1438.91 131.191H1397.21L1295.92 386.174H1346.91L1371.06 319.079H1371.16L1385.41 279.481H1385.16Z" fill="white"/>
<path d="M1432.21 201.187L1460.3 279.482H1403.96L1389.71 319.079H1474.75L1498.9 386.175H1552.9L1454.5 139.341L1432.21 201.187Z" fill="white"/>
<path d="M1718.99 282.831C1731.29 275.882 1741.34 266.582 1749.19 254.833C1757.04 243.084 1760.93 229.385 1760.93 213.736C1760.93 196.737 1757.14 182.088 1749.54 169.789C1741.94 157.489 1731.09 147.99 1716.99 141.291C1702.89 134.591 1686.14 131.241 1666.64 131.241H1648.79V169.839H1659.89C1693.89 169.839 1710.89 184.388 1710.89 213.436C1710.89 242.484 1693.34 257.033 1658.19 257.033H1648.74V295.63H1674.94L1728.64 386.225H1786.03L1718.94 282.881L1718.99 282.831Z" fill="white"/>
<path d="M1631.44 131.191H1582.8V386.174H1631.44V131.191Z" fill="white"/>
</g>
<defs>
<linearGradient id="paint0_linear_2914_31209" x1="79.395" y1="420.572" x2="398.174" y2="101.843" gradientUnits="userSpaceOnUse">
<stop stop-color="#E6007A"/>
<stop offset="0.21" stop-color="#703AC2"/>
<stop offset="0.46" stop-color="#0070EB"/>
<stop offset="0.77" stop-color="#0297FB"/>
<stop offset="1" stop-color="#0AE2FF"/>
</linearGradient>
<radialGradient id="paint1_radial_2914_31209" cx="0" cy="0" r="1" gradientUnits="userSpaceOnUse" gradientTransform="translate(321.229 199.387) scale(95.0438)">
<stop stop-color="white"/>
<stop offset="1" stop-color="white" stop-opacity="0"/>
</radialGradient>
<radialGradient id="paint2_radial_2914_31209" cx="0" cy="0" r="1" gradientUnits="userSpaceOnUse" gradientTransform="translate(180.739 375.726) scale(55.2964)">
<stop stop-color="white"/>
<stop offset="1" stop-color="white" stop-opacity="0"/>
</radialGradient>
<linearGradient id="paint3_linear_2914_31209" x1="97.7436" y1="366.376" x2="151.04" y2="365.626" gradientUnits="userSpaceOnUse">
<stop stop-color="white" stop-opacity="0"/>
<stop offset="1" stop-color="white"/>
</linearGradient>
<radialGradient id="paint4_radial_2914_31209" cx="0" cy="0" r="1" gradientUnits="userSpaceOnUse" gradientTransform="translate(170.522 213.613) rotate(-120) scale(95.0438)">
<stop stop-color="white"/>
<stop offset="1" stop-color="white" stop-opacity="0"/>
</radialGradient>
<radialGradient id="paint5_radial_2914_31209" cx="0" cy="0" r="1" gradientUnits="userSpaceOnUse" gradientTransform="translate(393.481 247.112) rotate(-120) scale(55.2964)">
<stop stop-color="white"/>
<stop offset="1" stop-color="white" stop-opacity="0"/>
</radialGradient>
<linearGradient id="paint6_linear_2914_31209" x1="426.882" y1="323.662" x2="399.585" y2="277.881" gradientUnits="userSpaceOnUse">
<stop stop-color="white" stop-opacity="0"/>
<stop offset="1" stop-color="white"/>
</linearGradient>
<radialGradient id="paint7_radial_2914_31209" cx="0" cy="0" r="1" gradientUnits="userSpaceOnUse" gradientTransform="translate(253.69 332.578) rotate(120) scale(95.0438)">
<stop stop-color="white"/>
<stop offset="1" stop-color="white" stop-opacity="0"/>
</radialGradient>
<radialGradient id="paint8_radial_2914_31209" cx="0" cy="0" r="1" gradientUnits="userSpaceOnUse" gradientTransform="translate(175.73 127.132) rotate(120) scale(55.2964)">
<stop stop-color="white"/>
<stop offset="1" stop-color="white" stop-opacity="0"/>
</radialGradient>
<linearGradient id="paint9_linear_2914_31209" x1="225.324" y1="59.9317" x2="199.301" y2="106.506" gradientUnits="userSpaceOnUse">
<stop stop-color="white" stop-opacity="0"/>
<stop offset="1" stop-color="white"/>
</linearGradient>
<linearGradient id="paint10_linear_2914_31209" x1="236.885" y1="36.2978" x2="155.44" y2="59.9962" gradientUnits="userSpaceOnUse">
<stop stop-color="#231F20"/>
<stop offset="1" stop-color="white"/>
</linearGradient>
<linearGradient id="paint11_linear_2914_31209" x1="82.9955" y1="346.927" x2="151.091" y2="417.973" gradientUnits="userSpaceOnUse">
<stop stop-color="#231F20"/>
<stop offset="1" stop-color="white"/>
</linearGradient>
<linearGradient id="paint12_linear_2914_31209" x1="448.571" y1="336.178" x2="472.22" y2="264.133" gradientUnits="userSpaceOnUse">
<stop stop-color="#231F20"/>
<stop offset="1" stop-color="white"/>
</linearGradient>
<linearGradient id="paint13_linear_2914_31209" x1="273.983" y1="77.495" x2="383.176" y2="102.493" gradientUnits="userSpaceOnUse">
<stop stop-color="#231F20"/>
<stop offset="1" stop-color="white"/>
</linearGradient>
<linearGradient id="paint14_linear_2914_31209" x1="387.339" y1="356.973" x2="311.093" y2="439.038" gradientUnits="userSpaceOnUse">
<stop stop-color="#231F20"/>
<stop offset="1" stop-color="white"/>
</linearGradient>
<linearGradient id="paint15_linear_2914_31209" x1="88.6764" y1="315.503" x2="55.7292" y2="208.44" gradientUnits="userSpaceOnUse">
<stop stop-color="#231F20"/>
<stop offset="1" stop-color="white"/>
</linearGradient>
<linearGradient id="paint16_linear_2914_31209" x1="297.881" y1="117.793" x2="263.334" y2="152.341" gradientUnits="userSpaceOnUse">
<stop stop-color="#231F20"/>
<stop offset="1" stop-color="white"/>
</linearGradient>
<linearGradient id="paint17_linear_2914_31209" x1="111.534" y1="274.631" x2="158.727" y2="287.277" gradientUnits="userSpaceOnUse">
<stop stop-color="#231F20"/>
<stop offset="1" stop-color="white"/>
</linearGradient>
<linearGradient id="paint18_linear_2914_31209" x1="340.536" y1="357.548" x2="327.89" y2="310.355" gradientUnits="userSpaceOnUse">
<stop stop-color="#231F20"/>
<stop offset="1" stop-color="white"/>
</linearGradient>
<linearGradient id="paint19_linear_2914_31209" x1="268.682" y1="315.579" x2="289.431" y2="286.931" gradientUnits="userSpaceOnUse">
<stop stop-color="#231F20"/>
<stop offset="1" stop-color="white"/>
</linearGradient>
<linearGradient id="paint20_linear_2914_31209" x1="197.287" y1="303.18" x2="155.839" y2="322.928" gradientUnits="userSpaceOnUse">
<stop stop-color="#231F20"/>
<stop offset="1" stop-color="white"/>
</linearGradient>
<linearGradient id="paint21_linear_2914_31209" x1="182.237" y1="234.134" x2="195.086" y2="260.832" gradientUnits="userSpaceOnUse">
<stop stop-color="#231F20"/>
<stop offset="1" stop-color="white"/>
</linearGradient>
<linearGradient id="paint22_linear_2914_31209" x1="241.934" y1="151.84" x2="233.084" y2="121.242" gradientUnits="userSpaceOnUse">
<stop stop-color="#231F20"/>
<stop offset="1" stop-color="white"/>
</linearGradient>
<linearGradient id="paint23_linear_2914_31209" x1="337.727" y1="291.931" x2="363.376" y2="297.88" gradientUnits="userSpaceOnUse">
<stop stop-color="#231F20"/>
<stop offset="1" stop-color="white"/>
</linearGradient>
<linearGradient id="paint24_linear_2914_31209" x1="297.43" y1="205.236" x2="264.832" y2="199.336" gradientUnits="userSpaceOnUse">
<stop stop-color="#231F20"/>
<stop offset="1" stop-color="white"/>
</linearGradient>
<linearGradient id="paint25_linear_2914_31209" x1="79.3896" y1="420.615" x2="398.172" y2="101.833" gradientUnits="userSpaceOnUse">
<stop stop-color="white"/>
<stop offset="0.21" stop-color="white"/>
<stop offset="0.46" stop-color="white"/>
<stop offset="0.77" stop-color="white"/>
<stop offset="1" stop-color="white"/>
</linearGradient>
<radialGradient id="paint26_radial_2914_31209" cx="0" cy="0" r="1" gradientUnits="userSpaceOnUse" gradientTransform="translate(321.253 199.397) scale(95.0429)">
<stop stop-color="white"/>
<stop offset="1" stop-color="white" stop-opacity="0"/>
</radialGradient>
<radialGradient id="paint27_radial_2914_31209" cx="0" cy="0" r="1" gradientUnits="userSpaceOnUse" gradientTransform="translate(180.749 375.727) scale(55.2982)">
<stop stop-color="white"/>
<stop offset="1" stop-color="white" stop-opacity="0"/>
</radialGradient>
<linearGradient id="paint28_linear_2914_31209" x1="97.7635" y1="366.366" x2="151.064" y2="365.642" gradientUnits="userSpaceOnUse">
<stop stop-color="white" stop-opacity="0"/>
<stop offset="1" stop-color="white"/>
</linearGradient>
<radialGradient id="paint29_radial_2914_31209" cx="0" cy="0" r="1" gradientUnits="userSpaceOnUse" gradientTransform="translate(170.548 213.597) rotate(-120) scale(95.0429)">
<stop stop-color="white"/>
<stop offset="1" stop-color="white" stop-opacity="0"/>
</radialGradient>
<radialGradient id="paint30_radial_2914_31209" cx="0" cy="0" r="1" gradientUnits="userSpaceOnUse" gradientTransform="translate(393.494 247.091) rotate(-120) scale(55.2982)">
<stop stop-color="white"/>
<stop offset="1" stop-color="white" stop-opacity="0"/>
</radialGradient>
<linearGradient id="paint31_linear_2914_31209" x1="426.891" y1="323.66" x2="399.613" y2="277.862" gradientUnits="userSpaceOnUse">
<stop stop-color="white" stop-opacity="0"/>
<stop offset="1" stop-color="white"/>
</linearGradient>
<radialGradient id="paint32_radial_2914_31209" cx="0" cy="0" r="1" gradientUnits="userSpaceOnUse" gradientTransform="translate(253.692 332.594) rotate(120) scale(95.0429)">
<stop stop-color="white"/>
<stop offset="1" stop-color="white" stop-opacity="0"/>
</radialGradient>
<radialGradient id="paint33_radial_2914_31209" cx="0" cy="0" r="1" gradientUnits="userSpaceOnUse" gradientTransform="translate(175.727 127.156) rotate(120) scale(55.2982)">
<stop stop-color="white"/>
<stop offset="1" stop-color="white" stop-opacity="0"/>
</radialGradient>
<linearGradient id="paint34_linear_2914_31209" x1="225.305" y1="59.9575" x2="199.303" y2="106.492" gradientUnits="userSpaceOnUse">
<stop stop-color="white" stop-opacity="0"/>
<stop offset="1" stop-color="white"/>
</linearGradient>
<linearGradient id="paint35_linear_2914_31209" x1="236.895" y1="36.2993" x2="155.458" y2="59.9914" gradientUnits="userSpaceOnUse">
<stop stop-color="#231F20"/>
<stop offset="1" stop-color="white"/>
</linearGradient>
<linearGradient id="paint36_linear_2914_31209" x1="82.984" y1="346.918" x2="151.089" y2="417.994" gradientUnits="userSpaceOnUse">
<stop stop-color="#231F20"/>
<stop offset="1" stop-color="white"/>
</linearGradient>
<linearGradient id="paint37_linear_2914_31209" x1="448.575" y1="336.208" x2="472.268" y2="264.133" gradientUnits="userSpaceOnUse">
<stop stop-color="#231F20"/>
<stop offset="1" stop-color="white"/>
</linearGradient>
<linearGradient id="paint38_linear_2914_31209" x1="274.018" y1="77.5173" x2="383.192" y2="102.508" gradientUnits="userSpaceOnUse">
<stop stop-color="#231F20"/>
<stop offset="1" stop-color="white"/>
</linearGradient>
<linearGradient id="paint39_linear_2914_31209" x1="387.361" y1="357.013" x2="311.12" y2="439.086" gradientUnits="userSpaceOnUse">
<stop stop-color="#231F20"/>
<stop offset="1" stop-color="white"/>
</linearGradient>
<linearGradient id="paint40_linear_2914_31209" x1="88.6499" y1="315.491" x2="55.693" y2="208.427" gradientUnits="userSpaceOnUse">
<stop stop-color="#231F20"/>
<stop offset="1" stop-color="white"/>
</linearGradient>
<linearGradient id="paint41_linear_2914_31209" x1="297.887" y1="117.786" x2="263.335" y2="152.338" gradientUnits="userSpaceOnUse">
<stop stop-color="#231F20"/>
<stop offset="1" stop-color="white"/>
</linearGradient>
<linearGradient id="paint42_linear_2914_31209" x1="111.554" y1="274.639" x2="158.753" y2="287.286" gradientUnits="userSpaceOnUse">
<stop stop-color="#231F20"/>
<stop offset="1" stop-color="white"/>
</linearGradient>
<linearGradient id="paint43_linear_2914_31209" x1="340.555" y1="357.549" x2="327.908" y2="310.35" gradientUnits="userSpaceOnUse">
<stop stop-color="#231F20"/>
<stop offset="1" stop-color="white"/>
</linearGradient>
<linearGradient id="paint44_linear_2914_31209" x1="268.701" y1="315.586" x2="289.422" y2="286.951" gradientUnits="userSpaceOnUse">
<stop stop-color="#231F20"/>
<stop offset="1" stop-color="white"/>
</linearGradient>
<linearGradient id="paint45_linear_2914_31209" x1="197.3" y1="303.179" x2="155.858" y2="322.926" gradientUnits="userSpaceOnUse">
<stop stop-color="#231F20"/>
<stop offset="1" stop-color="white"/>
</linearGradient>
<linearGradient id="paint46_linear_2914_31209" x1="182.271" y1="234.174" x2="195.104" y2="260.812" gradientUnits="userSpaceOnUse">
<stop stop-color="#231F20"/>
<stop offset="1" stop-color="white"/>
</linearGradient>
<linearGradient id="paint47_linear_2914_31209" x1="241.962" y1="151.839" x2="233.075" y2="121.256" gradientUnits="userSpaceOnUse">
<stop stop-color="#231F20"/>
<stop offset="1" stop-color="white"/>
</linearGradient>
<linearGradient id="paint48_linear_2914_31209" x1="337.73" y1="291.969" x2="363.394" y2="297.886" gradientUnits="userSpaceOnUse">
<stop stop-color="#231F20"/>
<stop offset="1" stop-color="white"/>
</linearGradient>
<linearGradient id="paint49_linear_2914_31209" x1="297.436" y1="205.264" x2="264.856" y2="199.347" gradientUnits="userSpaceOnUse">
<stop stop-color="#231F20"/>
<stop offset="1" stop-color="white"/>
</linearGradient>
<clipPath id="clip0_2914_31209">
<rect width="1786.25" height="500" fill="white"/>
</clipPath>
</defs>
</svg>
