<svg width="597" height="800" viewBox="0 0 597 800" fill="none" xmlns="http://www.w3.org/2000/svg">
<g clip-path="url(#clip0_2916_31425)">
<path d="M567.93 251.759C557.776 102.936 428.951 -9.49511 280.128 0.620193C206.027 5.65846 140.917 40.19 95.4949 91.9292L95.3786 91.8517C95.0686 92.278 94.7973 92.7043 94.4872 93.1306C49.3753 145.141 23.9902 214.282 29.0285 288.422C29.4935 295.475 30.3462 302.451 31.3538 309.311C31.3926 309.621 31.4313 309.931 31.4701 310.241C32.1677 314.776 32.9428 319.31 33.8342 323.767V324C34.6868 328.03 35.617 332.061 36.6246 336.014C67.8232 460.421 184.362 548.513 316.791 539.521C465.614 529.406 578.045 400.543 567.891 251.759H567.93ZM509.137 255.75C510.377 274.082 509.215 292.026 505.959 309.272C505.92 309.156 505.882 309.079 505.843 308.962C486.271 261.099 447.515 226.567 413.487 207.461C420.386 126.383 392.869 92.2005 361.748 86.6584C360.896 86.5033 360.043 86.3483 359.19 86.2321C334.464 83.0541 311.869 100.533 308.73 125.259C305.552 149.986 323.031 172.58 347.757 175.758C349.928 176.03 352.059 176.107 354.152 176.068C354.307 178.82 354.385 181.727 354.385 184.75C325.589 177.619 298.692 176.223 274.16 178.432C264.975 179.053 255.789 180.215 246.682 181.92C249.744 154.52 260.014 123.787 279.934 101.308C299.196 79.566 327.875 67.0866 359.113 70.3034C365.042 70.9235 371.36 72.3574 377.057 74.2952C377.328 74.3727 377.599 74.4502 377.871 74.5665C450.267 104.06 503.556 172.735 509.215 255.867L509.137 255.75ZM320.899 296.987L320.822 297.064C314.388 306.366 306.715 315.512 297.723 324.387C284.236 310.048 273.385 294.584 265.168 278.617C264.742 277.764 264.316 276.95 263.889 276.059V275.981C259.006 265.75 254.898 254.51 251.72 242.302C270.904 237.768 289.74 236.14 307.722 236.993C308.691 237.07 309.621 237.07 310.552 237.148H310.668C321.907 238.078 333.689 240.132 345.819 243.504C340.122 262.378 332.177 279.508 322.411 294.623C321.868 295.398 321.403 296.212 320.861 296.987H320.899ZM228.583 70.8847C228.583 70.8847 228.467 71.001 228.428 71.0785C196.803 111.927 186.223 162.736 186.726 201.763C113.051 236.334 97.2389 277.26 107.974 306.986C108.246 307.8 108.556 308.614 108.904 309.427C118.516 332.41 144.947 343.261 167.93 333.65C190.912 324.038 201.764 297.607 192.152 274.625C191.3 272.609 190.292 270.749 189.207 268.928C191.532 267.416 194.051 265.866 196.687 264.316C204.903 292.84 217.072 316.946 231.257 337.099C236.373 344.734 241.954 352.098 247.961 359.113C222.731 370.158 190.951 376.63 161.496 370.623C133.011 364.81 107.897 346.246 95.0298 317.566C92.5882 312.14 90.6892 305.939 89.4877 300.049C88.7514 294.894 88.1313 289.739 87.7825 284.469C81.194 187.734 141.227 101.579 228.583 70.9235V70.8847ZM312.799 480.767C255.363 484.682 201.647 465.071 161.07 430.23C212.267 437.206 261.564 420.967 295.088 401.008C361.903 447.554 405.271 440.81 425.657 416.626C426.238 415.968 426.781 415.309 427.284 414.611C442.399 394.807 438.562 366.476 418.758 351.4C398.954 336.285 370.623 340.122 355.547 359.926C354.23 361.67 353.106 363.453 352.059 365.314C349.618 364.073 347.021 362.678 344.386 361.167C364.965 339.773 379.653 317.179 390.04 294.778C394.109 286.523 397.675 277.996 400.775 269.238C422.983 285.593 444.492 309.854 454.026 338.417C463.211 365.972 459.684 397.016 441.314 422.479C437.826 427.323 433.408 432.051 428.912 436.043C428.835 436.082 428.796 436.159 428.718 436.237C396.512 461.545 356.71 477.783 312.877 480.767H312.799Z" fill="url(#paint0_linear_2916_31425)"/>
<path style="mix-blend-mode:overlay" opacity="0.9" d="M361.71 86.6584C360.857 86.5034 360.005 86.3483 359.152 86.2321C354.773 85.6895 350.471 85.8058 346.324 86.4259C372.174 100.494 391.009 139.638 381.088 216.878C377.794 242.457 370.197 266.796 359.23 289.158C350.316 308.381 338.224 327.759 321.946 346.401C329.775 352.253 337.371 357.175 344.386 361.128C364.965 339.735 379.654 317.14 390.04 294.739C401.008 272.416 408.643 248.038 411.899 222.459C423.681 130.491 394.73 92.4718 361.749 86.5809L361.71 86.6584Z" fill="url(#paint1_radial_2916_31425)"/>
<g style="mix-blend-mode:overlay" opacity="0.8">
<path d="M381.126 216.917C391.047 139.677 372.173 100.494 346.362 86.4648C345.354 86.6199 344.346 86.8524 343.378 87.0849C368.685 101.618 386.862 140.762 377.095 216.956C373.801 242.535 366.205 266.874 355.237 289.236C346.633 307.8 335.006 326.558 319.504 344.618C320.318 345.238 321.132 345.858 321.946 346.478C338.223 327.837 350.354 308.459 359.229 289.236C370.197 266.912 377.832 242.535 381.087 216.956L381.126 216.917Z" fill="white"/>
</g>
<path style="mix-blend-mode:overlay" opacity="0.5" d="M282.918 392.133C280.477 390.273 278.151 388.335 275.826 386.397C237.69 402.287 184.827 412.286 132.352 400.117C140.955 411.085 150.528 421.2 161.07 430.23C212.266 437.206 261.564 420.967 295.088 401.008C291.096 398.218 287.065 395.311 282.88 392.133H282.918Z" fill="url(#paint2_radial_2916_31425)"/>
<path style="mix-blend-mode:overlay" opacity="0.6" d="M275.788 386.397C274.625 385.428 273.462 384.459 272.3 383.49C233.892 398.838 180.797 408.023 128.438 394.962C129.716 396.706 130.995 398.411 132.352 400.117C184.827 412.286 237.69 402.326 275.826 386.397H275.788Z" fill="url(#paint3_linear_2916_31425)"/>
<path style="mix-blend-mode:overlay" opacity="0.9" d="M107.974 307.025C108.245 307.839 108.555 308.652 108.904 309.466C110.609 313.536 112.857 317.218 115.493 320.473C114.756 291.057 139.25 255.169 211.104 225.133C234.9 215.173 259.781 209.592 284.624 207.926C305.707 206.027 328.573 206.841 352.834 211.608C353.997 201.919 354.423 192.85 354.384 184.827C325.589 177.696 298.653 176.262 274.082 178.471C249.239 180.138 224.358 185.719 200.562 195.679C115.028 231.451 96.5798 275.516 107.974 307.064V307.025Z" fill="url(#paint4_radial_2916_31425)"/>
<g style="mix-blend-mode:overlay" opacity="0.8">
<path d="M211.104 225.094C139.25 255.13 114.756 291.018 115.493 320.434C116.151 321.209 116.81 321.984 117.508 322.721C117.469 293.537 142.234 258.231 213.119 228.583C236.915 218.622 261.796 213.041 286.639 211.375C307.024 209.553 329.077 210.251 352.446 214.63C352.601 213.584 352.718 212.576 352.834 211.569C328.534 206.802 305.707 205.988 284.624 207.887C259.781 209.553 234.9 215.134 211.104 225.094V225.094Z" fill="white"/>
</g>
<path style="mix-blend-mode:overlay" opacity="0.4" d="M411.937 222.537C411.55 225.56 411.046 228.544 410.542 231.567C443.368 256.642 478.442 297.413 494.139 348.959C499.332 336.053 503.285 322.682 505.843 309.04C486.271 261.215 447.554 226.645 413.526 207.577C413.1 212.422 412.596 217.382 411.937 222.576V222.537Z" fill="url(#paint5_radial_2916_31425)"/>
<path style="mix-blend-mode:overlay" opacity="0.5" d="M410.542 231.528C410.27 233.04 410.038 234.513 409.767 236.024C442.283 261.603 476.776 302.994 491.658 354.888C492.511 352.912 493.363 350.935 494.177 348.959C478.481 297.413 443.407 256.642 410.58 231.567L410.542 231.528Z" fill="url(#paint6_linear_2916_31425)"/>
<path style="mix-blend-mode:overlay" opacity="0.9" d="M425.695 416.549C426.276 415.89 426.819 415.231 427.323 414.533C429.997 411.045 432.051 407.247 433.563 403.333C408.487 418.68 365.12 415.425 303.188 368.22C282.686 352.602 265.4 333.805 251.526 313.148C239.357 295.824 228.582 275.632 220.599 252.224C211.607 256.06 203.546 260.207 196.647 264.277C204.864 292.801 217.111 316.83 231.295 336.983C245.131 357.679 262.416 376.436 282.957 392.055C356.709 448.251 404.108 442.166 425.695 416.549V416.549Z" fill="url(#paint7_radial_2916_31425)"/>
<g style="mix-blend-mode:overlay" opacity="0.8">
<path d="M303.188 368.22C365.12 415.425 408.487 418.68 433.563 403.333C433.911 402.364 434.221 401.434 434.531 400.426C409.301 415.076 366.321 411.278 305.203 364.693C284.701 349.075 267.416 330.278 253.541 309.621C241.759 292.879 231.334 273.423 223.428 250.983C222.459 251.371 221.529 251.797 220.599 252.185C228.582 275.593 239.357 295.785 251.526 313.109C265.362 333.805 282.647 352.563 303.188 368.181V368.22Z" fill="white"/>
</g>
<path style="mix-blend-mode:overlay" opacity="0.3" d="M200.523 195.562C203.353 194.4 206.182 193.314 209.011 192.268C214.282 151.303 232.071 100.533 268.889 61.1567C255.092 63.1333 241.566 66.3888 228.467 70.962C196.842 111.811 186.261 162.62 186.765 201.647C191.145 199.593 195.718 197.539 200.562 195.524L200.523 195.562Z" fill="url(#paint8_radial_2916_31425)"/>
<path style="mix-blend-mode:overlay" opacity="0.4" d="M209.05 192.268C210.484 191.726 211.879 191.183 213.313 190.718C219.243 149.753 237.807 99.2153 275.322 60.3818C273.191 60.6144 271.059 60.8857 268.928 61.1957C232.148 100.572 214.359 151.303 209.05 192.307V192.268Z" fill="url(#paint9_linear_2916_31425)"/>
<path style="mix-blend-mode:multiply" opacity="0.4" d="M280.128 0.620125C206.027 5.6584 140.917 40.1899 95.495 91.9291C95.1462 92.3167 94.7974 92.7042 94.4873 93.0918C103.324 101.851 132.236 119.175 143.94 126.383C166.922 101.657 195.834 82.3564 228.622 70.8459C230.908 67.9004 233.272 64.9937 235.791 62.1646C266.292 27.7493 307.955 9.53399 356.284 9.53399C361.671 9.53399 372.6 10.3866 372.832 10.4254C343.533 2.01534 312.296 -1.55021 280.128 0.620125Z" fill="url(#paint10_linear_2916_31425)"/>
<path style="mix-blend-mode:multiply" opacity="0.4" d="M312.799 480.729C255.363 484.643 201.647 465.033 161.07 430.191C157.31 429.687 153.512 429.067 149.714 428.292C104.641 419.068 68.0554 392.094 43.9104 350.238C41.2363 345.587 38.8334 340.82 36.6631 336.014C67.8616 460.382 184.401 548.513 316.83 539.483C317.411 525.841 313.38 494.216 312.838 480.69L312.799 480.729Z" fill="url(#paint11_linear_2916_31425)"/>
<path style="mix-blend-mode:multiply" opacity="0.4" d="M567.929 251.759C559.635 250.906 519.097 254.123 509.136 255.75C510.377 274.082 509.214 292.026 505.958 309.272C507.354 312.722 508.671 316.171 509.873 319.775C524.445 363.414 519.368 408.604 495.184 450.421C492.549 454.995 489.681 459.374 486.658 463.598L486.503 463.831C486.503 463.831 486.619 463.715 486.697 463.676C541.536 410.309 573.51 334.115 567.89 251.797L567.929 251.759Z" fill="url(#paint12_linear_2916_31425)"/>
<path style="mix-blend-mode:multiply" opacity="0.5" d="M359.035 70.2257C364.964 70.8458 371.282 72.2798 376.979 74.2176C377.25 74.2951 377.521 74.3726 377.793 74.4888C401.085 83.9453 422.401 97.5486 440.771 114.33L440.887 114.407C449.762 104.292 466.815 93.1305 466.815 93.1305C466.815 93.1305 440.694 66.3889 400.736 58.0951C372.754 52.2817 309.66 46.6621 269.857 114.369C269.857 114.369 270.012 114.214 270.245 114.02C273.19 109.563 276.33 105.261 279.856 101.269C299.118 79.5271 327.798 67.0477 359.035 70.2645V70.2257Z" fill="url(#paint13_linear_2916_31425)"/>
<path style="mix-blend-mode:multiply" opacity="0.5" d="M441.236 422.478C437.748 427.323 433.33 432.051 428.834 436.043C428.64 436.237 428.408 436.43 428.214 436.624C408.332 452.088 385.931 463.753 362.213 471.272H362.058C366.398 484.061 367.522 504.408 367.522 504.408C367.522 504.408 403.72 495.146 430.888 464.683C449.917 443.368 486.348 391.512 447.592 323.186C447.592 323.186 447.631 323.379 447.708 323.689C450.072 328.456 452.281 333.34 453.948 338.417C463.133 365.972 459.606 397.016 441.236 422.478V422.478Z" fill="url(#paint14_linear_2916_31425)"/>
<path style="mix-blend-mode:multiply" opacity="0.5" d="M95.1463 317.605C92.7046 312.179 90.8056 305.978 89.6042 300.087C89.5654 299.816 89.4879 299.545 89.4104 299.274C85.9999 274.354 87.085 249.123 92.4334 224.785V224.63C79.2563 222.033 61.0798 212.809 61.0798 212.809C61.0798 212.809 51.0033 248.813 63.7927 287.569C72.7453 314.698 99.4094 372.173 177.968 372.755C177.968 372.755 177.774 372.677 177.464 372.6C172.154 372.29 166.845 371.708 161.613 370.662C133.127 364.849 108.013 346.285 95.1463 317.605V317.605Z" fill="url(#paint15_linear_2916_31425)"/>
<path style="mix-blend-mode:multiply" opacity="0.6" d="M347.68 175.72C349.85 175.991 351.982 176.069 354.075 176.03C354.075 176.03 352.679 147.97 349.23 133.553C345.781 119.136 340.704 109.602 335.123 104.215C331.131 100.339 318.497 95.5337 308.691 125.221C305.513 149.947 322.992 172.542 347.719 175.72H347.68Z" fill="url(#paint16_linear_2916_31425)"/>
<path style="mix-blend-mode:multiply" opacity="0.5" d="M192.153 274.625C191.3 272.61 190.292 270.749 189.207 268.928C189.207 268.928 165.605 284.198 154.869 294.352C144.134 304.544 138.398 313.691 136.538 321.248C135.181 326.635 137.352 339.967 167.93 333.65C190.912 324.039 201.764 297.607 192.153 274.625V274.625Z" fill="url(#paint17_linear_2916_31425)"/>
<path style="mix-blend-mode:multiply" opacity="0.6" d="M355.548 359.849C354.23 361.593 353.106 363.376 352.06 365.236C352.06 365.236 377.057 378.065 391.242 382.25C405.426 386.475 416.239 386.823 423.681 384.692C429.029 383.18 439.493 374.615 418.72 351.284C398.916 336.169 370.585 340.006 355.509 359.811L355.548 359.849Z" fill="url(#paint18_linear_2916_31425)"/>
<path style="mix-blend-mode:multiply" opacity="0.3" d="M345.858 243.504C340.16 262.378 332.215 279.508 322.449 294.623C321.906 295.398 321.441 296.212 320.899 296.987L320.821 297.064C314.388 306.366 306.714 315.512 297.723 324.387C303.924 330.976 310.59 337.332 317.953 343.378C327.177 350.664 336.207 356.516 344.385 361.128C364.964 339.735 379.653 317.14 390.039 294.739C394.109 286.484 397.674 277.958 400.775 269.199C391.28 262.223 381.629 256.642 372.793 252.844C363.608 248.929 354.655 245.868 345.896 243.465L345.858 243.504Z" fill="url(#paint19_linear_2916_31425)"/>
<path style="mix-blend-mode:multiply" opacity="0.3" d="M161.07 430.23C212.266 437.206 261.564 420.967 295.088 401.008C291.096 398.217 287.065 395.311 282.879 392.133C269.935 382.25 258.269 371.127 247.96 359.074C222.73 370.119 190.95 376.591 161.496 370.584C133.01 364.771 107.896 346.207 95.0294 317.527C92.5878 312.102 90.6887 305.901 89.4873 300.01C96.9284 352.214 123.282 397.83 161.031 430.23H161.07Z" fill="url(#paint20_linear_2916_31425)"/>
<path style="mix-blend-mode:multiply" opacity="0.3" d="M297.723 324.426C284.236 310.086 273.384 294.623 265.168 278.655C264.742 277.803 264.315 276.989 263.889 276.097V276.02C259.006 265.788 254.898 254.549 251.72 242.341C242.961 244.395 234.124 246.992 225.211 250.325C214.32 254.665 204.747 259.548 196.647 264.315C204.864 292.84 217.033 316.946 231.218 337.099C236.334 344.734 241.914 352.098 247.922 359.112C258.734 354.384 268.385 348.803 276.097 343.029C284.042 337.06 291.173 330.821 297.645 324.465L297.723 324.426Z" fill="url(#paint21_linear_2916_31425)"/>
<path style="mix-blend-mode:multiply" opacity="0.3" d="M228.427 71.0784C196.803 111.927 186.222 162.736 186.726 201.763C191.144 199.709 195.717 197.655 200.562 195.601C215.56 189.323 231.024 184.788 246.604 181.882C249.666 154.481 259.936 123.748 279.857 101.269C299.118 79.5272 327.798 67.0478 359.035 70.2645C364.965 70.8846 371.282 72.3186 376.979 74.2564C377.25 74.3339 377.522 74.4114 377.793 74.5277C348.997 62.7846 317.179 57.2425 284.12 59.4904C264.703 60.8081 246.1 64.7999 228.582 70.9234C228.544 71.0009 228.466 71.0396 228.427 71.1172V71.0784Z" fill="url(#paint22_linear_2916_31425)"/>
<path style="mix-blend-mode:multiply" opacity="0.3" d="M505.843 308.962C486.271 261.099 447.515 226.567 413.487 207.46C413.061 212.305 412.557 217.304 411.898 222.498C409.844 238.62 406.046 254.278 400.775 269.237C422.983 285.592 444.492 309.854 454.026 338.417C463.211 365.972 459.684 397.016 441.314 422.478C437.826 427.323 433.408 432.051 428.912 436.043C428.835 436.082 428.796 436.159 428.718 436.237C468.366 405.077 496.425 360.159 506.037 309.272C505.998 309.156 505.959 309.079 505.92 308.962H505.843Z" fill="url(#paint23_linear_2916_31425)"/>
<path style="mix-blend-mode:multiply" opacity="0.3" d="M246.449 214.359C247.65 224.242 249.472 233.504 251.758 242.302C270.942 237.767 289.778 236.14 307.76 236.992C308.729 237.07 309.66 237.07 310.59 237.147H310.706C321.945 238.077 333.727 240.132 345.858 243.503C348.454 234.861 350.625 225.908 352.175 216.529C353.88 204.902 354.423 194.128 354.345 184.711C325.549 177.579 298.653 176.184 274.12 178.393C264.935 179.013 255.75 180.176 246.642 181.881C245.325 193.624 245.325 204.786 246.487 214.359H246.449Z" fill="url(#paint24_linear_2916_31425)"/>
<path d="M409.534 688.228L390.156 742.215H390.311L409.65 688.538L409.534 688.228Z" fill="url(#paint25_linear_2916_31425)"/>
<path d="M65.42 688.228L46.042 742.215H46.0807L65.4587 688.422L65.42 688.228Z" fill="url(#paint26_linear_2916_31425)"/>
<path d="M70.2259 701.715L84.7981 742.215H55.6537L48.29 762.64H92.2393L104.68 797.249H132.545L81.7364 669.819L70.2259 701.715Z" fill="url(#paint27_linear_2916_31425)"/>
<path d="M46.0421 742.215L65.42 688.228L65.4588 688.422L73.675 665.75H52.243L0 797.248H26.2378L46.0808 742.215H46.0421Z" fill="url(#paint28_linear_2916_31425)"/>
<path d="M216.956 729.503C210.6 725.744 202.19 722.256 191.687 719.039C185.68 717.063 180.99 715.28 177.58 713.574C174.169 711.908 171.805 710.009 170.487 707.877C169.17 705.746 168.511 703.227 168.511 700.359C168.511 695.282 170.487 691.367 174.402 688.577C178.316 685.825 183.819 684.43 190.834 684.43C196.609 684.43 202.616 685.283 208.933 687.027C215.212 688.771 220.792 691.135 225.637 694.119L229.28 672.842C224.319 669.858 218.312 667.455 211.181 665.672C204.089 663.889 197.035 662.998 189.982 662.998C180.409 662.998 172.115 664.548 165.061 667.649C158.008 670.749 152.582 675.206 148.706 680.981C144.831 686.755 142.893 693.538 142.893 701.405C142.893 708.11 144.211 713.885 146.769 718.807C149.365 723.69 153.59 727.953 159.481 731.519C165.371 735.084 173.084 738.34 182.657 741.207C189.594 743.3 194.942 745.238 198.74 747.098C202.538 748.959 205.213 750.974 206.685 753.222C208.197 755.47 208.933 758.144 208.933 761.283C208.933 766.709 206.724 770.933 202.267 773.995C197.81 777.057 191.687 778.568 183.858 778.568C177.037 778.568 169.945 777.522 162.504 775.351C155.062 773.22 148.59 770.468 143.048 767.135L140.606 789.11C143.823 791.319 147.893 793.218 152.737 794.807C157.582 796.435 162.814 797.675 168.394 798.605C173.975 799.535 179.556 800 185.098 800C200.678 800 212.886 796.435 221.761 789.342C230.636 782.25 235.093 772.406 235.093 759.849C235.093 753.144 233.659 747.37 230.753 742.448C227.885 737.564 223.273 733.224 216.917 729.464L216.956 729.503Z" fill="url(#paint29_linear_2916_31425)"/>
<path d="M355.082 665.75H243.813V687.182H355.082V665.75Z" fill="url(#paint30_linear_2916_31425)"/>
<path d="M312.644 696.173H286.174V797.249H312.644V696.173Z" fill="url(#paint31_linear_2916_31425)"/>
<path d="M390.156 742.215L409.534 688.228L409.65 688.538L417.905 665.75H396.395L344.152 797.248H370.429L382.908 762.639H382.947L390.311 742.215H390.156Z" fill="url(#paint32_linear_2916_31425)"/>
<path d="M414.418 701.832L428.912 742.215H399.884L392.521 762.64H436.353L448.833 797.249H476.698L425.928 669.936L414.418 701.832Z" fill="url(#paint33_linear_2916_31425)"/>
<path d="M562.309 743.959C568.665 740.393 573.859 735.549 577.889 729.503C581.92 723.457 583.935 716.404 583.935 708.304C583.935 699.545 581.959 691.987 578.044 685.631C574.13 679.275 568.51 674.392 561.263 670.943C553.977 667.494 545.334 665.75 535.296 665.75H526.111V685.631H531.847C549.365 685.631 558.163 693.111 558.163 708.11C558.163 723.108 549.094 730.588 530.995 730.588H526.111V750.47H539.637L567.309 797.171H596.88L562.271 743.881L562.309 743.959Z" fill="url(#paint34_linear_2916_31425)"/>
<path d="M517.159 665.75H492.084V797.248H517.159V665.75Z" fill="url(#paint35_linear_2916_31425)"/>
</g>
<defs>
<linearGradient id="paint0_linear_2916_31425" x1="114.137" y1="454.413" x2="458.561" y2="109.989" gradientUnits="userSpaceOnUse">
<stop stop-color="#E6007A"/>
<stop offset="0.21" stop-color="#703AC2"/>
<stop offset="0.46" stop-color="#0070EB"/>
<stop offset="0.77" stop-color="#0297FB"/>
<stop offset="1" stop-color="#0AE2FF"/>
</linearGradient>
<radialGradient id="paint1_radial_2916_31425" cx="0" cy="0" r="1" gradientUnits="userSpaceOnUse" gradientTransform="translate(375.468 215.406) scale(102.703)">
<stop stop-color="white"/>
<stop offset="1" stop-color="white" stop-opacity="0"/>
</radialGradient>
<radialGradient id="paint2_radial_2916_31425" cx="0" cy="0" r="1" gradientUnits="userSpaceOnUse" gradientTransform="translate(223.661 405.93) scale(59.7617)">
<stop stop-color="white"/>
<stop offset="1" stop-color="white" stop-opacity="0"/>
</radialGradient>
<linearGradient id="paint3_linear_2916_31425" x1="134.018" y1="395.815" x2="191.61" y2="395.001" gradientUnits="userSpaceOnUse">
<stop stop-color="white" stop-opacity="0"/>
<stop offset="1" stop-color="white"/>
</linearGradient>
<radialGradient id="paint4_radial_2916_31425" cx="0" cy="0" r="1" gradientUnits="userSpaceOnUse" gradientTransform="translate(212.656 230.738) rotate(-120) scale(102.703)">
<stop stop-color="white"/>
<stop offset="1" stop-color="white" stop-opacity="0"/>
</radialGradient>
<radialGradient id="paint5_radial_2916_31425" cx="0" cy="0" r="1" gradientUnits="userSpaceOnUse" gradientTransform="translate(453.506 266.93) rotate(-120) scale(59.7617)">
<stop stop-color="white"/>
<stop offset="1" stop-color="white" stop-opacity="0"/>
</radialGradient>
<linearGradient id="paint6_linear_2916_31425" x1="489.586" y1="349.654" x2="460.119" y2="300.166" gradientUnits="userSpaceOnUse">
<stop stop-color="white" stop-opacity="0"/>
<stop offset="1" stop-color="white"/>
</linearGradient>
<radialGradient id="paint7_radial_2916_31425" cx="0" cy="0" r="1" gradientUnits="userSpaceOnUse" gradientTransform="translate(302.432 359.314) rotate(120) scale(102.703)">
<stop stop-color="white"/>
<stop offset="1" stop-color="white" stop-opacity="0"/>
</radialGradient>
<radialGradient id="paint8_radial_2916_31425" cx="0" cy="0" r="1" gradientUnits="userSpaceOnUse" gradientTransform="translate(218.223 137.374) rotate(120) scale(59.7616)">
<stop stop-color="white"/>
<stop offset="1" stop-color="white" stop-opacity="0"/>
</radialGradient>
<linearGradient id="paint9_linear_2916_31425" x1="271.771" y1="64.7797" x2="243.68" y2="115.062" gradientUnits="userSpaceOnUse">
<stop stop-color="white" stop-opacity="0"/>
<stop offset="1" stop-color="white"/>
</linearGradient>
<linearGradient id="paint10_linear_2916_31425" x1="284.314" y1="39.221" x2="196.338" y2="64.8" gradientUnits="userSpaceOnUse">
<stop stop-color="#231F20"/>
<stop offset="1" stop-color="white"/>
</linearGradient>
<linearGradient id="paint11_linear_2916_31425" x1="118.051" y1="374.77" x2="191.648" y2="451.584" gradientUnits="userSpaceOnUse">
<stop stop-color="#231F20"/>
<stop offset="1" stop-color="white"/>
</linearGradient>
<linearGradient id="paint12_linear_2916_31425" x1="513.012" y1="363.221" x2="538.591" y2="285.36" gradientUnits="userSpaceOnUse">
<stop stop-color="#231F20"/>
<stop offset="1" stop-color="white"/>
</linearGradient>
<linearGradient id="paint13_linear_2916_31425" x1="324.426" y1="83.7515" x2="442.36" y2="110.764" gradientUnits="userSpaceOnUse">
<stop stop-color="#231F20"/>
<stop offset="1" stop-color="white"/>
</linearGradient>
<linearGradient id="paint14_linear_2916_31425" x1="446.912" y1="385.693" x2="364.531" y2="474.354" gradientUnits="userSpaceOnUse">
<stop stop-color="#231F20"/>
<stop offset="1" stop-color="white"/>
</linearGradient>
<linearGradient id="paint15_linear_2916_31425" x1="124.127" y1="340.828" x2="88.5343" y2="225.154" gradientUnits="userSpaceOnUse">
<stop stop-color="#231F20"/>
<stop offset="1" stop-color="white"/>
</linearGradient>
<linearGradient id="paint16_linear_2916_31425" x1="350.199" y1="127.236" x2="312.877" y2="164.558" gradientUnits="userSpaceOnUse">
<stop stop-color="#231F20"/>
<stop offset="1" stop-color="white"/>
</linearGradient>
<linearGradient id="paint17_linear_2916_31425" x1="148.914" y1="296.673" x2="199.897" y2="310.334" gradientUnits="userSpaceOnUse">
<stop stop-color="#231F20"/>
<stop offset="1" stop-color="white"/>
</linearGradient>
<linearGradient id="paint18_linear_2916_31425" x1="396.277" y1="386.287" x2="382.616" y2="335.305" gradientUnits="userSpaceOnUse">
<stop stop-color="#231F20"/>
<stop offset="1" stop-color="white"/>
</linearGradient>
<linearGradient id="paint19_linear_2916_31425" x1="318.651" y1="340.936" x2="341.052" y2="310.009" gradientUnits="userSpaceOnUse">
<stop stop-color="#231F20"/>
<stop offset="1" stop-color="white"/>
</linearGradient>
<linearGradient id="paint20_linear_2916_31425" x1="241.566" y1="327.526" x2="196.764" y2="348.881" gradientUnits="userSpaceOnUse">
<stop stop-color="#231F20"/>
<stop offset="1" stop-color="white"/>
</linearGradient>
<linearGradient id="paint21_linear_2916_31425" x1="225.288" y1="252.999" x2="239.163" y2="281.794" gradientUnits="userSpaceOnUse">
<stop stop-color="#231F20"/>
<stop offset="1" stop-color="white"/>
</linearGradient>
<linearGradient id="paint22_linear_2916_31425" x1="289.778" y1="164.054" x2="280.205" y2="130.995" gradientUnits="userSpaceOnUse">
<stop stop-color="#231F20"/>
<stop offset="1" stop-color="white"/>
</linearGradient>
<linearGradient id="paint23_linear_2916_31425" x1="393.257" y1="315.434" x2="420.967" y2="321.829" gradientUnits="userSpaceOnUse">
<stop stop-color="#231F20"/>
<stop offset="1" stop-color="white"/>
</linearGradient>
<linearGradient id="paint24_linear_2916_31425" x1="349.733" y1="221.761" x2="314.543" y2="215.367" gradientUnits="userSpaceOnUse">
<stop stop-color="#231F20"/>
<stop offset="1" stop-color="white"/>
</linearGradient>
<linearGradient id="paint25_linear_2916_31425" x1="-13.758" y1="809.883" x2="574.828" y2="675.206" gradientUnits="userSpaceOnUse">
<stop stop-color="#E6007A"/>
<stop offset="0.21" stop-color="#703AC2"/>
<stop offset="0.46" stop-color="#0070EB"/>
<stop offset="0.77" stop-color="#0297FB"/>
<stop offset="1" stop-color="#0AE2FF"/>
</linearGradient>
<linearGradient id="paint26_linear_2916_31425" x1="-30.8885" y1="735.045" x2="557.698" y2="600.33" gradientUnits="userSpaceOnUse">
<stop stop-color="#E6007A"/>
<stop offset="0.21" stop-color="#703AC2"/>
<stop offset="0.46" stop-color="#0070EB"/>
<stop offset="0.77" stop-color="#0297FB"/>
<stop offset="1" stop-color="#0AE2FF"/>
</linearGradient>
<linearGradient id="paint27_linear_2916_31425" x1="-24.3774" y1="763.609" x2="564.248" y2="628.932" gradientUnits="userSpaceOnUse">
<stop stop-color="#E6007A"/>
<stop offset="0.21" stop-color="#703AC2"/>
<stop offset="0.46" stop-color="#0070EB"/>
<stop offset="0.77" stop-color="#0297FB"/>
<stop offset="1" stop-color="#0AE2FF"/>
</linearGradient>
<linearGradient id="paint28_linear_2916_31425" x1="-28.1756" y1="746.904" x2="560.45" y2="612.228" gradientUnits="userSpaceOnUse">
<stop stop-color="#E6007A"/>
<stop offset="0.21" stop-color="#703AC2"/>
<stop offset="0.46" stop-color="#0070EB"/>
<stop offset="0.77" stop-color="#0297FB"/>
<stop offset="1" stop-color="#0AE2FF"/>
</linearGradient>
<linearGradient id="paint29_linear_2916_31425" x1="-20.7733" y1="779.305" x2="567.852" y2="644.589" gradientUnits="userSpaceOnUse">
<stop stop-color="#E6007A"/>
<stop offset="0.21" stop-color="#703AC2"/>
<stop offset="0.46" stop-color="#0070EB"/>
<stop offset="0.77" stop-color="#0297FB"/>
<stop offset="1" stop-color="#0AE2FF"/>
</linearGradient>
<linearGradient id="paint30_linear_2916_31425" x1="-27.2068" y1="751.206" x2="561.418" y2="616.491" gradientUnits="userSpaceOnUse">
<stop stop-color="#E6007A"/>
<stop offset="0.21" stop-color="#703AC2"/>
<stop offset="0.46" stop-color="#0070EB"/>
<stop offset="0.77" stop-color="#0297FB"/>
<stop offset="1" stop-color="#0AE2FF"/>
</linearGradient>
<linearGradient id="paint31_linear_2916_31425" x1="-11.9369" y1="817.944" x2="576.688" y2="683.229" gradientUnits="userSpaceOnUse">
<stop stop-color="#E6007A"/>
<stop offset="0.21" stop-color="#703AC2"/>
<stop offset="0.46" stop-color="#0070EB"/>
<stop offset="0.77" stop-color="#0297FB"/>
<stop offset="1" stop-color="#0AE2FF"/>
</linearGradient>
<linearGradient id="paint32_linear_2916_31425" x1="-11.0458" y1="821.781" x2="577.579" y2="687.065" gradientUnits="userSpaceOnUse">
<stop stop-color="#E6007A"/>
<stop offset="0.21" stop-color="#703AC2"/>
<stop offset="0.46" stop-color="#0070EB"/>
<stop offset="0.77" stop-color="#0297FB"/>
<stop offset="1" stop-color="#0AE2FF"/>
</linearGradient>
<linearGradient id="paint33_linear_2916_31425" x1="-7.20822" y1="838.524" x2="581.378" y2="703.808" gradientUnits="userSpaceOnUse">
<stop stop-color="#E6007A"/>
<stop offset="0.21" stop-color="#703AC2"/>
<stop offset="0.46" stop-color="#0070EB"/>
<stop offset="0.77" stop-color="#0297FB"/>
<stop offset="1" stop-color="#0AE2FF"/>
</linearGradient>
<linearGradient id="paint34_linear_2916_31425" x1="-2.20944" y1="860.498" x2="586.377" y2="725.783" gradientUnits="userSpaceOnUse">
<stop stop-color="#E6007A"/>
<stop offset="0.21" stop-color="#703AC2"/>
<stop offset="0.46" stop-color="#0070EB"/>
<stop offset="0.77" stop-color="#0297FB"/>
<stop offset="1" stop-color="#0AE2FF"/>
</linearGradient>
<linearGradient id="paint35_linear_2916_31425" x1="-5.03852" y1="848.135" x2="583.587" y2="713.419" gradientUnits="userSpaceOnUse">
<stop stop-color="#E6007A"/>
<stop offset="0.21" stop-color="#703AC2"/>
<stop offset="0.46" stop-color="#0070EB"/>
<stop offset="0.77" stop-color="#0297FB"/>
<stop offset="1" stop-color="#0AE2FF"/>
</linearGradient>
<clipPath id="clip0_2916_31425">
<rect width="596.919" height="800" fill="white"/>
</clipPath>
</defs>
</svg>
