<svg width="332" height="445" viewBox="0 0 332 445" fill="none" xmlns="http://www.w3.org/2000/svg">
<g clip-path="url(#clip0_102_54)">
<path d="M315.411 139.819C309.789 57.1723 238.234 -5.27001 155.586 0.351687C114.415 3.15205 78.2646 22.3215 53.038 51.0667L53.0382 51.0665L52.9677 51.0158C52.7978 51.2509 52.639 51.483 52.4702 51.718C27.4121 80.6035 13.3187 119.011 16.1187 160.177C16.3856 164.099 16.8473 167.96 17.4052 171.786C17.4054 171.787 17.4054 171.788 17.4056 171.789C17.4307 171.961 17.4563 172.134 17.4806 172.307C17.8578 174.832 18.2957 177.333 18.7954 179.812C18.7958 179.813 18.7959 179.815 18.7963 179.816C18.8054 179.861 18.8141 179.906 18.8229 179.952C19.2778 182.197 19.7831 184.421 20.3361 186.626L20.3371 186.631C20.3376 186.632 20.3381 186.634 20.3384 186.636C37.6614 255.719 102.388 304.647 175.944 299.644C258.591 294.022 321.033 222.466 315.411 139.819H315.411ZM282.761 142.04C283.453 152.215 282.813 162.177 281.001 171.762C280.979 171.707 280.961 171.65 280.939 171.595V171.595C270.064 145.014 248.554 125.824 229.637 115.223C233.466 70.1839 218.186 51.2092 200.893 48.1218C200.423 48.0313 199.949 47.9541 199.469 47.8945C185.743 46.1341 173.192 55.8357 171.434 69.5602C169.673 83.2854 179.375 95.8372 193.099 97.5983C194.297 97.7498 195.481 97.7919 196.654 97.7734C196.73 99.2937 196.778 100.909 196.791 102.598C180.8 98.6351 165.853 97.8596 152.225 99.0849C147.129 99.4246 142.029 100.067 136.957 101.014C138.658 85.8059 144.364 68.7314 155.436 56.236C166.139 44.157 182.052 37.2336 199.41 39.0103C202.701 39.3471 206.212 40.155 209.374 41.2166C209.519 41.2654 209.673 41.3067 209.817 41.3566C209.819 41.3538 209.822 41.35 209.824 41.3471C250.031 57.7265 279.622 95.8853 282.761 142.04V142.04ZM178.214 164.95C178.203 164.967 178.192 164.983 178.181 164.999C174.602 170.161 170.345 175.251 165.348 180.174C157.858 172.204 151.841 163.622 147.275 154.743C147.041 154.267 146.792 153.814 146.563 153.331C146.554 153.313 146.546 153.295 146.537 153.278C143.856 147.595 141.575 141.361 139.81 134.57C150.469 132.062 160.922 131.14 170.904 131.626C171.433 131.661 171.95 131.671 172.483 131.715C172.502 131.716 172.522 131.718 172.542 131.719C178.794 132.237 185.322 133.377 192.075 135.239C188.918 145.719 184.491 155.229 179.081 163.628C178.786 164.068 178.519 164.511 178.214 164.95V164.95ZM126.96 39.3587C126.932 39.3948 126.9 39.429 126.872 39.4651L126.872 39.4652C109.299 62.1615 103.432 90.368 103.703 112.046C62.7862 131.25 53.9939 153.969 59.967 170.489C60.1235 170.941 60.2934 171.39 60.482 171.836C65.8202 184.603 80.4978 190.622 93.2626 185.282C106.029 179.944 112.049 165.266 106.712 152.5C106.244 151.388 105.688 150.341 105.086 149.334C106.379 148.499 107.768 147.641 109.243 146.774C113.806 162.607 120.557 175.998 128.433 187.189C131.27 191.425 134.37 195.512 137.719 199.423C123.696 205.557 106.052 209.155 89.6912 205.814C73.8788 202.584 59.9269 192.265 52.7861 176.344C51.4326 173.326 50.3771 169.881 49.7156 166.613C49.3087 163.758 48.9676 160.879 48.7689 157.956C45.1139 104.225 78.449 56.3914 126.96 39.3587V39.3587ZM173.723 266.994C141.816 269.164 111.991 258.281 89.4494 238.936C117.892 242.807 145.253 233.785 163.891 222.71C200.996 248.564 225.078 244.821 236.4 231.385C236.714 231.024 237.017 230.652 237.309 230.266C245.697 219.259 243.571 203.539 232.564 195.154C221.558 186.767 205.836 188.893 197.449 199.898C196.719 200.859 196.091 201.863 195.52 202.888C194.159 202.191 192.731 201.422 191.254 200.584C202.693 188.711 210.845 176.145 216.602 163.722C218.856 159.138 220.849 154.401 222.565 149.534C234.895 158.612 246.843 172.098 252.133 187.947C257.242 203.255 255.282 220.498 245.064 234.642C243.127 237.324 240.671 239.961 238.171 242.168C238.135 242.2 238.099 242.233 238.063 242.266C220.187 256.317 198.069 265.338 173.723 266.994V266.994Z" fill="url(#paint0_linear_102_54)"/>
<path style="mix-blend-mode:overlay" opacity="0.9" d="M200.893 48.1219C200.423 48.0313 199.949 47.9541 199.469 47.8945C197.04 47.5831 194.653 47.6473 192.351 48.0123C206.7 55.8185 217.162 77.5686 211.662 120.472C209.84 134.682 205.615 148.204 199.513 160.612C194.569 171.282 187.842 182.053 178.8 192.403C183.143 195.66 187.377 198.386 191.254 200.584C202.693 188.711 210.845 176.145 216.602 163.722C222.703 151.314 226.928 137.791 228.75 123.582C235.299 72.4979 219.222 51.3939 200.893 48.1219V48.1219Z" fill="url(#paint1_radial_102_54)"/>
<g style="mix-blend-mode:overlay" opacity="0.8">
<path d="M211.662 120.472C217.162 77.5686 206.7 55.8185 192.351 48.0123C191.791 48.1012 191.241 48.2206 190.692 48.3466C204.74 56.4221 214.848 78.1517 209.423 120.472C207.601 134.682 203.376 148.204 197.274 160.612C192.494 170.928 186.028 181.337 177.434 191.371C177.891 191.725 178.346 192.062 178.8 192.403C187.842 182.053 194.569 171.282 199.513 160.612C205.615 148.204 209.84 134.682 211.662 120.472V120.472Z" fill="white"/>
</g>
<path style="mix-blend-mode:overlay" opacity="0.5" d="M157.121 217.781C155.773 216.753 154.475 215.678 153.177 214.602C132.002 223.437 102.646 228.977 73.4984 222.213C78.2716 228.297 83.5983 233.915 89.4494 238.936C117.892 242.807 145.253 233.785 163.891 222.71C161.679 221.169 159.427 219.537 157.121 217.781V217.781Z" fill="url(#paint2_radial_102_54)"/>
<path style="mix-blend-mode:overlay" opacity="0.6" d="M153.177 214.602C152.529 214.065 151.876 213.533 151.24 212.984C129.904 221.51 100.415 226.607 71.3326 219.359C72.0412 220.321 72.7617 221.273 73.4984 222.213C102.646 228.977 132.002 223.437 153.177 214.602V214.602Z" fill="url(#paint3_linear_102_54)"/>
<path style="mix-blend-mode:overlay" opacity="0.9" d="M59.9737 170.514C60.1303 170.966 60.3002 171.415 60.4888 171.861C61.4335 174.12 62.6828 176.155 64.1498 177.966C63.7355 161.636 77.3409 141.701 117.246 125.013C130.463 119.486 144.287 116.384 158.083 115.464C169.795 114.411 182.486 114.851 195.972 117.506C196.621 112.117 196.865 107.087 196.83 102.63C180.827 98.6605 165.869 97.8838 152.232 99.1098C138.435 100.03 124.612 103.132 111.395 108.659C63.8809 128.529 53.6431 153.005 59.9737 170.514L59.9737 170.514Z" fill="url(#paint4_radial_102_54)"/>
<g style="mix-blend-mode:overlay" opacity="0.8">
<path d="M117.246 125.013C77.3409 141.701 63.7355 161.636 64.1498 177.966C64.5069 178.407 64.8852 178.824 65.2687 179.236C65.2383 163.032 79.0028 143.414 118.366 126.952C131.583 121.425 145.406 118.323 159.203 117.403C170.527 116.385 182.773 116.78 195.76 119.205C195.838 118.632 195.904 118.07 195.972 117.506C182.486 114.851 169.795 114.411 158.083 115.464C144.287 116.384 130.463 119.486 117.246 125.013Z" fill="white"/>
</g>
<path style="mix-blend-mode:overlay" opacity="0.4" d="M228.788 123.592C228.573 125.273 228.29 126.935 228.008 128.597C246.247 142.518 265.722 165.17 274.438 193.796C277.32 186.62 279.522 179.198 280.946 171.62C270.077 145.052 248.582 125.868 229.673 115.264C229.444 117.951 229.157 120.717 228.788 123.592V123.592Z" fill="url(#paint5_radial_102_54)"/>
<path style="mix-blend-mode:overlay" opacity="0.5" d="M228.008 128.597C227.867 129.427 227.732 130.259 227.575 131.084C245.627 145.298 264.785 168.288 273.05 197.098C273.529 196.003 273.993 194.903 274.438 193.796C265.722 165.17 246.247 142.518 228.008 128.597V128.597Z" fill="url(#paint6_linear_102_54)"/>
<path style="mix-blend-mode:overlay" opacity="0.9" d="M236.417 231.351C236.731 230.99 237.034 230.618 237.326 230.232C238.81 228.284 239.948 226.185 240.783 224.009C226.848 232.532 202.781 230.717 168.376 204.502C156.981 195.82 147.382 185.399 139.688 173.911C132.92 164.295 126.955 153.084 122.512 140.078C117.521 142.21 113.042 144.514 109.2 146.773C113.764 162.616 120.57 175.958 128.45 187.156C136.145 198.644 145.743 209.064 157.138 217.747C198.104 248.96 224.419 245.588 236.417 231.351V231.351Z" fill="url(#paint7_radial_102_54)"/>
<g style="mix-blend-mode:overlay" opacity="0.8">
<path d="M168.376 204.502C202.781 230.717 226.848 232.532 240.783 224.009C240.986 223.479 241.158 222.943 241.323 222.405C227.306 230.533 203.433 228.422 169.495 202.563C158.1 193.88 148.502 183.46 140.807 171.972C134.263 162.674 128.482 151.871 124.089 139.411C123.554 139.63 123.035 139.854 122.512 140.078C126.955 153.084 132.92 164.295 139.688 173.911C147.382 185.399 156.981 195.82 168.376 204.502V204.502Z" fill="white"/>
</g>
<path style="mix-blend-mode:overlay" opacity="0.3" d="M111.374 108.614C112.938 107.96 114.519 107.374 116.099 106.788C119.035 84.0315 128.915 55.8394 149.348 33.9787C141.692 35.0703 134.163 36.8744 126.889 39.4308C109.315 62.1272 103.449 90.3338 103.72 112.012C106.162 110.867 108.7 109.732 111.374 108.614V108.614Z" fill="url(#paint8_radial_102_54)"/>
<path style="mix-blend-mode:overlay" opacity="0.4" d="M116.099 106.788C116.888 106.495 117.676 106.196 118.469 105.92C121.753 83.1789 132.084 55.0925 152.902 33.5303C151.714 33.6628 150.529 33.8107 149.348 33.9791C128.915 55.8399 119.035 84.032 116.099 106.788V106.788Z" fill="url(#paint9_linear_102_54)"/>
<path style="mix-blend-mode:multiply" opacity="0.4" d="M155.586 0.351693C114.415 3.15206 78.2646 22.3215 53.038 51.0667C52.8474 51.2839 52.658 51.5016 52.4688 51.72L52.4702 51.718C57.3815 56.5896 73.4324 66.1956 79.9378 70.2014C92.7109 56.4646 108.768 45.746 126.96 39.3587C128.231 37.7217 129.548 36.1065 130.942 34.5322C147.886 15.413 171.024 5.30743 197.861 5.30743C200.848 5.30743 206.932 5.7829 207.062 5.79256C190.793 1.1183 173.453 -0.863621 155.586 0.351693Z" fill="url(#paint10_linear_102_54)"/>
<path style="mix-blend-mode:multiply" opacity="0.4" d="M173.723 266.994C141.816 269.164 111.991 258.281 89.4494 238.936H89.4492L89.4491 238.936C87.351 238.651 85.2482 238.308 83.1419 237.878C58.1126 232.764 37.7919 217.779 24.3734 194.537C22.8798 191.95 21.5434 189.314 20.3389 186.637C37.6624 255.72 102.389 304.647 175.944 299.644C176.27 292.069 174.037 274.494 173.723 266.994V266.994Z" fill="url(#paint11_linear_102_54)"/>
<path style="mix-blend-mode:multiply" opacity="0.4" d="M315.411 139.819C310.803 139.347 288.295 141.124 282.761 142.04C283.453 152.215 282.813 162.177 281.001 171.762C281.778 173.669 282.514 175.604 283.176 177.586C291.262 201.819 288.445 226.91 275.026 250.152C273.56 252.691 271.978 255.122 270.297 257.463C270.266 257.507 270.229 257.559 270.202 257.596C270.2 257.597 270.271 257.537 270.31 257.501C300.776 227.861 318.522 185.549 315.411 139.819V139.819Z" fill="url(#paint12_linear_102_54)"/>
<path style="mix-blend-mode:multiply" opacity="0.5" d="M199.41 39.0104C202.701 39.3471 206.212 40.155 209.374 41.2167C209.519 41.2654 209.673 41.3067 209.817 41.3567C209.819 41.3538 209.822 41.35 209.824 41.3472C222.763 46.6183 234.593 54.1555 244.806 63.4786C244.828 63.4969 244.85 63.5119 244.872 63.5302C249.794 57.9032 259.271 51.72 259.271 51.72C259.271 51.72 244.759 36.876 222.565 32.2693C207.027 29.0443 171.982 25.9182 149.879 63.5302C149.879 63.5302 149.967 63.4473 150.096 63.328C151.732 60.8567 153.47 58.4546 155.436 56.236C166.139 44.157 182.052 37.2337 199.41 39.0104V39.0104Z" fill="url(#paint13_linear_102_54)"/>
<path style="mix-blend-mode:multiply" opacity="0.5" d="M245.06 234.629C243.123 237.311 240.668 239.948 238.168 242.155C238.053 242.256 237.94 242.369 237.825 242.468C237.827 242.472 237.828 242.476 237.83 242.479C226.795 251.049 214.353 257.526 201.172 261.709C201.146 261.719 201.122 261.73 201.095 261.74C203.507 268.816 204.123 280.115 204.123 280.115C204.123 280.115 224.234 274.97 239.321 258.052C249.883 246.209 270.113 217.422 248.591 179.474C248.591 179.474 248.619 179.592 248.658 179.763C249.98 182.415 251.191 185.122 252.13 187.934C257.239 203.242 255.278 220.485 245.06 234.629V234.629Z" fill="url(#paint14_linear_102_54)"/>
<path style="mix-blend-mode:multiply" opacity="0.5" d="M52.8385 176.388C51.4848 173.37 50.4288 169.925 49.7676 166.656C49.7372 166.506 49.6958 166.352 49.6672 166.202C49.6638 166.202 49.659 166.201 49.6555 166.201C47.7508 152.36 48.3632 138.346 51.331 124.84C51.3358 124.812 51.3378 124.786 51.3426 124.757C44.0085 123.308 33.9152 118.192 33.9152 118.192C33.9152 118.192 28.3157 138.182 35.4234 159.706C40.3992 174.774 55.2146 206.688 98.8389 207.023C98.8389 207.023 98.7231 206.988 98.5551 206.936C95.5973 206.756 92.648 206.451 89.7436 205.858C73.9312 202.628 59.9792 192.309 52.8385 176.388V176.388Z" fill="url(#paint15_linear_102_54)"/>
<path style="mix-blend-mode:multiply" opacity="0.6" d="M193.099 97.5983C194.297 97.7498 195.481 97.7919 196.654 97.7734C196.654 97.7734 195.87 82.1881 193.957 74.1918C192.043 66.1956 189.22 60.9003 186.12 57.9032C183.899 55.7561 176.887 53.0821 171.434 69.5602C169.673 83.2854 179.375 95.8373 193.099 97.5983Z" fill="url(#paint16_linear_102_54)"/>
<path style="mix-blend-mode:multiply" opacity="0.5" d="M106.719 152.525C106.251 151.413 105.695 150.366 105.093 149.36C105.093 149.36 91.9875 157.831 86.0193 163.486C80.0512 169.142 76.8767 174.234 75.8313 178.417C75.0825 181.414 76.2727 188.824 93.2696 185.307C106.036 179.969 112.055 165.291 106.719 152.525V152.525Z" fill="url(#paint17_linear_102_54)"/>
<path style="mix-blend-mode:multiply" opacity="0.6" d="M197.47 199.857C196.74 200.819 196.111 201.823 195.541 202.848C195.541 202.848 209.43 209.962 217.312 212.303C225.194 214.644 231.191 214.847 235.337 213.661C238.307 212.811 244.129 208.075 232.584 195.114C221.578 186.727 205.857 188.853 197.47 199.857V199.857Z" fill="url(#paint18_linear_102_54)"/>
<path style="mix-blend-mode:multiply" opacity="0.3" d="M192.075 135.239C188.918 145.719 184.491 155.229 179.081 163.628C178.786 164.068 178.519 164.511 178.214 164.95C178.203 164.967 178.192 164.983 178.181 164.999C174.602 170.161 170.345 175.251 165.348 180.174C168.782 183.828 172.496 187.365 176.573 190.72C181.695 194.762 186.715 198.011 191.254 200.584C202.693 188.711 210.845 176.145 216.602 163.722C218.856 159.138 220.85 154.401 222.565 149.534C217.288 145.649 211.942 142.558 207.016 140.458C201.922 138.286 196.942 136.581 192.075 135.239V135.239Z" fill="url(#paint19_linear_102_54)"/>
<path style="mix-blend-mode:multiply" opacity="0.3" d="M89.4494 238.936C117.892 242.807 145.253 233.785 163.891 222.71C161.679 221.169 159.427 219.537 157.121 217.781C149.927 212.299 143.454 206.122 137.719 199.423C123.696 205.557 106.052 209.155 89.6912 205.814C73.8788 202.584 59.9269 192.265 52.7861 176.344C51.4326 173.326 50.3771 169.881 49.7156 166.613C53.8479 195.609 68.4798 220.94 89.4494 238.936V238.936Z" fill="url(#paint20_linear_102_54)"/>
<path style="mix-blend-mode:multiply" opacity="0.3" d="M165.348 180.174C157.858 172.204 151.841 163.622 147.275 154.743C147.041 154.267 146.792 153.814 146.563 153.331C146.554 153.313 146.546 153.295 146.537 153.278C143.856 147.595 141.575 141.361 139.81 134.57C134.94 135.716 130.031 137.161 125.097 139.01C119.05 141.419 113.735 144.136 109.243 146.774C113.806 162.607 120.557 175.998 128.433 187.19C131.27 191.425 134.37 195.512 137.719 199.423C143.731 196.794 149.089 193.705 153.376 190.486C157.797 187.165 161.758 183.711 165.348 180.174V180.174Z" fill="url(#paint21_linear_102_54)"/>
<path style="mix-blend-mode:multiply" opacity="0.3" d="M126.872 39.4652C109.299 62.1614 103.432 90.368 103.703 112.046C106.154 110.896 108.703 109.757 111.388 108.634C119.723 105.148 128.299 102.632 136.957 101.014C138.658 85.8059 144.364 68.7314 155.436 56.236C166.139 44.157 182.052 37.2336 199.41 39.0103C202.701 39.3471 206.213 40.155 209.374 41.2166C209.519 41.2654 209.673 41.3067 209.817 41.3566C209.819 41.3538 209.822 41.35 209.824 41.3471C193.832 34.8323 176.165 31.7531 157.807 33.0018C147.025 33.7352 136.694 35.941 126.96 39.3587C126.932 39.3948 126.9 39.429 126.872 39.4651L126.872 39.4652V39.4652Z" fill="url(#paint22_linear_102_54)"/>
<path style="mix-blend-mode:multiply" opacity="0.3" d="M280.939 171.595C270.065 145.014 248.554 125.824 229.637 115.223C229.408 117.92 229.12 120.696 228.75 123.582C227.602 132.542 225.493 141.227 222.565 149.534C234.895 158.612 246.843 172.098 252.133 187.947C257.242 203.255 255.282 220.498 245.064 234.642C243.127 237.324 240.671 239.961 238.171 242.168C238.135 242.2 238.099 242.233 238.064 242.266C260.085 224.958 275.661 200.013 281.001 171.762C280.979 171.707 280.961 171.65 280.939 171.595V171.595V171.595Z" fill="url(#paint23_linear_102_54)"/>
<path style="mix-blend-mode:multiply" opacity="0.3" d="M136.868 119.053C137.533 124.539 138.543 129.694 139.81 134.57C150.469 132.062 160.922 131.14 170.904 131.626C171.433 131.661 171.95 131.671 172.483 131.715C172.502 131.716 172.522 131.718 172.542 131.719C178.794 132.238 185.322 133.377 192.075 135.239C193.519 130.445 194.723 125.468 195.589 120.266C196.53 113.8 196.833 107.821 196.791 102.598C180.8 98.6351 165.853 97.8596 152.225 99.0849C147.129 99.4246 142.029 100.067 136.957 101.014C136.227 107.54 136.223 113.728 136.868 119.053H136.868Z" fill="url(#paint24_linear_102_54)"/>
<path d="M227.457 382.233L216.696 412.213H216.777L227.521 382.412L227.457 382.233Z" fill="url(#paint25_linear_102_54)"/>
<path d="M36.3228 382.233L25.5618 412.213H25.5947L36.3635 382.346L36.3228 382.233Z" fill="url(#paint26_linear_102_54)"/>
<path d="M39.0122 389.722L47.087 412.215H30.902L26.8134 423.555H51.2187L58.1378 442.773H73.6093L45.3978 372.012L39.0122 389.722Z" fill="url(#paint27_linear_102_54)"/>
<path d="M25.5618 412.215L36.3238 382.233L36.3645 382.346L40.9097 369.74H29.0208L0 442.773H14.5768L25.5948 412.215H25.5618Z" fill="url(#paint28_linear_102_54)"/>
<path d="M120.504 405.151C116.98 403.072 112.304 401.132 106.474 399.337C103.143 398.25 100.531 397.241 98.6422 396.31C96.7518 395.384 95.4392 394.326 94.703 393.141C93.9656 391.956 93.5976 390.562 93.5976 388.961C93.5976 386.14 94.686 383.964 96.8652 382.425C99.0419 380.887 102.085 380.119 105.994 380.119C109.197 380.119 112.544 380.6 116.036 381.56C119.526 382.521 122.618 383.834 125.309 385.499L127.327 373.682C124.572 372.014 121.225 370.686 117.285 369.694C113.346 368.699 109.42 368.204 105.514 368.204C100.195 368.204 95.583 369.067 91.6755 370.798C87.7681 372.529 84.7406 374.996 82.5955 378.196C80.448 381.402 79.3754 385.18 79.3754 389.536C79.3754 393.253 80.097 396.471 81.5376 399.194C82.9794 401.916 85.3341 404.271 88.6005 406.258C91.8681 408.244 96.1595 410.038 101.477 411.638C105.321 412.791 108.3 413.883 110.415 414.906C112.528 415.93 114.001 417.069 114.835 418.317C115.666 419.567 116.084 421.056 116.084 422.785C116.084 425.798 114.85 428.152 112.384 429.849C109.917 431.545 106.506 432.394 102.15 432.394C98.3692 432.394 94.4142 431.804 90.2824 430.617C86.1507 429.432 82.5467 427.911 79.4717 426.054L78.1262 438.256C79.919 439.475 82.1628 440.53 84.8527 441.427C87.5438 442.324 90.4421 443.029 93.55 443.541C96.6568 444.053 99.7476 444.311 102.823 444.311C111.471 444.311 118.261 442.342 123.195 438.4C128.127 434.461 130.594 429.001 130.594 422.017C130.594 418.302 129.792 415.082 128.192 412.359C126.59 409.636 124.027 407.235 120.504 405.151H120.504Z" fill="url(#paint29_linear_102_54)"/>
<path d="M197.188 369.74H135.4V381.65H197.188V369.74Z" fill="url(#paint30_linear_102_54)"/>
<path d="M173.644 386.642H158.942V442.773H173.644V386.642Z" fill="url(#paint31_linear_102_54)"/>
<path d="M216.696 412.215L227.458 382.233L227.522 382.412L232.092 369.74H220.155L191.134 442.773H205.742L212.659 423.555H212.688L216.777 412.215H216.696Z" fill="url(#paint32_linear_102_54)"/>
<path d="M230.169 389.786L238.221 412.215H222.083L217.994 423.555H242.353L249.273 442.773H264.745L236.557 372.07L230.169 389.786Z" fill="url(#paint33_linear_102_54)"/>
<path d="M312.31 413.176C315.834 411.192 318.716 408.515 320.958 405.151C323.201 401.79 324.322 397.865 324.322 393.38C324.322 388.512 323.232 384.315 321.056 380.792C318.876 377.27 315.771 374.545 311.734 372.624C307.698 370.701 302.893 369.74 297.321 369.74H292.214V380.792H295.397C305.136 380.792 310.004 384.956 310.004 393.285C310.004 401.612 304.975 405.778 294.917 405.778H292.214V416.827H299.722L315.098 442.773H331.53L312.31 413.176V413.176Z" fill="url(#paint34_linear_102_54)"/>
<path d="M287.222 369.74H273.296V442.773H287.222V369.74Z" fill="url(#paint35_linear_102_54)"/>
</g>
<defs>
<linearGradient id="paint0_linear_102_54" x1="63.4003" y1="252.369" x2="254.672" y2="61.0972" gradientUnits="userSpaceOnUse">
<stop offset="0.001139" stop-color="#E6007A"/>
<stop offset="0.207149" stop-color="#703AC2"/>
<stop offset="0.456011" stop-color="#0070EB"/>
<stop offset="0.768132" stop-color="#0297FB"/>
<stop offset="1" stop-color="#0AE2FF"/>
</linearGradient>
<radialGradient id="paint1_radial_102_54" cx="0" cy="0" r="1" gradientUnits="userSpaceOnUse" gradientTransform="translate(208.521 119.635) scale(57.0321 57.0321)">
<stop stop-color="white"/>
<stop offset="1" stop-color="white" stop-opacity="0"/>
</radialGradient>
<radialGradient id="paint2_radial_102_54" cx="0" cy="0" r="1" gradientUnits="userSpaceOnUse" gradientTransform="translate(124.22 225.437) scale(33.1818 33.1818)">
<stop stop-color="white"/>
<stop offset="1" stop-color="white" stop-opacity="0"/>
</radialGradient>
<linearGradient id="paint3_linear_102_54" x1="74.424" y1="219.824" x2="106.409" y2="219.38" gradientUnits="userSpaceOnUse">
<stop stop-color="white" stop-opacity="0"/>
<stop offset="1" stop-color="white"/>
</linearGradient>
<radialGradient id="paint4_radial_102_54" cx="0" cy="0" r="1" gradientUnits="userSpaceOnUse" gradientTransform="translate(118.092 128.151) rotate(-120) scale(57.0321 57.0321)">
<stop stop-color="white"/>
<stop offset="1" stop-color="white" stop-opacity="0"/>
</radialGradient>
<radialGradient id="paint5_radial_102_54" cx="0" cy="0" r="1" gradientUnits="userSpaceOnUse" gradientTransform="translate(251.87 148.257) rotate(-120) scale(33.1817 33.1818)">
<stop stop-color="white"/>
<stop offset="1" stop-color="white" stop-opacity="0"/>
</radialGradient>
<linearGradient id="paint6_linear_102_54" x1="271.907" y1="194.188" x2="255.53" y2="166.71" gradientUnits="userSpaceOnUse">
<stop stop-color="white" stop-opacity="0"/>
<stop offset="1" stop-color="white"/>
</linearGradient>
<radialGradient id="paint7_radial_102_54" cx="0" cy="0" r="1" gradientUnits="userSpaceOnUse" gradientTransform="translate(167.978 199.563) rotate(120) scale(57.0321 57.0321)">
<stop stop-color="white"/>
<stop offset="1" stop-color="white" stop-opacity="0"/>
</radialGradient>
<radialGradient id="paint8_radial_102_54" cx="0" cy="0" r="1" gradientUnits="userSpaceOnUse" gradientTransform="translate(121.194 76.2927) rotate(120) scale(33.1818 33.1818)">
<stop stop-color="white"/>
<stop offset="1" stop-color="white" stop-opacity="0"/>
</radialGradient>
<linearGradient id="paint9_linear_102_54" x1="150.953" y1="35.9749" x2="135.345" y2="63.8969" gradientUnits="userSpaceOnUse">
<stop stop-color="white" stop-opacity="0"/>
<stop offset="1" stop-color="white"/>
</linearGradient>
<linearGradient id="paint10_linear_102_54" x1="157.907" y1="21.7811" x2="109.041" y2="35.9967" gradientUnits="userSpaceOnUse">
<stop stop-color="#231F20"/>
<stop offset="1" stop-color="white"/>
</linearGradient>
<linearGradient id="paint11_linear_102_54" x1="65.5593" y1="208.153" x2="106.429" y2="250.799" gradientUnits="userSpaceOnUse">
<stop stop-color="#231F20"/>
<stop offset="1" stop-color="white"/>
</linearGradient>
<linearGradient id="paint12_linear_102_54" x1="284.909" y1="201.725" x2="299.125" y2="158.486" gradientUnits="userSpaceOnUse">
<stop stop-color="#231F20"/>
<stop offset="1" stop-color="white"/>
</linearGradient>
<linearGradient id="paint13_linear_102_54" x1="180.173" y1="46.5075" x2="245.688" y2="61.5087" gradientUnits="userSpaceOnUse">
<stop stop-color="#231F20"/>
<stop offset="1" stop-color="white"/>
</linearGradient>
<linearGradient id="paint14_linear_102_54" x1="248.186" y1="214.221" x2="202.437" y2="263.458" gradientUnits="userSpaceOnUse">
<stop stop-color="#231F20"/>
<stop offset="1" stop-color="white"/>
</linearGradient>
<linearGradient id="paint15_linear_102_54" x1="68.95" y1="189.3" x2="49.1837" y2="125.061" gradientUnits="userSpaceOnUse">
<stop stop-color="#231F20"/>
<stop offset="1" stop-color="white"/>
</linearGradient>
<linearGradient id="paint16_linear_102_54" x1="194.496" y1="70.6715" x2="173.765" y2="91.4026" gradientUnits="userSpaceOnUse">
<stop stop-color="#231F20"/>
<stop offset="1" stop-color="white"/>
</linearGradient>
<linearGradient id="paint17_linear_102_54" x1="82.701" y1="164.779" x2="111.02" y2="172.367" gradientUnits="userSpaceOnUse">
<stop stop-color="#231F20"/>
<stop offset="1" stop-color="white"/>
</linearGradient>
<linearGradient id="paint18_linear_102_54" x1="220.091" y1="214.53" x2="212.503" y2="186.211" gradientUnits="userSpaceOnUse">
<stop stop-color="#231F20"/>
<stop offset="1" stop-color="white"/>
</linearGradient>
<linearGradient id="paint19_linear_102_54" x1="176.985" y1="189.349" x2="189.423" y2="172.172" gradientUnits="userSpaceOnUse">
<stop stop-color="#231F20"/>
<stop offset="1" stop-color="white"/>
</linearGradient>
<linearGradient id="paint20_linear_102_54" x1="134.155" y1="181.912" x2="109.277" y2="193.758" gradientUnits="userSpaceOnUse">
<stop stop-color="#231F20"/>
<stop offset="1" stop-color="white"/>
</linearGradient>
<linearGradient id="paint21_linear_102_54" x1="125.127" y1="140.502" x2="132.827" y2="156.494" gradientUnits="userSpaceOnUse">
<stop stop-color="#231F20"/>
<stop offset="1" stop-color="white"/>
</linearGradient>
<linearGradient id="paint22_linear_102_54" x1="160.948" y1="91.1106" x2="155.617" y2="72.7488" gradientUnits="userSpaceOnUse">
<stop stop-color="#231F20"/>
<stop offset="1" stop-color="white"/>
</linearGradient>
<linearGradient id="paint23_linear_102_54" x1="218.402" y1="175.18" x2="233.802" y2="178.733" gradientUnits="userSpaceOnUse">
<stop stop-color="#231F20"/>
<stop offset="1" stop-color="white"/>
</linearGradient>
<linearGradient id="paint24_linear_102_54" x1="194.233" y1="123.156" x2="174.686" y2="119.602" gradientUnits="userSpaceOnUse">
<stop stop-color="#231F20"/>
<stop offset="1" stop-color="white"/>
</linearGradient>
<linearGradient id="paint25_linear_102_54" x1="-7.62706" y1="449.801" x2="319.252" y2="374.993" gradientUnits="userSpaceOnUse">
<stop offset="0.001139" stop-color="#E6007A"/>
<stop offset="0.207149" stop-color="#703AC2"/>
<stop offset="0.456011" stop-color="#0070EB"/>
<stop offset="0.768132" stop-color="#0297FB"/>
<stop offset="1" stop-color="#0AE2FF"/>
</linearGradient>
<linearGradient id="paint26_linear_102_54" x1="-17.1574" y1="408.234" x2="309.722" y2="333.426" gradientUnits="userSpaceOnUse">
<stop offset="0.001139" stop-color="#E6007A"/>
<stop offset="0.207149" stop-color="#703AC2"/>
<stop offset="0.456011" stop-color="#0070EB"/>
<stop offset="0.768132" stop-color="#0297FB"/>
<stop offset="1" stop-color="#0AE2FF"/>
</linearGradient>
<linearGradient id="paint27_linear_102_54" x1="-13.5295" y1="424.106" x2="313.38" y2="349.291" gradientUnits="userSpaceOnUse">
<stop offset="0.001139" stop-color="#E6007A"/>
<stop offset="0.207149" stop-color="#703AC2"/>
<stop offset="0.456011" stop-color="#0070EB"/>
<stop offset="0.768132" stop-color="#0297FB"/>
<stop offset="1" stop-color="#0AE2FF"/>
</linearGradient>
<linearGradient id="paint28_linear_102_54" x1="-15.6529" y1="414.827" x2="311.256" y2="340.012" gradientUnits="userSpaceOnUse">
<stop offset="0.001139" stop-color="#E6007A"/>
<stop offset="0.207149" stop-color="#703AC2"/>
<stop offset="0.456011" stop-color="#0070EB"/>
<stop offset="0.768132" stop-color="#0297FB"/>
<stop offset="1" stop-color="#0AE2FF"/>
</linearGradient>
<linearGradient id="paint29_linear_102_54" x1="-11.5377" y1="432.809" x2="315.371" y2="357.994" gradientUnits="userSpaceOnUse">
<stop offset="0.001139" stop-color="#E6007A"/>
<stop offset="0.207149" stop-color="#703AC2"/>
<stop offset="0.456011" stop-color="#0070EB"/>
<stop offset="0.768132" stop-color="#0297FB"/>
<stop offset="1" stop-color="#0AE2FF"/>
</linearGradient>
<linearGradient id="paint30_linear_102_54" x1="-15.1077" y1="417.21" x2="311.801" y2="342.395" gradientUnits="userSpaceOnUse">
<stop offset="0.001139" stop-color="#E6007A"/>
<stop offset="0.207149" stop-color="#703AC2"/>
<stop offset="0.456011" stop-color="#0070EB"/>
<stop offset="0.768132" stop-color="#0297FB"/>
<stop offset="1" stop-color="#0AE2FF"/>
</linearGradient>
<linearGradient id="paint31_linear_102_54" x1="-6.62382" y1="454.281" x2="320.285" y2="379.466" gradientUnits="userSpaceOnUse">
<stop offset="0.001139" stop-color="#E6007A"/>
<stop offset="0.207149" stop-color="#703AC2"/>
<stop offset="0.456011" stop-color="#0070EB"/>
<stop offset="0.768132" stop-color="#0297FB"/>
<stop offset="1" stop-color="#0AE2FF"/>
</linearGradient>
<linearGradient id="paint32_linear_102_54" x1="-6.13973" y1="456.396" x2="320.769" y2="381.581" gradientUnits="userSpaceOnUse">
<stop offset="0.001139" stop-color="#E6007A"/>
<stop offset="0.207149" stop-color="#703AC2"/>
<stop offset="0.456011" stop-color="#0070EB"/>
<stop offset="0.768132" stop-color="#0297FB"/>
<stop offset="1" stop-color="#0AE2FF"/>
</linearGradient>
<linearGradient id="paint33_linear_102_54" x1="-4.01011" y1="465.702" x2="322.899" y2="390.887" gradientUnits="userSpaceOnUse">
<stop offset="0.001139" stop-color="#E6007A"/>
<stop offset="0.207149" stop-color="#703AC2"/>
<stop offset="0.456011" stop-color="#0070EB"/>
<stop offset="0.768132" stop-color="#0297FB"/>
<stop offset="1" stop-color="#0AE2FF"/>
</linearGradient>
<linearGradient id="paint34_linear_102_54" x1="-1.21645" y1="477.909" x2="325.67" y2="403.099" gradientUnits="userSpaceOnUse">
<stop offset="0.001139" stop-color="#E6007A"/>
<stop offset="0.207149" stop-color="#703AC2"/>
<stop offset="0.456011" stop-color="#0070EB"/>
<stop offset="0.768132" stop-color="#0297FB"/>
<stop offset="1" stop-color="#0AE2FF"/>
</linearGradient>
<linearGradient id="paint35_linear_102_54" x1="-2.78977" y1="471.034" x2="324.119" y2="396.219" gradientUnits="userSpaceOnUse">
<stop offset="0.001139" stop-color="#E6007A"/>
<stop offset="0.207149" stop-color="#703AC2"/>
<stop offset="0.456011" stop-color="#0070EB"/>
<stop offset="0.768132" stop-color="#0297FB"/>
<stop offset="1" stop-color="#0AE2FF"/>
</linearGradient>
<clipPath id="clip0_102_54">
<rect width="331.53" height="444.311" fill="white"/>
</clipPath>
</defs>
</svg>
