<svg width="673" height="800" viewBox="0 0 673 800" fill="none" xmlns="http://www.w3.org/2000/svg">
<g clip-path="url(#clip0_2916_31690)">
<path d="M111.864 765.498C111.864 769.495 111.365 773.091 110.332 776.322C109.3 779.519 107.968 782.35 106.303 784.781C104.637 787.212 102.673 789.31 100.441 791.008C98.21 792.74 95.9121 794.139 93.5143 795.238C91.1165 796.337 88.6854 797.136 86.221 797.669C83.7233 798.169 81.3921 798.435 79.2274 798.435H0.932479V778.154H79.2274C83.1238 778.154 86.1544 776.988 88.319 774.69C90.4837 772.392 91.5494 769.328 91.5494 765.498C91.5494 763.634 91.2497 761.902 90.6835 760.337C90.1174 758.771 89.3181 757.439 88.2524 756.274C87.1867 755.141 85.8879 754.275 84.3227 753.643C82.7908 753.01 81.0923 752.71 79.2274 752.71H32.5368C29.2732 752.71 25.7431 752.111 21.9465 750.945C18.15 749.78 14.6199 747.881 11.3563 745.284C8.12588 742.686 5.39505 739.289 3.23037 735.06V735.06C1.06569 730.83 0 725.702 0 719.607C0 713.513 1.06569 708.384 3.23037 704.188C5.39505 699.992 8.12588 696.595 11.3563 693.964C14.6199 691.333 18.15 689.435 21.9465 688.269C25.7431 687.104 29.2732 686.504 32.5368 686.504H101.64V706.786H32.5368C28.707 706.786 25.7098 707.951 23.5451 710.316C21.3804 712.647 20.2814 715.744 20.2814 719.607C20.2814 723.504 21.3804 726.601 23.5451 728.865C25.7098 731.097 28.707 732.229 32.5368 732.229H79.3939C81.5586 732.296 83.8898 732.595 86.3209 733.128C88.752 733.694 91.1831 734.527 93.6142 735.692C96.0453 736.825 98.3432 738.257 100.541 740.022C102.706 741.754 104.637 743.852 106.336 746.283C108.034 748.747 109.4 751.545 110.365 754.708C111.365 757.872 111.864 761.469 111.864 765.498V765.498ZM149.163 686.504V732.229H220.431V686.504H240.713V798.435H220.431V752.71H149.163V798.435H128.882V686.504H149.163V686.504ZM284.906 686.504V798.435H264.591V686.504H284.906V686.504ZM420.315 733.328V751.611C420.315 758.438 419.116 764.699 416.751 770.427C414.387 776.122 411.123 781.051 406.96 785.214C402.797 789.343 397.869 792.574 392.141 794.938C386.412 797.269 380.185 798.435 373.491 798.435H318.708C317.243 798.435 315.877 798.169 314.645 797.669C313.379 797.136 312.28 796.403 311.381 795.504C310.482 794.605 309.749 793.506 309.25 792.274C308.75 791.042 308.484 789.676 308.484 788.211V696.728C308.484 695.329 308.75 693.997 309.25 692.765C309.749 691.5 310.482 690.401 311.381 689.468C312.28 688.536 313.379 687.803 314.645 687.27C315.877 686.771 317.243 686.504 318.708 686.504H373.491C380.185 686.504 386.412 687.67 392.141 690.034C397.869 692.365 402.797 695.596 406.96 699.725C411.123 703.888 414.387 708.817 416.751 714.578C419.116 720.34 420.315 726.567 420.315 733.328V733.328ZM400.033 751.611V733.328C400.033 729.365 399.401 725.768 398.102 722.505C396.836 719.208 395.038 716.41 392.673 714.112C390.342 711.781 387.545 709.983 384.281 708.717C381.051 707.418 377.454 706.786 373.491 706.786H328.765V778.154H373.491C377.454 778.154 381.051 777.521 384.281 776.222C387.545 774.956 390.342 773.158 392.673 770.827C395.038 768.529 396.836 765.732 398.102 762.501C399.401 759.238 400.033 755.608 400.033 751.611V751.611ZM532.245 732.229V752.71H468.171V732.229H532.245ZM541.37 778.154V798.435H468.171C465.34 798.435 462.276 797.935 458.946 796.936C455.616 795.971 452.552 794.339 449.721 792.074C446.89 789.809 444.493 786.879 442.594 783.249C440.696 779.619 439.764 775.19 439.764 769.961V696.728C439.764 695.329 440.03 693.997 440.53 692.765C441.062 691.5 441.795 690.401 442.694 689.468C443.593 688.536 444.692 687.803 445.925 687.27C447.157 686.771 448.522 686.504 449.987 686.504H541.37V706.786H460.045V769.961C460.045 772.592 460.744 774.623 462.143 776.022C463.575 777.454 465.64 778.154 468.337 778.154H541.37V778.154ZM672.817 686.504V789.776C672.817 791.208 672.55 792.574 672.017 793.839C671.451 795.071 670.719 796.17 669.819 797.07C668.92 797.969 667.821 798.701 666.589 799.201C665.323 799.734 663.991 800 662.593 800C661.36 800 660.095 799.767 658.796 799.301C657.531 798.835 656.398 798.069 655.399 797.036L581.267 719.607V798.435H560.986V695.163C560.986 693.065 561.552 691.2 562.718 689.501C563.883 687.803 565.382 686.571 567.213 685.738C569.145 684.939 571.11 684.739 573.141 685.139C575.173 685.538 576.938 686.504 578.37 688.003L652.535 765.332V686.504H672.817V686.504Z" fill="#5928B1"/>
<path d="M467.305 120.157C420.814 133.278 352.244 160.686 289.402 216.868C226.259 275.681 269.12 328.133 269.586 328.665C269.586 328.665 246.441 286.437 302.423 234.385C303.122 233.786 374.557 172.708 478.462 143.402C491.716 139.672 505.104 136.542 518.258 134.177L519.158 134.011L535.876 107.168L531.779 107.468C531.513 107.468 505.404 109.433 467.305 120.157Z" fill="#5928B1"/>
<path d="M538.806 44.9589C528.116 36.0338 517.426 28.9736 517.292 28.907L516.66 28.5073L515.894 28.6072C515.594 28.6405 486.754 32.1706 447.057 43.3604C375.989 63.4087 280.41 104.471 228.657 186.396C204.08 223.595 223.861 268.121 223.861 268.121L223.262 256.798C223.195 255.599 219.798 135.543 468.404 65.4401C490.151 59.3124 513.529 53.6509 537.874 48.6222L542.136 47.7563L538.806 44.9589V44.9589Z" fill="#764BC4"/>
<path d="M553.859 60.6443C553.526 60.6776 520.822 64.1078 475.264 76.9626C427.042 90.5502 356.839 116.926 296.195 165.315C260.428 192.79 237.815 225.959 234.118 256.298C232.287 271.118 249.837 302.523 249.837 302.523L246.141 291.366C245.974 290.867 230.289 240.013 309.716 181.001C354.208 147.931 400.566 125.318 455.615 109.799C483.989 101.807 511.164 96.5447 541.237 90.9831L542.303 90.7833L542.769 89.8175C545.033 84.9886 555.857 63.9079 555.99 63.6748L557.755 60.2446L553.925 60.6443H553.859Z" fill="#764BC4"/>
<path d="M206.377 215.003C209.375 167.347 245.841 123.32 314.811 84.1229C351.178 61.6435 391.807 43.993 435.601 31.671C472.733 21.2139 504.138 18.0834 504.138 18.0834L478.894 0C478.661 0 455.382 2.86404 422.146 12.2221C208.908 72.367 182.466 175.939 184.83 217.567C188.96 290.167 275.348 341.787 275.348 341.787C275.348 341.787 201.915 286.004 206.377 215.003V215.003Z" fill="#BBA5E1"/>
<path d="M209.008 434.635C255.499 421.514 324.069 394.105 386.912 337.924C450.054 279.111 407.193 226.659 406.727 226.126C406.727 226.126 429.872 268.354 373.89 320.406C373.191 321.006 301.756 382.083 197.852 411.389C184.597 415.119 171.209 418.25 158.055 420.614L157.156 420.781L140.438 447.623L144.534 447.323C144.8 447.323 170.91 445.358 209.008 434.635Z" fill="#5928B1"/>
<path d="M137.507 509.832C148.197 518.758 158.887 525.818 159.021 525.884L159.653 526.284L160.419 526.184C160.719 526.151 189.559 522.621 229.256 511.431C300.324 491.383 395.903 450.32 447.656 368.395C472.234 331.196 452.452 286.67 452.452 286.67L453.051 297.993C453.118 299.192 456.515 419.249 207.909 489.351C186.162 495.479 162.784 501.14 138.44 506.169L134.177 507.035L137.507 509.832V509.832Z" fill="#764BC4"/>
<path d="M122.487 494.181C122.82 494.147 155.524 490.717 201.082 477.862C249.304 464.275 319.507 437.899 380.151 389.51C415.918 362.035 438.531 328.865 442.227 298.527C444.059 283.707 426.509 252.302 426.509 252.302L430.205 263.459C430.372 263.958 446.057 314.812 366.63 373.824C322.138 406.894 275.78 429.506 220.731 445.026C192.357 453.018 165.181 458.28 135.109 463.842L134.043 464.041L133.577 465.007C131.312 469.836 120.489 490.917 120.356 491.15L118.591 494.58L122.421 494.181H122.487Z" fill="#764BC4"/>
<path d="M469.969 339.789C466.972 387.445 430.506 431.471 361.535 470.669C325.169 493.148 284.539 510.799 240.746 523.121C203.614 533.578 172.209 536.708 172.209 536.708L197.453 554.792C197.686 554.792 220.964 551.928 254.201 542.569C467.438 482.458 493.848 378.853 491.483 337.224C487.353 264.624 400.966 213.005 400.966 213.005C400.966 213.005 474.399 268.787 469.936 339.789H469.969Z" fill="#BBA5E1"/>
</g>
<defs>
<clipPath id="clip0_2916_31690">
<rect width="672.817" height="800" fill="white"/>
</clipPath>
</defs>
</svg>
